M48
; DRILL file {KiCad 9.0.3} date 2025-09-14T01:16:20+0700
; FORMAT={-:-/ absolute / inch / decimal}
; #@! TF.CreationDate,2025-09-14T01:16:20+07:00
; #@! TF.GenerationSoftware,Kicad,Pcbnew,9.0.3
; #@! TF.FileFunction,Plated,1,4,PTH
FMAT,2
INCH
; #@! TA.AperFunction,Plated,PTH,ViaDrill
T1C0.0118
; #@! TA.AperFunction,Plated,PTH,ComponentDrill
T2C0.0118
; #@! TA.AperFunction,Plated,PTH,ComponentDrill
T3C0.0197
; #@! TA.AperFunction,Plated,PTH,ComponentDrill
T4C0.0236
; #@! TA.AperFunction,Plated,PTH,ComponentDrill
T5C0.0394
; #@! TA.AperFunction,Plated,PTH,ComponentDrill
T6C0.1457
%
G90
G05
T1
X4.0472Y-4.5467
X4.0472Y-4.7809
X4.0512Y-3.9941
X4.1732Y-3.4331
X4.2303Y-3.2874
X4.2382Y-3.122
X4.2444Y-3.67
X4.2559Y-2.872
X4.2559Y-3.0197
X4.2815Y-4.1683
X4.3305Y-3.876
X4.3386Y-3.2717
X4.3406Y-4.5866
X4.3424Y-3.8323
X4.3484Y-3.4114
X4.3504Y-3.6378
X4.3533Y-4.4695
X4.3642Y-4.7012
X4.3809Y-4.3711
X4.3829Y-4.4311
X4.4026Y-4.2323
X4.425Y-3.7388
X4.4293Y-3.6455
X4.4439Y-4.2303
X4.4449Y-2.6772
X4.4504Y-3.4063
X4.4577Y-4.7096
X4.4636Y-4.4774
X4.4717Y-3.6445
X4.4841Y-4.1812
X4.4941Y-3.1024
X4.5177Y-4.1476
X4.5197Y-4.7106
X4.5413Y-3.9921
X4.5433Y-3.062
X4.5433Y-3.9055
X4.5453Y-4.0354
X4.5492Y-3.6573
X4.559Y-3.7061
X4.5657Y-3.6794
X4.5854Y-3.5673
X4.5945Y-4.7106
X4.6102Y-3.876
X4.6142Y-4.1831
X4.6201Y-4.8307
X4.6398Y-4.5787
X4.6614Y-3.062
X4.6614Y-3.1024
X4.6642Y-4.3701
X4.6713Y-4.4291
X4.687Y-3.1222
X4.6872Y-3.0828
X4.6873Y-3.9278
X4.6909Y-2.6772
X4.6929Y-3.4075
X4.7015Y-4.002
X4.7047Y-3.9016
X4.7087Y-3.7362
X4.7165Y-4.3415
X4.7185Y-4.9783
X4.7323Y-3.4311
X4.7362Y-3.9961
X4.7405Y-3.8618
X4.7423Y-4.3879
X4.7461Y-4.2736
X4.752Y-3.7756
X4.7596Y-4.2303
X4.7648Y-3.5541
X4.7756Y-3.6142
X4.7795Y-4.313
X4.7795Y-4.9774
X4.7913Y-4.2638
X4.7978Y-4.5773
X4.816Y-3.1163
X4.8181Y-3.1457
X4.8248Y-4.5925
X4.8369Y-4.37
X4.8378Y-3.1719
X4.8415Y-3.3219
X4.8673Y-4.378
X4.8848Y-3.3956
X4.9075Y-3.3396
X4.9251Y-4.3716
X4.9339Y-3.253
X4.937Y-4.8474
X4.939Y-4.6703
X4.9452Y-2.917
X4.9473Y-4.3493
X4.9587Y-3.1988
X4.9705Y-3.4232
X4.9808Y-3.5664
X4.9862Y-3.1378
X4.9949Y-4.363
X5.0128Y-4.6831
X5.0136Y-3.5658
X5.0225Y-4.3632
X5.0591Y-3.5502
X5.0591Y-3.578
X5.063Y-3.4603
X5.0728Y-4.3839
X5.0817Y-4.4578
X5.1047Y-3.5126
X5.1063Y-4.3622
X5.1527Y-4.3436
X5.1545Y-2.9409
X5.1693Y-3.5138
X5.2001Y-4.3238
X5.2087Y-4.4341
X5.2185Y-2.687
X5.2264Y-2.9016
X5.2264Y-3.2402
X5.2295Y-3.3889
X5.2362Y-3.5726
X5.242Y-3.5457
X5.2598Y-4.291
X5.2756Y-3.5413
X5.3445Y-4.4035
X5.3976Y-2.7323
X5.3986Y-3.5925
X5.439Y-4.2185
X5.4464Y-3.5259
X5.4587Y-3.5866
X5.4822Y-3.759
X5.4972Y-4.1811
X5.5019Y-4.0531
X5.5086Y-3.5603
X5.5118Y-4.5276
X5.5125Y-4.479
X5.5217Y-4.0039
X5.5256Y-4.1437
X5.5315Y-4.2704
X5.5315Y-4.3071
X5.5333Y-4.0503
X5.5492Y-4.1791
X5.5621Y-4.0818
X5.5846Y-3.8504
X5.5906Y-3.7047
X5.6003Y-3.6242
X5.6083Y-4.4291
X5.6102Y-4.5394
X5.6201Y-3.8524
X5.6201Y-4.4016
X5.6299Y-4.3612
X5.6418Y-4.0098
X5.6516Y-2.9616
X5.6673Y-3.3169
X5.7047Y-4.0748
X5.7657Y-3.624
X5.7687Y-4.8494
X5.7776Y-5.065
X5.8307Y-3.9961
X5.8573Y-2.872
X5.9173Y-2.6673
X5.9744Y-5.0079
X5.9764Y-2.8041
X5.9921Y-3.1407
X6.0472Y-3.5857
X6.0492Y-4.0315
X6.063Y-3.7795
X6.187Y-5.1437
X6.2638Y-3.3602
T2
X4.7283Y-4.6829
X4.7283Y-4.7321
X4.7283Y-4.7813
X4.7776Y-4.6829
X4.7776Y-4.7321
X4.7776Y-4.7813
X4.8268Y-4.6829
X4.8268Y-4.7321
X4.8268Y-4.7813
X5.7854Y-3.0246
X5.7854Y-3.0758
X5.8366Y-3.0246
X5.8366Y-3.0758
X5.8878Y-3.0246
X5.8878Y-3.0758
X5.939Y-3.0246
X5.939Y-3.0758
T3
X4.0246Y-2.5591
X4.0246Y-5.315
X4.0566Y-2.4818
X4.0566Y-2.6363
X4.0566Y-5.2377
X4.0566Y-5.3922
X4.1339Y-2.4498
X4.1339Y-2.6683
X4.1339Y-5.2057
X4.1339Y-5.4242
X4.2111Y-2.4818
X4.2111Y-2.6363
X4.2111Y-5.2377
X4.2111Y-5.3922
X4.2431Y-2.5591
X4.2431Y-5.315
X5.9931Y-5.315
X5.9946Y-2.5576
X6.0251Y-5.2377
X6.0251Y-5.3922
X6.0266Y-2.4803
X6.0266Y-2.6348
X6.1024Y-5.2057
X6.1024Y-5.4242
X6.1038Y-2.4483
X6.1038Y-2.6668
X6.1796Y-5.2377
X6.1796Y-5.3922
X6.1811Y-2.4803
X6.1811Y-2.6348
X6.2116Y-5.315
X6.2131Y-2.5576
T5
X4.0512Y-3.2323
X4.0512Y-3.3323
X4.0512Y-3.4323
X4.0512Y-3.6004
X4.0512Y-3.7004
X4.0512Y-3.8004
X4.0512Y-3.9004
T6
X4.1339Y-2.5591
X4.1339Y-5.315
X6.1024Y-5.315
X6.1038Y-2.5576
T4
G00X5.9752Y-3.6142
M15
G01X6.0185Y-3.6142
M16
G05
G00X5.9752Y-3.9543
M15
G01X6.0185Y-3.9543
M16
G05
G00X6.1496Y-3.6142
M15
G01X6.1732Y-3.6142
M16
G05
G00X6.1496Y-3.9543
M15
G01X6.1732Y-3.9543
M16
G05
M30
