%TF.GenerationSoftware,KiCad,Pcbnew,9.0.3*%
%TF.CreationDate,2025-09-14T01:16:20+07:00*%
%TF.ProjectId,CodeName0,436f6465-4e61-46d6-9530-2e6b69636164,rev?*%
%TF.SameCoordinates,Original*%
%TF.FileFunction,Copper,L1,Top*%
%TF.FilePolarity,Positive*%
%FSLAX46Y46*%
G04 Gerber Fmt 4.6, Leading zero omitted, Abs format (unit mm)*
G04 Created by KiCad (PCBNEW 9.0.3) date 2025-09-14 01:16:20*
%MOMM*%
%LPD*%
G01*
G04 APERTURE LIST*
G04 Aperture macros list*
%AMRoundRect*
0 Rectangle with rounded corners*
0 $1 Rounding radius*
0 $2 $3 $4 $5 $6 $7 $8 $9 X,Y pos of 4 corners*
0 Add a 4 corners polygon primitive as box body*
4,1,4,$2,$3,$4,$5,$6,$7,$8,$9,$2,$3,0*
0 Add four circle primitives for the rounded corners*
1,1,$1+$1,$2,$3*
1,1,$1+$1,$4,$5*
1,1,$1+$1,$6,$7*
1,1,$1+$1,$8,$9*
0 Add four rect primitives between the rounded corners*
20,1,$1+$1,$2,$3,$4,$5,0*
20,1,$1+$1,$4,$5,$6,$7,0*
20,1,$1+$1,$6,$7,$8,$9,0*
20,1,$1+$1,$8,$9,$2,$3,0*%
G04 Aperture macros list end*
%TA.AperFunction,SMDPad,CuDef*%
%ADD10RoundRect,0.250000X0.250000X0.475000X-0.250000X0.475000X-0.250000X-0.475000X0.250000X-0.475000X0*%
%TD*%
%TA.AperFunction,SMDPad,CuDef*%
%ADD11RoundRect,0.200000X-0.200000X-0.275000X0.200000X-0.275000X0.200000X0.275000X-0.200000X0.275000X0*%
%TD*%
%TA.AperFunction,SMDPad,CuDef*%
%ADD12RoundRect,0.225000X-0.250000X0.225000X-0.250000X-0.225000X0.250000X-0.225000X0.250000X0.225000X0*%
%TD*%
%TA.AperFunction,SMDPad,CuDef*%
%ADD13RoundRect,0.225000X0.225000X0.250000X-0.225000X0.250000X-0.225000X-0.250000X0.225000X-0.250000X0*%
%TD*%
%TA.AperFunction,SMDPad,CuDef*%
%ADD14RoundRect,0.200000X-0.275000X0.200000X-0.275000X-0.200000X0.275000X-0.200000X0.275000X0.200000X0*%
%TD*%
%TA.AperFunction,ComponentPad*%
%ADD15C,0.800000*%
%TD*%
%TA.AperFunction,ComponentPad*%
%ADD16C,7.400000*%
%TD*%
%TA.AperFunction,SMDPad,CuDef*%
%ADD17RoundRect,0.250000X1.000000X0.650000X-1.000000X0.650000X-1.000000X-0.650000X1.000000X-0.650000X0*%
%TD*%
%TA.AperFunction,SMDPad,CuDef*%
%ADD18RoundRect,0.225000X-0.225000X-0.250000X0.225000X-0.250000X0.225000X0.250000X-0.225000X0.250000X0*%
%TD*%
%TA.AperFunction,SMDPad,CuDef*%
%ADD19RoundRect,0.250000X0.325000X0.650000X-0.325000X0.650000X-0.325000X-0.650000X0.325000X-0.650000X0*%
%TD*%
%TA.AperFunction,SMDPad,CuDef*%
%ADD20RoundRect,0.200000X0.275000X-0.200000X0.275000X0.200000X-0.275000X0.200000X-0.275000X-0.200000X0*%
%TD*%
%TA.AperFunction,SMDPad,CuDef*%
%ADD21RoundRect,0.250000X-0.325000X-0.650000X0.325000X-0.650000X0.325000X0.650000X-0.325000X0.650000X0*%
%TD*%
%TA.AperFunction,SMDPad,CuDef*%
%ADD22RoundRect,0.218750X0.218750X0.256250X-0.218750X0.256250X-0.218750X-0.256250X0.218750X-0.256250X0*%
%TD*%
%TA.AperFunction,SMDPad,CuDef*%
%ADD23RoundRect,0.250000X1.000000X-1.950000X1.000000X1.950000X-1.000000X1.950000X-1.000000X-1.950000X0*%
%TD*%
%TA.AperFunction,SMDPad,CuDef*%
%ADD24RoundRect,0.200000X-0.800000X0.200000X-0.800000X-0.200000X0.800000X-0.200000X0.800000X0.200000X0*%
%TD*%
%TA.AperFunction,SMDPad,CuDef*%
%ADD25RoundRect,0.243750X-0.243750X-0.456250X0.243750X-0.456250X0.243750X0.456250X-0.243750X0.456250X0*%
%TD*%
%TA.AperFunction,SMDPad,CuDef*%
%ADD26RoundRect,0.140000X0.140000X0.170000X-0.140000X0.170000X-0.140000X-0.170000X0.140000X-0.170000X0*%
%TD*%
%TA.AperFunction,SMDPad,CuDef*%
%ADD27RoundRect,0.218750X-0.256250X0.218750X-0.256250X-0.218750X0.256250X-0.218750X0.256250X0.218750X0*%
%TD*%
%TA.AperFunction,SMDPad,CuDef*%
%ADD28RoundRect,0.200000X0.800000X-0.200000X0.800000X0.200000X-0.800000X0.200000X-0.800000X-0.200000X0*%
%TD*%
%TA.AperFunction,SMDPad,CuDef*%
%ADD29RoundRect,0.250000X-0.600000X-2.600000X0.600000X-2.600000X0.600000X2.600000X-0.600000X2.600000X0*%
%TD*%
%TA.AperFunction,ComponentPad*%
%ADD30C,2.000000*%
%TD*%
%TA.AperFunction,SMDPad,CuDef*%
%ADD31RoundRect,0.218750X0.256250X-0.218750X0.256250X0.218750X-0.256250X0.218750X-0.256250X-0.218750X0*%
%TD*%
%TA.AperFunction,SMDPad,CuDef*%
%ADD32R,1.600000X0.700000*%
%TD*%
%TA.AperFunction,SMDPad,CuDef*%
%ADD33R,1.600000X1.400000*%
%TD*%
%TA.AperFunction,SMDPad,CuDef*%
%ADD34R,2.200000X1.400000*%
%TD*%
%TA.AperFunction,SMDPad,CuDef*%
%ADD35R,1.400000X1.800000*%
%TD*%
%TA.AperFunction,SMDPad,CuDef*%
%ADD36RoundRect,0.225000X0.250000X-0.225000X0.250000X0.225000X-0.250000X0.225000X-0.250000X-0.225000X0*%
%TD*%
%TA.AperFunction,SMDPad,CuDef*%
%ADD37RoundRect,0.250000X-0.450000X-0.350000X0.450000X-0.350000X0.450000X0.350000X-0.450000X0.350000X0*%
%TD*%
%TA.AperFunction,SMDPad,CuDef*%
%ADD38RoundRect,0.375000X0.375000X-0.625000X0.375000X0.625000X-0.375000X0.625000X-0.375000X-0.625000X0*%
%TD*%
%TA.AperFunction,SMDPad,CuDef*%
%ADD39RoundRect,0.500000X1.400000X-0.500000X1.400000X0.500000X-1.400000X0.500000X-1.400000X-0.500000X0*%
%TD*%
%TA.AperFunction,SMDPad,CuDef*%
%ADD40RoundRect,0.140000X0.170000X-0.140000X0.170000X0.140000X-0.170000X0.140000X-0.170000X-0.140000X0*%
%TD*%
%TA.AperFunction,SMDPad,CuDef*%
%ADD41RoundRect,0.150000X0.150000X0.700000X-0.150000X0.700000X-0.150000X-0.700000X0.150000X-0.700000X0*%
%TD*%
%TA.AperFunction,SMDPad,CuDef*%
%ADD42RoundRect,0.250000X0.250000X1.100000X-0.250000X1.100000X-0.250000X-1.100000X0.250000X-1.100000X0*%
%TD*%
%TA.AperFunction,SMDPad,CuDef*%
%ADD43R,1.450000X0.600000*%
%TD*%
%TA.AperFunction,SMDPad,CuDef*%
%ADD44R,1.450000X0.300000*%
%TD*%
%TA.AperFunction,HeatsinkPad*%
%ADD45O,2.100000X1.000000*%
%TD*%
%TA.AperFunction,HeatsinkPad*%
%ADD46O,1.600000X1.000000*%
%TD*%
%TA.AperFunction,SMDPad,CuDef*%
%ADD47RoundRect,0.200000X-0.200000X-0.800000X0.200000X-0.800000X0.200000X0.800000X-0.200000X0.800000X0*%
%TD*%
%TA.AperFunction,SMDPad,CuDef*%
%ADD48RoundRect,0.150000X-0.700000X0.150000X-0.700000X-0.150000X0.700000X-0.150000X0.700000X0.150000X0*%
%TD*%
%TA.AperFunction,SMDPad,CuDef*%
%ADD49RoundRect,0.250000X-1.100000X0.250000X-1.100000X-0.250000X1.100000X-0.250000X1.100000X0.250000X0*%
%TD*%
%TA.AperFunction,SMDPad,CuDef*%
%ADD50RoundRect,0.250000X-0.250000X-0.475000X0.250000X-0.475000X0.250000X0.475000X-0.250000X0.475000X0*%
%TD*%
%TA.AperFunction,SMDPad,CuDef*%
%ADD51RoundRect,0.030000X0.270000X-0.745000X0.270000X0.745000X-0.270000X0.745000X-0.270000X-0.745000X0*%
%TD*%
%TA.AperFunction,ComponentPad*%
%ADD52C,0.500000*%
%TD*%
%TA.AperFunction,SMDPad,CuDef*%
%ADD53R,4.900000X2.950000*%
%TD*%
%TA.AperFunction,SMDPad,CuDef*%
%ADD54RoundRect,0.075000X-0.725000X-0.075000X0.725000X-0.075000X0.725000X0.075000X-0.725000X0.075000X0*%
%TD*%
%TA.AperFunction,SMDPad,CuDef*%
%ADD55RoundRect,0.075000X-0.075000X-0.725000X0.075000X-0.725000X0.075000X0.725000X-0.075000X0.725000X0*%
%TD*%
%TA.AperFunction,SMDPad,CuDef*%
%ADD56RoundRect,0.218750X-0.218750X-0.256250X0.218750X-0.256250X0.218750X0.256250X-0.218750X0.256250X0*%
%TD*%
%TA.AperFunction,SMDPad,CuDef*%
%ADD57RoundRect,0.087500X-0.087500X0.207500X-0.087500X-0.207500X0.087500X-0.207500X0.087500X0.207500X0*%
%TD*%
%TA.AperFunction,SMDPad,CuDef*%
%ADD58RoundRect,0.087500X-0.207500X0.087500X-0.207500X-0.087500X0.207500X-0.087500X0.207500X0.087500X0*%
%TD*%
%TA.AperFunction,SMDPad,CuDef*%
%ADD59RoundRect,0.147500X-0.147500X-0.172500X0.147500X-0.172500X0.147500X0.172500X-0.147500X0.172500X0*%
%TD*%
%TA.AperFunction,SMDPad,CuDef*%
%ADD60RoundRect,0.250000X0.650000X-0.325000X0.650000X0.325000X-0.650000X0.325000X-0.650000X-0.325000X0*%
%TD*%
%TA.AperFunction,SMDPad,CuDef*%
%ADD61RoundRect,0.087500X-0.725000X-0.087500X0.725000X-0.087500X0.725000X0.087500X-0.725000X0.087500X0*%
%TD*%
%TA.AperFunction,SMDPad,CuDef*%
%ADD62RoundRect,0.015750X-0.174250X0.159250X-0.174250X-0.159250X0.174250X-0.159250X0.174250X0.159250X0*%
%TD*%
%TA.AperFunction,SMDPad,CuDef*%
%ADD63RoundRect,0.250000X0.275000X0.250000X-0.275000X0.250000X-0.275000X-0.250000X0.275000X-0.250000X0*%
%TD*%
%TA.AperFunction,SMDPad,CuDef*%
%ADD64RoundRect,0.250000X0.850000X0.275000X-0.850000X0.275000X-0.850000X-0.275000X0.850000X-0.275000X0*%
%TD*%
%TA.AperFunction,SMDPad,CuDef*%
%ADD65RoundRect,0.250000X-0.650000X1.000000X-0.650000X-1.000000X0.650000X-1.000000X0.650000X1.000000X0*%
%TD*%
%TA.AperFunction,SMDPad,CuDef*%
%ADD66RoundRect,0.140000X-0.140000X-0.170000X0.140000X-0.170000X0.140000X0.170000X-0.140000X0.170000X0*%
%TD*%
%TA.AperFunction,SMDPad,CuDef*%
%ADD67RoundRect,0.243750X-0.456250X0.243750X-0.456250X-0.243750X0.456250X-0.243750X0.456250X0.243750X0*%
%TD*%
%TA.AperFunction,SMDPad,CuDef*%
%ADD68RoundRect,0.200000X0.200000X0.275000X-0.200000X0.275000X-0.200000X-0.275000X0.200000X-0.275000X0*%
%TD*%
%TA.AperFunction,SMDPad,CuDef*%
%ADD69RoundRect,0.150000X-0.587500X-0.150000X0.587500X-0.150000X0.587500X0.150000X-0.587500X0.150000X0*%
%TD*%
%TA.AperFunction,SMDPad,CuDef*%
%ADD70RoundRect,0.112500X0.187500X0.112500X-0.187500X0.112500X-0.187500X-0.112500X0.187500X-0.112500X0*%
%TD*%
%TA.AperFunction,SMDPad,CuDef*%
%ADD71RoundRect,0.150000X0.700000X-0.150000X0.700000X0.150000X-0.700000X0.150000X-0.700000X-0.150000X0*%
%TD*%
%TA.AperFunction,SMDPad,CuDef*%
%ADD72RoundRect,0.250000X1.100000X-0.250000X1.100000X0.250000X-1.100000X0.250000X-1.100000X-0.250000X0*%
%TD*%
%TA.AperFunction,SMDPad,CuDef*%
%ADD73RoundRect,0.250000X-0.475000X0.250000X-0.475000X-0.250000X0.475000X-0.250000X0.475000X0.250000X0*%
%TD*%
%TA.AperFunction,SMDPad,CuDef*%
%ADD74RoundRect,0.033750X-0.371250X-0.101250X0.371250X-0.101250X0.371250X0.101250X-0.371250X0.101250X0*%
%TD*%
%TA.AperFunction,SMDPad,CuDef*%
%ADD75RoundRect,0.033750X-0.101250X-0.371250X0.101250X-0.371250X0.101250X0.371250X-0.101250X0.371250X0*%
%TD*%
%TA.AperFunction,SMDPad,CuDef*%
%ADD76R,3.700000X3.700000*%
%TD*%
%TA.AperFunction,ViaPad*%
%ADD77C,0.600000*%
%TD*%
%TA.AperFunction,Conductor*%
%ADD78C,0.300000*%
%TD*%
%TA.AperFunction,Conductor*%
%ADD79C,0.500000*%
%TD*%
%TA.AperFunction,Conductor*%
%ADD80C,1.000000*%
%TD*%
%TA.AperFunction,Conductor*%
%ADD81C,0.200000*%
%TD*%
%TA.AperFunction,Conductor*%
%ADD82C,0.750000*%
%TD*%
%TA.AperFunction,Conductor*%
%ADD83C,0.400000*%
%TD*%
G04 APERTURE END LIST*
D10*
%TO.P,C22,1*%
%TO.N,GND*%
X135750000Y-110750000D03*
%TO.P,C22,2*%
%TO.N,Net-(C22-Pad2)*%
X133850000Y-110750000D03*
%TD*%
D11*
%TO.P,R24,1*%
%TO.N,+3.3V*%
X116425000Y-99750000D03*
%TO.P,R24,2*%
%TO.N,NSRT*%
X118075000Y-99750000D03*
%TD*%
D12*
%TO.P,C31,1*%
%TO.N,+3.3V*%
X121450000Y-80955000D03*
%TO.P,C31,2*%
%TO.N,GND*%
X121450000Y-82505000D03*
%TD*%
D13*
%TO.P,C35,1*%
%TO.N,+3.3V*%
X116312500Y-122850000D03*
%TO.P,C35,2*%
%TO.N,GND*%
X114762500Y-122850000D03*
%TD*%
D11*
%TO.P,R25,1*%
%TO.N,BOOT0*%
X129660000Y-90390000D03*
%TO.P,R25,2*%
%TO.N,GND*%
X131310000Y-90390000D03*
%TD*%
D14*
%TO.P,R26,1*%
%TO.N,+3.3V*%
X127050000Y-87950000D03*
%TO.P,R26,2*%
%TO.N,I2C1_SCL*%
X127050000Y-89600000D03*
%TD*%
D15*
%TO.P,REF\u002A\u002A,1*%
%TO.N,GND*%
X152225000Y-135000000D03*
X153037779Y-133037779D03*
X153037779Y-136962221D03*
X155000000Y-132225000D03*
D16*
X155000000Y-135000000D03*
D15*
X155000000Y-137775000D03*
X156962221Y-133037779D03*
X156962221Y-136962221D03*
X157775000Y-135000000D03*
%TD*%
D17*
%TO.P,D1,1,K*%
%TO.N,+5V*%
X157800000Y-88475000D03*
%TO.P,D1,2,A*%
%TO.N,Net-(D1-A)*%
X153800000Y-88475000D03*
%TD*%
D11*
%TO.P,R11,1*%
%TO.N,USB_DM*%
X147750000Y-96800000D03*
%TO.P,R11,2*%
%TO.N,Net-(J3-D--PadA7)*%
X149400000Y-96800000D03*
%TD*%
D18*
%TO.P,C34,1*%
%TO.N,+3.3V*%
X119850000Y-124925000D03*
%TO.P,C34,2*%
%TO.N,GND*%
X121400000Y-124925000D03*
%TD*%
D19*
%TO.P,C10,1*%
%TO.N,+5V*%
X139887013Y-83438058D03*
%TO.P,C10,2*%
%TO.N,GND*%
X136937013Y-83438058D03*
%TD*%
D20*
%TO.P,R7,1*%
%TO.N,SWCLK*%
X108500000Y-82100000D03*
%TO.P,R7,2*%
%TO.N,+3.3V*%
X108500000Y-80450000D03*
%TD*%
%TO.P,R15,1*%
%TO.N,GND*%
X149300000Y-100050000D03*
%TO.P,R15,2*%
%TO.N,Net-(J3-CC1)*%
X149300000Y-98400000D03*
%TD*%
D21*
%TO.P,C8,1*%
%TO.N,Net-(D1-A)*%
X155350000Y-78775000D03*
%TO.P,C8,2*%
%TO.N,GND*%
X158300000Y-78775000D03*
%TD*%
D14*
%TO.P,R1,1*%
%TO.N,+3.3V*%
X133125000Y-87250000D03*
%TO.P,R1,2*%
%TO.N,SDMMC_CMD*%
X133125000Y-88900000D03*
%TD*%
D22*
%TO.P,FB3,1*%
%TO.N,+3.3V*%
X113225000Y-120750000D03*
%TO.P,FB3,2*%
%TO.N,GND*%
X111650000Y-120750000D03*
%TD*%
D23*
%TO.P,C2,1*%
%TO.N,+BATT*%
X143800000Y-71850000D03*
%TO.P,C2,2*%
%TO.N,GND*%
X143800000Y-63450000D03*
%TD*%
D18*
%TO.P,C28,1*%
%TO.N,+3.3V*%
X125400000Y-121950000D03*
%TO.P,C28,2*%
%TO.N,GND*%
X126950000Y-121950000D03*
%TD*%
D21*
%TO.P,C5,1*%
%TO.N,Net-(D1-A)*%
X155400000Y-83675000D03*
%TO.P,C5,2*%
%TO.N,GND*%
X158350000Y-83675000D03*
%TD*%
D24*
%TO.P,SW2,1,1*%
%TO.N,+3.3V*%
X129000000Y-76000000D03*
%TO.P,SW2,2,2*%
%TO.N,BOOT0*%
X129000000Y-80200000D03*
%TD*%
D25*
%TO.P,D4,1,K*%
%TO.N,GND*%
X111312500Y-124725000D03*
%TO.P,D4,2,A*%
%TO.N,Net-(D4-A)*%
X113187500Y-124725000D03*
%TD*%
D20*
%TO.P,R29,1*%
%TO.N,+3.3V*%
X108750000Y-104525000D03*
%TO.P,R29,2*%
%TO.N,ESP32_BOOT*%
X108750000Y-102875000D03*
%TD*%
D21*
%TO.P,C6,1*%
%TO.N,Net-(D1-A)*%
X155350000Y-81175000D03*
%TO.P,C6,2*%
%TO.N,GND*%
X158300000Y-81175000D03*
%TD*%
D26*
%TO.P,C38,1*%
%TO.N,Net-(C38-Pad1)*%
X108900000Y-118450000D03*
%TO.P,C38,2*%
%TO.N,Net-(J8-In)*%
X107940000Y-118450000D03*
%TD*%
D11*
%TO.P,R23,1*%
%TO.N,Net-(D6-A)*%
X136750000Y-85600000D03*
%TO.P,R23,2*%
%TO.N,+3.3V*%
X138400000Y-85600000D03*
%TD*%
D18*
%TO.P,C37,1*%
%TO.N,GND*%
X106125000Y-110450000D03*
%TO.P,C37,2*%
%TO.N,ESP32_EN*%
X107675000Y-110450000D03*
%TD*%
D27*
%TO.P,D6,1,K*%
%TO.N,GND*%
X134700000Y-83200000D03*
%TO.P,D6,2,A*%
%TO.N,Net-(D6-A)*%
X134700000Y-84775000D03*
%TD*%
D20*
%TO.P,R28,1*%
%TO.N,GPIO_SPI_CS*%
X139100000Y-110000000D03*
%TO.P,R28,2*%
%TO.N,+3.3V*%
X139100000Y-108350000D03*
%TD*%
D12*
%TO.P,C1,1*%
%TO.N,+3.3V*%
X141250000Y-113450000D03*
%TO.P,C1,2*%
%TO.N,GND*%
X141250000Y-115000000D03*
%TD*%
D28*
%TO.P,SW1,1,1*%
%TO.N,GND*%
X132750000Y-80200000D03*
%TO.P,SW1,2,2*%
%TO.N,+3.3V*%
X132750000Y-76000000D03*
%TD*%
D27*
%TO.P,FB2,1*%
%TO.N,+3.3V*%
X119775000Y-103100000D03*
%TO.P,FB2,2*%
%TO.N,Net-(C20-Pad1)*%
X119775000Y-104675000D03*
%TD*%
D20*
%TO.P,R13,1*%
%TO.N,SDMMC_DAT2*%
X136325000Y-88895000D03*
%TO.P,R13,2*%
%TO.N,+3.3V*%
X136325000Y-87245000D03*
%TD*%
D29*
%TO.P,L1,1*%
%TO.N,Net-(U1-PH)*%
X153550000Y-74225000D03*
%TO.P,L1,2*%
%TO.N,Net-(D1-A)*%
X158050000Y-74225000D03*
%TD*%
D30*
%TO.P,J9,1,Pin_1*%
%TO.N,USB_UART_3V3*%
X102900000Y-91450000D03*
%TO.P,J9,2,Pin_2*%
%TO.N,ESP32_PROG_RX*%
X102900000Y-93990000D03*
%TO.P,J9,3,Pin_3*%
%TO.N,ESP32_PROG_TX*%
X102900000Y-96530000D03*
%TO.P,J9,4,Pin_4*%
%TO.N,GND*%
X102900000Y-99070000D03*
%TD*%
D10*
%TO.P,C33,1*%
%TO.N,+3.3V*%
X113162500Y-122600000D03*
%TO.P,C33,2*%
%TO.N,GND*%
X111262500Y-122600000D03*
%TD*%
D31*
%TO.P,FB1,1*%
%TO.N,SHIELD*%
X147700000Y-93575000D03*
%TO.P,FB1,2*%
%TO.N,GND*%
X147700000Y-92000000D03*
%TD*%
D32*
%TO.P,J5,1,DAT2*%
%TO.N,SDMMC_DAT2*%
X144400000Y-110900000D03*
%TO.P,J5,2,DAT3/CD*%
%TO.N,SDMMC_DAT3*%
X144400000Y-112000000D03*
%TO.P,J5,3,CMD*%
%TO.N,SDMMC_CMD*%
X144400000Y-113100000D03*
%TO.P,J5,4,VDD*%
%TO.N,+3.3V*%
X144400000Y-114200000D03*
%TO.P,J5,5,CLK*%
%TO.N,SDMMC_CLK*%
X144400000Y-115300000D03*
%TO.P,J5,6,VSS*%
%TO.N,GND*%
X144400000Y-116400000D03*
%TO.P,J5,7,DAT0*%
%TO.N,SDMMC_DAT0*%
X144400000Y-117500000D03*
%TO.P,J5,8,DAT1*%
%TO.N,SDMMC_DAT1*%
X144400000Y-118600000D03*
%TO.P,J5,9,DET*%
%TO.N,unconnected-(J5-DET-Pad9)*%
X144400000Y-119700000D03*
D33*
%TO.P,J5,10,SHIELD*%
%TO.N,GND*%
X145000000Y-121000000D03*
D34*
X154500000Y-121000000D03*
D35*
X144900000Y-106200000D03*
D34*
X154500000Y-105300000D03*
%TD*%
D11*
%TO.P,R32,1*%
%TO.N,Net-(D4-A)*%
X114687500Y-124700000D03*
%TO.P,R32,2*%
%TO.N,ESP32_STATUS_LED*%
X116337500Y-124700000D03*
%TD*%
D36*
%TO.P,C3,1*%
%TO.N,+BATT*%
X150300000Y-72775000D03*
%TO.P,C3,2*%
%TO.N,GND*%
X150300000Y-71225000D03*
%TD*%
D15*
%TO.P,REF\u002A\u002A,1*%
%TO.N,GND*%
X102225000Y-65000000D03*
X103037779Y-63037779D03*
X103037779Y-66962221D03*
X105000000Y-62225000D03*
D16*
X105000000Y-65000000D03*
D15*
X105000000Y-67775000D03*
X106962221Y-63037779D03*
X106962221Y-66962221D03*
X107775000Y-65000000D03*
%TD*%
D36*
%TO.P,C21,1*%
%TO.N,Net-(C20-Pad1)*%
X116600000Y-104675000D03*
%TO.P,C21,2*%
%TO.N,GND*%
X116600000Y-103125000D03*
%TD*%
D37*
%TO.P,Y1,1,1*%
%TO.N,OSC_IN*%
X113000000Y-97750000D03*
%TO.P,Y1,2,2*%
%TO.N,GND*%
X115200000Y-97750000D03*
%TO.P,Y1,3,3*%
%TO.N,OSC_OUT*%
X115200000Y-96050000D03*
%TO.P,Y1,4,4*%
%TO.N,GND*%
X113000000Y-96050000D03*
%TD*%
D38*
%TO.P,U2,1,GND*%
%TO.N,GND*%
X136087013Y-80938058D03*
%TO.P,U2,2,VO*%
%TO.N,+3.3V*%
X138387013Y-80938058D03*
D39*
X138387013Y-74638058D03*
D38*
%TO.P,U2,3,VI*%
%TO.N,+5V*%
X140687013Y-80938058D03*
%TD*%
D36*
%TO.P,C15,1*%
%TO.N,+3.3V*%
X122600000Y-109850000D03*
%TO.P,C15,2*%
%TO.N,GND*%
X122600000Y-108300000D03*
%TD*%
D11*
%TO.P,R22,1*%
%TO.N,GPIO_BUZZER*%
X147325000Y-124400000D03*
%TO.P,R22,2*%
%TO.N,Net-(Q1-B)*%
X148975000Y-124400000D03*
%TD*%
D40*
%TO.P,C42,1*%
%TO.N,GND*%
X109950000Y-119410000D03*
%TO.P,C42,2*%
%TO.N,Net-(C38-Pad1)*%
X109950000Y-118450000D03*
%TD*%
D41*
%TO.P,J2,1,Pin_1*%
%TO.N,+BATT*%
X133750000Y-66100000D03*
%TO.P,J2,2,Pin_2*%
%TO.N,GND*%
X132500000Y-66100000D03*
%TO.P,J2,3,Pin_3*%
%TO.N,ADC_CURR*%
X131250000Y-66100000D03*
%TO.P,J2,4,Pin_4*%
%TO.N,TIM_CH1*%
X130000000Y-66100000D03*
%TO.P,J2,5,Pin_5*%
%TO.N,TIM_CH2*%
X128750000Y-66100000D03*
%TO.P,J2,6,Pin_6*%
%TO.N,TIM_CH3*%
X127500000Y-66100000D03*
%TO.P,J2,7,Pin_7*%
%TO.N,TIM_CH4*%
X126250000Y-66100000D03*
D42*
%TO.P,J2,MP*%
%TO.N,GND*%
X135600000Y-62900000D03*
X124400000Y-62900000D03*
%TD*%
D36*
%TO.P,C27,1*%
%TO.N,GND*%
X115105000Y-91545000D03*
%TO.P,C27,2*%
%TO.N,+3.3V*%
X115105000Y-89995000D03*
%TD*%
D14*
%TO.P,R16,1*%
%TO.N,GND*%
X149300000Y-92000000D03*
%TO.P,R16,2*%
%TO.N,Net-(J3-CC2)*%
X149300000Y-93650000D03*
%TD*%
D10*
%TO.P,C25,1*%
%TO.N,+3.3V*%
X116700000Y-121000000D03*
%TO.P,C25,2*%
%TO.N,GND*%
X114800000Y-121000000D03*
%TD*%
D43*
%TO.P,J3,A1,GND*%
%TO.N,GND*%
X151405000Y-99370000D03*
%TO.P,J3,A4,VBUS*%
%TO.N,Net-(D2-A)*%
X151405000Y-98570000D03*
D44*
%TO.P,J3,A5,CC1*%
%TO.N,Net-(J3-CC1)*%
X151405000Y-97370000D03*
%TO.P,J3,A6,D+*%
%TO.N,Net-(J3-D+-PadA6)*%
X151405000Y-96370000D03*
%TO.P,J3,A7,D-*%
%TO.N,Net-(J3-D--PadA7)*%
X151405000Y-95870000D03*
%TO.P,J3,A8,SBU1*%
%TO.N,unconnected-(J3-SBU1-PadA8)*%
X151405000Y-94870000D03*
D43*
%TO.P,J3,A9,VBUS*%
%TO.N,Net-(D2-A)*%
X151405000Y-93670000D03*
%TO.P,J3,A12,GND*%
%TO.N,GND*%
X151405000Y-92870000D03*
%TO.P,J3,B1,GND*%
X151405000Y-92870000D03*
%TO.P,J3,B4,VBUS*%
%TO.N,Net-(D2-A)*%
X151405000Y-93670000D03*
D44*
%TO.P,J3,B5,CC2*%
%TO.N,Net-(J3-CC2)*%
X151405000Y-94370000D03*
%TO.P,J3,B6,D+*%
%TO.N,Net-(J3-D+-PadA6)*%
X151405000Y-95370000D03*
%TO.P,J3,B7,D-*%
%TO.N,Net-(J3-D--PadA7)*%
X151405000Y-96870000D03*
%TO.P,J3,B8,SBU2*%
%TO.N,unconnected-(J3-SBU2-PadB8)*%
X151405000Y-97870000D03*
D43*
%TO.P,J3,B9,VBUS*%
%TO.N,Net-(D2-A)*%
X151405000Y-98570000D03*
%TO.P,J3,B12,GND*%
%TO.N,GND*%
X151405000Y-99370000D03*
D45*
%TO.P,J3,S1,SHIELD*%
%TO.N,SHIELD*%
X152320000Y-100440000D03*
D46*
X156500000Y-100440000D03*
D45*
X152320000Y-91800000D03*
D46*
X156500000Y-91800000D03*
%TD*%
D12*
%TO.P,C41,1*%
%TO.N,XTAL_N*%
X124200000Y-113450000D03*
%TO.P,C41,2*%
%TO.N,GND*%
X124200000Y-115000000D03*
%TD*%
D47*
%TO.P,SW4,1,1*%
%TO.N,GND*%
X101800000Y-107900000D03*
%TO.P,SW4,2,2*%
%TO.N,ESP32_EN*%
X106000000Y-107900000D03*
%TD*%
D14*
%TO.P,R4,1*%
%TO.N,SDMMC_DAT0*%
X142050000Y-108050000D03*
%TO.P,R4,2*%
%TO.N,+3.3V*%
X142050000Y-109700000D03*
%TD*%
D48*
%TO.P,J4,1,Pin_1*%
%TO.N,+3.3V*%
X106200000Y-72950000D03*
%TO.P,J4,2,Pin_2*%
%TO.N,USART3_RX*%
X106200000Y-74200000D03*
%TO.P,J4,3,Pin_3*%
%TO.N,USART3_TX*%
X106200000Y-75450000D03*
%TO.P,J4,4,Pin_4*%
%TO.N,GND*%
X106200000Y-76700000D03*
D49*
%TO.P,J4,MP*%
X103000000Y-71100000D03*
X103000000Y-78550000D03*
%TD*%
D15*
%TO.P,REF\u002A\u002A,1*%
%TO.N,GND*%
X102225000Y-135000000D03*
X103037779Y-133037779D03*
X103037779Y-136962221D03*
X105000000Y-132225000D03*
D16*
X105000000Y-135000000D03*
D15*
X105000000Y-137775000D03*
X106962221Y-133037779D03*
X106962221Y-136962221D03*
X107775000Y-135000000D03*
%TD*%
D41*
%TO.P,J6,1,Pin_1*%
%TO.N,+3.3V*%
X119150000Y-66100000D03*
%TO.P,J6,2,Pin_2*%
%TO.N,USART1_RX*%
X117900000Y-66100000D03*
%TO.P,J6,3,Pin_3*%
%TO.N,USART1_TX*%
X116650000Y-66100000D03*
%TO.P,J6,4,Pin_4*%
%TO.N,I2C1_SCL*%
X115400000Y-66100000D03*
%TO.P,J6,5,Pin_5*%
%TO.N,I2C1_SDA*%
X114150000Y-66100000D03*
%TO.P,J6,6,Pin_6*%
%TO.N,GND*%
X112900000Y-66100000D03*
D42*
%TO.P,J6,MP*%
X121000000Y-62900000D03*
X111050000Y-62900000D03*
%TD*%
D14*
%TO.P,R21,1*%
%TO.N,+3.3V*%
X108750000Y-107075000D03*
%TO.P,R21,2*%
%TO.N,ESP32_EN*%
X108750000Y-108725000D03*
%TD*%
D30*
%TO.P,J1,1,Pin_1*%
%TO.N,SWDIO*%
X102900000Y-82100000D03*
%TO.P,J1,2,Pin_2*%
%TO.N,SWCLK*%
X102900000Y-84640000D03*
%TO.P,J1,3,Pin_3*%
%TO.N,GND*%
X102900000Y-87180000D03*
%TD*%
D50*
%TO.P,C24,1*%
%TO.N,GND*%
X114475000Y-116250000D03*
%TO.P,C24,2*%
%TO.N,+3.3V*%
X116375000Y-116250000D03*
%TD*%
D11*
%TO.P,R30,1*%
%TO.N,USB_UART_3V3*%
X106650000Y-96200000D03*
%TO.P,R30,2*%
%TO.N,Net-(U7-S)*%
X108300000Y-96200000D03*
%TD*%
D18*
%TO.P,C39,1*%
%TO.N,GND*%
X111825000Y-108700000D03*
%TO.P,C39,2*%
%TO.N,+3.3V*%
X113375000Y-108700000D03*
%TD*%
D51*
%TO.P,U1,1,BOOT*%
%TO.N,Net-(U1-BOOT)*%
X146995000Y-80175000D03*
%TO.P,U1,2,NC_2*%
%TO.N,unconnected-(U1-NC_2-Pad2)*%
X148265000Y-80175000D03*
%TO.P,U1,3,NC_3*%
%TO.N,unconnected-(U1-NC_3-Pad3)*%
X149535000Y-80175000D03*
%TO.P,U1,4,VSENSE*%
%TO.N,Net-(U1-VSENSE)*%
X150805000Y-80175000D03*
%TO.P,U1,5,ENA*%
%TO.N,Net-(U1-ENA)*%
X150805000Y-74775000D03*
%TO.P,U1,6,GND*%
%TO.N,GND*%
X149535000Y-74775000D03*
%TO.P,U1,7,VIN*%
%TO.N,+BATT*%
X148265000Y-74775000D03*
%TO.P,U1,8,PH*%
%TO.N,Net-(U1-PH)*%
X146995000Y-74775000D03*
D52*
%TO.P,U1,9,POWERPAD*%
%TO.N,GND*%
X146950000Y-78125000D03*
X148250000Y-78125000D03*
X149550000Y-78125000D03*
X150850000Y-78125000D03*
D53*
X148900000Y-77475000D03*
D52*
X146950000Y-76825000D03*
X148250000Y-76825000D03*
X149550000Y-76825000D03*
X150850000Y-76825000D03*
%TD*%
D54*
%TO.P,U3,1,PE2*%
%TO.N,unconnected-(U3-PE2-Pad1)*%
X122325000Y-94000000D03*
%TO.P,U3,2,PE3*%
%TO.N,unconnected-(U3-PE3-Pad2)*%
X122325000Y-94500000D03*
%TO.P,U3,3,PE4*%
%TO.N,unconnected-(U3-PE4-Pad3)*%
X122325000Y-95000000D03*
%TO.P,U3,4,PE5*%
%TO.N,unconnected-(U3-PE5-Pad4)*%
X122325000Y-95500000D03*
%TO.P,U3,5,PE6*%
%TO.N,unconnected-(U3-PE6-Pad5)*%
X122325000Y-96000000D03*
%TO.P,U3,6,VBAT*%
%TO.N,+3.3V*%
X122325000Y-96500000D03*
%TO.P,U3,7,PC13*%
%TO.N,GPIO_LED*%
X122325000Y-97000000D03*
%TO.P,U3,8,PC14*%
%TO.N,GPIO_EXTI14*%
X122325000Y-97500000D03*
%TO.P,U3,9,PC15*%
%TO.N,unconnected-(U3-PC15-Pad9)*%
X122325000Y-98000000D03*
%TO.P,U3,10,VSS*%
%TO.N,GND*%
X122325000Y-98500000D03*
%TO.P,U3,11,VDD*%
%TO.N,+3.3V*%
X122325000Y-99000000D03*
%TO.P,U3,12,PH0*%
%TO.N,OSC_IN*%
X122325000Y-99500000D03*
%TO.P,U3,13,PH1*%
%TO.N,OSC_OUT*%
X122325000Y-100000000D03*
%TO.P,U3,14,NRST*%
%TO.N,NSRT*%
X122325000Y-100500000D03*
%TO.P,U3,15,PC0*%
%TO.N,unconnected-(U3-PC0-Pad15)*%
X122325000Y-101000000D03*
%TO.P,U3,16,PC1*%
%TO.N,unconnected-(U3-PC1-Pad16)*%
X122325000Y-101500000D03*
%TO.P,U3,17,PC2_C*%
%TO.N,unconnected-(U3-PC2_C-Pad17)*%
X122325000Y-102000000D03*
%TO.P,U3,18,PC3_C*%
%TO.N,unconnected-(U3-PC3_C-Pad18)*%
X122325000Y-102500000D03*
%TO.P,U3,19,VSSA*%
%TO.N,GND*%
X122325000Y-103000000D03*
%TO.P,U3,20,VREF+*%
%TO.N,+3.3V*%
X122325000Y-103500000D03*
%TO.P,U3,21,VDDA*%
X122325000Y-104000000D03*
%TO.P,U3,22,PA0*%
%TO.N,ADC_VBATT*%
X122325000Y-104500000D03*
%TO.P,U3,23,PA1*%
%TO.N,ADC_CURR*%
X122325000Y-105000000D03*
%TO.P,U3,24,PA2*%
%TO.N,USART2_TX*%
X122325000Y-105500000D03*
%TO.P,U3,25,PA3*%
%TO.N,USART2_RX*%
X122325000Y-106000000D03*
D55*
%TO.P,U3,26,VSS*%
%TO.N,GND*%
X124000000Y-107675000D03*
%TO.P,U3,27,VDD*%
%TO.N,+3.3V*%
X124500000Y-107675000D03*
%TO.P,U3,28,PA4*%
%TO.N,GPIO_EXTI4*%
X125000000Y-107675000D03*
%TO.P,U3,29,PA5*%
%TO.N,SPI1_SCK*%
X125500000Y-107675000D03*
%TO.P,U3,30,PA6*%
%TO.N,SPI1_MISO*%
X126000000Y-107675000D03*
%TO.P,U3,31,PA7*%
%TO.N,SPI1_MOSI*%
X126500000Y-107675000D03*
%TO.P,U3,32,PC4*%
%TO.N,unconnected-(U3-PC4-Pad32)*%
X127000000Y-107675000D03*
%TO.P,U3,33,PC5*%
%TO.N,unconnected-(U3-PC5-Pad33)*%
X127500000Y-107675000D03*
%TO.P,U3,34,PB0*%
%TO.N,TIM3_CH3*%
X128000000Y-107675000D03*
%TO.P,U3,35,PB1*%
%TO.N,TIM3_CH4*%
X128500000Y-107675000D03*
%TO.P,U3,36,PB2*%
%TO.N,unconnected-(U3-PB2-Pad36)*%
X129000000Y-107675000D03*
%TO.P,U3,37,PE7*%
%TO.N,unconnected-(U3-PE7-Pad37)*%
X129500000Y-107675000D03*
%TO.P,U3,38,PE8*%
%TO.N,unconnected-(U3-PE8-Pad38)*%
X130000000Y-107675000D03*
%TO.P,U3,39,PE9*%
%TO.N,TIM_CH1*%
X130500000Y-107675000D03*
%TO.P,U3,40,PE10*%
%TO.N,unconnected-(U3-PE10-Pad40)*%
X131000000Y-107675000D03*
%TO.P,U3,41,PE11*%
%TO.N,TIM_CH2*%
X131500000Y-107675000D03*
%TO.P,U3,42,PE12*%
%TO.N,unconnected-(U3-PE12-Pad42)*%
X132000000Y-107675000D03*
%TO.P,U3,43,PE13*%
%TO.N,TIM_CH3*%
X132500000Y-107675000D03*
%TO.P,U3,44,PE14*%
%TO.N,TIM_CH4*%
X133000000Y-107675000D03*
%TO.P,U3,45,PE15*%
%TO.N,unconnected-(U3-PE15-Pad45)*%
X133500000Y-107675000D03*
%TO.P,U3,46,PB10*%
%TO.N,USART3_TX*%
X134000000Y-107675000D03*
%TO.P,U3,47,PB11*%
%TO.N,USART3_RX*%
X134500000Y-107675000D03*
%TO.P,U3,48,VCAP*%
%TO.N,Net-(C22-Pad2)*%
X135000000Y-107675000D03*
%TO.P,U3,49,VSS*%
%TO.N,GND*%
X135500000Y-107675000D03*
%TO.P,U3,50,VDD*%
%TO.N,+3.3V*%
X136000000Y-107675000D03*
D54*
%TO.P,U3,51,PB12*%
%TO.N,unconnected-(U3-PB12-Pad51)*%
X137675000Y-106000000D03*
%TO.P,U3,52,PB13*%
%TO.N,unconnected-(U3-PB13-Pad52)*%
X137675000Y-105500000D03*
%TO.P,U3,53,PB14*%
%TO.N,unconnected-(U3-PB14-Pad53)*%
X137675000Y-105000000D03*
%TO.P,U3,54,PB15*%
%TO.N,unconnected-(U3-PB15-Pad54)*%
X137675000Y-104500000D03*
%TO.P,U3,55,PD8*%
%TO.N,unconnected-(U3-PD8-Pad55)*%
X137675000Y-104000000D03*
%TO.P,U3,56,PD9*%
%TO.N,unconnected-(U3-PD9-Pad56)*%
X137675000Y-103500000D03*
%TO.P,U3,57,PD10*%
%TO.N,unconnected-(U3-PD10-Pad57)*%
X137675000Y-103000000D03*
%TO.P,U3,58,PD11*%
%TO.N,unconnected-(U3-PD11-Pad58)*%
X137675000Y-102500000D03*
%TO.P,U3,59,PD12*%
%TO.N,unconnected-(U3-PD12-Pad59)*%
X137675000Y-102000000D03*
%TO.P,U3,60,PD13*%
%TO.N,unconnected-(U3-PD13-Pad60)*%
X137675000Y-101500000D03*
%TO.P,U3,61,PD14*%
%TO.N,unconnected-(U3-PD14-Pad61)*%
X137675000Y-101000000D03*
%TO.P,U3,62,PD15*%
%TO.N,unconnected-(U3-PD15-Pad62)*%
X137675000Y-100500000D03*
%TO.P,U3,63,PC6*%
%TO.N,unconnected-(U3-PC6-Pad63)*%
X137675000Y-100000000D03*
%TO.P,U3,64,PC7*%
%TO.N,unconnected-(U3-PC7-Pad64)*%
X137675000Y-99500000D03*
%TO.P,U3,65,PC8*%
%TO.N,SDMMC_DAT0*%
X137675000Y-99000000D03*
%TO.P,U3,66,PC9*%
%TO.N,SDMMC_DAT1*%
X137675000Y-98500000D03*
%TO.P,U3,67,PA8*%
%TO.N,GPIO_SPI_CS*%
X137675000Y-98000000D03*
%TO.P,U3,68,PA9*%
%TO.N,USB_VBUS*%
X137675000Y-97500000D03*
%TO.P,U3,69,PA10*%
%TO.N,GPIO_BUZZER*%
X137675000Y-97000000D03*
%TO.P,U3,70,PA11*%
%TO.N,USB_DM*%
X137675000Y-96500000D03*
%TO.P,U3,71,PA12*%
%TO.N,USB_DP*%
X137675000Y-96000000D03*
%TO.P,U3,72,PA13*%
%TO.N,SWDIO*%
X137675000Y-95500000D03*
%TO.P,U3,73,VCAP*%
%TO.N,Net-(C23-Pad2)*%
X137675000Y-95000000D03*
%TO.P,U3,74,VSS*%
%TO.N,GND*%
X137675000Y-94500000D03*
%TO.P,U3,75,VDD*%
%TO.N,+3.3V*%
X137675000Y-94000000D03*
D55*
%TO.P,U3,76,PA14*%
%TO.N,SWCLK*%
X136000000Y-92325000D03*
%TO.P,U3,77,PA15*%
%TO.N,unconnected-(U3-PA15-Pad77)*%
X135500000Y-92325000D03*
%TO.P,U3,78,PC10*%
%TO.N,SDMMC_DAT2*%
X135000000Y-92325000D03*
%TO.P,U3,79,PC11*%
%TO.N,SDMMC_DAT3*%
X134500000Y-92325000D03*
%TO.P,U3,80,PC12*%
%TO.N,SDMMC_CLK*%
X134000000Y-92325000D03*
%TO.P,U3,81,PD0*%
%TO.N,UART4_RX*%
X133500000Y-92325000D03*
%TO.P,U3,82,PD1*%
%TO.N,UART4_TX*%
X133000000Y-92325000D03*
%TO.P,U3,83,PD2*%
%TO.N,SDMMC_CMD*%
X132500000Y-92325000D03*
%TO.P,U3,84,PD3*%
%TO.N,unconnected-(U3-PD3-Pad84)*%
X132000000Y-92325000D03*
%TO.P,U3,85,PD4*%
%TO.N,unconnected-(U3-PD4-Pad85)*%
X131500000Y-92325000D03*
%TO.P,U3,86,PD5*%
%TO.N,unconnected-(U3-PD5-Pad86)*%
X131000000Y-92325000D03*
%TO.P,U3,87,PD6*%
%TO.N,unconnected-(U3-PD6-Pad87)*%
X130500000Y-92325000D03*
%TO.P,U3,88,PD7*%
%TO.N,unconnected-(U3-PD7-Pad88)*%
X130000000Y-92325000D03*
%TO.P,U3,89,PB3*%
%TO.N,unconnected-(U3-PB3-Pad89)*%
X129500000Y-92325000D03*
%TO.P,U3,90,PB4*%
%TO.N,TIM3_CH1*%
X129000000Y-92325000D03*
%TO.P,U3,91,PB5*%
%TO.N,TIM3_CH2*%
X128500000Y-92325000D03*
%TO.P,U3,92,PB6*%
%TO.N,USART1_TX*%
X128000000Y-92325000D03*
%TO.P,U3,93,PB7*%
%TO.N,USART1_RX*%
X127500000Y-92325000D03*
%TO.P,U3,94,BOOT0*%
%TO.N,BOOT0*%
X127000000Y-92325000D03*
%TO.P,U3,95,PB8*%
%TO.N,I2C1_SCL*%
X126500000Y-92325000D03*
%TO.P,U3,96,PB9*%
%TO.N,I2C1_SDA*%
X126000000Y-92325000D03*
%TO.P,U3,97,PE0*%
%TO.N,unconnected-(U3-PE0-Pad97)*%
X125500000Y-92325000D03*
%TO.P,U3,98,PE1*%
%TO.N,unconnected-(U3-PE1-Pad98)*%
X125000000Y-92325000D03*
%TO.P,U3,99,VSS*%
%TO.N,GND*%
X124500000Y-92325000D03*
%TO.P,U3,100,VDD*%
%TO.N,+3.3V*%
X124000000Y-92325000D03*
%TD*%
D37*
%TO.P,Y2,1,1*%
%TO.N,XTAL_P*%
X120100000Y-114850000D03*
%TO.P,Y2,2,2*%
%TO.N,GND*%
X122300000Y-114850000D03*
%TO.P,Y2,3,3*%
%TO.N,XTAL_N*%
X122300000Y-113150000D03*
%TO.P,Y2,4,4*%
%TO.N,GND*%
X120100000Y-113150000D03*
%TD*%
D15*
%TO.P,REF\u002A\u002A,1*%
%TO.N,GND*%
X152262779Y-64962221D03*
X153075558Y-63000000D03*
X153075558Y-66924442D03*
X155037779Y-62187221D03*
D16*
X155037779Y-64962221D03*
D15*
X155037779Y-67737221D03*
X157000000Y-63000000D03*
X157000000Y-66924442D03*
X157812779Y-64962221D03*
%TD*%
D50*
%TO.P,C36,1*%
%TO.N,+3.3V*%
X125450000Y-120025000D03*
%TO.P,C36,2*%
%TO.N,GND*%
X127350000Y-120025000D03*
%TD*%
D36*
%TO.P,C20,1*%
%TO.N,Net-(C20-Pad1)*%
X118175000Y-104675000D03*
%TO.P,C20,2*%
%TO.N,GND*%
X118175000Y-103125000D03*
%TD*%
D56*
%TO.P,D7,1,K*%
%TO.N,GND*%
X111325000Y-116500000D03*
%TO.P,D7,2,A*%
%TO.N,Net-(D7-A)*%
X112900000Y-116500000D03*
%TD*%
D57*
%TO.P,U4,1,AP_SDO/AP_AD0*%
%TO.N,SPI1_MISO*%
X113540000Y-87605000D03*
%TO.P,U4,2,RESV_2*%
%TO.N,GND*%
X113040000Y-87605000D03*
%TO.P,U4,3,RESV_3*%
X112540000Y-87605000D03*
%TO.P,U4,4,INT1/INT*%
%TO.N,GPIO_EXTI4*%
X112040000Y-87605000D03*
D58*
%TO.P,U4,5,VDDIO*%
%TO.N,+3.3V*%
X111875000Y-88270000D03*
%TO.P,U4,6,GND*%
%TO.N,GND*%
X111875000Y-88770000D03*
%TO.P,U4,7,RESV_7*%
X111875000Y-89270000D03*
D57*
%TO.P,U4,8,VDD*%
%TO.N,+3.3V*%
X112040000Y-89935000D03*
%TO.P,U4,9,INT2/FSYNC/CLKIN*%
%TO.N,GND*%
X112540000Y-89935000D03*
%TO.P,U4,10,RESV_10*%
X113040000Y-89935000D03*
%TO.P,U4,11,RESV_11*%
X113540000Y-89935000D03*
D58*
%TO.P,U4,12,AP_CS*%
%TO.N,GPIO_SPI_CS*%
X113705000Y-89270000D03*
%TO.P,U4,13,AP_SCL/AP_SCLK*%
%TO.N,SPI1_SCK*%
X113705000Y-88770000D03*
%TO.P,U4,14,AP_SDA/AP_SDIO/AP_SDI*%
%TO.N,SPI1_MOSI*%
X113705000Y-88270000D03*
%TD*%
D13*
%TO.P,C29,1*%
%TO.N,GND*%
X113580000Y-91370000D03*
%TO.P,C29,2*%
%TO.N,+3.3V*%
X112030000Y-91370000D03*
%TD*%
D12*
%TO.P,C13,1*%
%TO.N,OSC_IN*%
X114250000Y-99500000D03*
%TO.P,C13,2*%
%TO.N,GND*%
X114250000Y-101050000D03*
%TD*%
D59*
%TO.P,L2,1*%
%TO.N,Net-(C38-Pad1)*%
X110980000Y-118450000D03*
%TO.P,L2,2*%
%TO.N,Net-(C43-Pad1)*%
X111950000Y-118450000D03*
%TD*%
D60*
%TO.P,C32,1*%
%TO.N,GND*%
X109955000Y-90870000D03*
%TO.P,C32,2*%
%TO.N,+3.3V*%
X109955000Y-87920000D03*
%TD*%
D61*
%TO.P,U7,1,S*%
%TO.N,Net-(U7-S)*%
X112837500Y-110500000D03*
%TO.P,U7,2,HSD1+*%
%TO.N,USART2_TX*%
X112837500Y-111000000D03*
%TO.P,U7,3,HSD2+*%
%TO.N,ESP32_PROG_TX*%
X112837500Y-111500000D03*
%TO.P,U7,4,D+*%
%TO.N,ESP32_RX*%
X112837500Y-112000000D03*
%TO.P,U7,5,GND*%
%TO.N,GND*%
X112837500Y-112500000D03*
%TO.P,U7,6,D-*%
%TO.N,ESP32_TX*%
X117062500Y-112500000D03*
%TO.P,U7,7,HSD2-*%
%TO.N,ESP32_PROG_RX*%
X117062500Y-112000000D03*
%TO.P,U7,8,HSD1-*%
%TO.N,USART2_RX*%
X117062500Y-111500000D03*
%TO.P,U7,9,OE*%
%TO.N,GND*%
X117062500Y-111000000D03*
%TO.P,U7,10,VCC*%
%TO.N,+3.3V*%
X117062500Y-110500000D03*
%TD*%
D14*
%TO.P,R3,1*%
%TO.N,GND*%
X153550000Y-81775000D03*
%TO.P,R3,2*%
%TO.N,Net-(U1-VSENSE)*%
X153550000Y-83425000D03*
%TD*%
D62*
%TO.P,U5,1,VDDIO*%
%TO.N,+3.3V*%
X120865000Y-78035000D03*
%TO.P,U5,2,SCK*%
%TO.N,I2C1_SCL*%
X120365000Y-78035000D03*
%TO.P,U5,3,VSS*%
%TO.N,GND*%
X119850000Y-78300000D03*
%TO.P,U5,4,SDI*%
%TO.N,I2C1_SDA*%
X119850000Y-78800000D03*
%TO.P,U5,5,SDO*%
%TO.N,GND*%
X119850000Y-79300000D03*
%TO.P,U5,6,CSB*%
%TO.N,+3.3V*%
X120365000Y-79565000D03*
%TO.P,U5,7,INT*%
%TO.N,GPIO_EXTI14*%
X120865000Y-79565000D03*
%TO.P,U5,8,VSS*%
%TO.N,GND*%
X121380000Y-79300000D03*
%TO.P,U5,9,VSS*%
X121380000Y-78800000D03*
%TO.P,U5,10,VDD*%
%TO.N,+3.3V*%
X121380000Y-78300000D03*
%TD*%
D63*
%TO.P,J8,1,In*%
%TO.N,Net-(J8-In)*%
X104325000Y-118460000D03*
D64*
%TO.P,J8,2,Ext*%
%TO.N,GND*%
X102800000Y-119935000D03*
X102800000Y-116985000D03*
%TD*%
D36*
%TO.P,C17,1*%
%TO.N,+3.3V*%
X122500000Y-91800000D03*
%TO.P,C17,2*%
%TO.N,GND*%
X122500000Y-90250000D03*
%TD*%
D65*
%TO.P,D2,1,K*%
%TO.N,+5V*%
X148000000Y-84100000D03*
%TO.P,D2,2,A*%
%TO.N,Net-(D2-A)*%
X148000000Y-88100000D03*
%TD*%
D36*
%TO.P,C40,1*%
%TO.N,XTAL_P*%
X118000000Y-115300000D03*
%TO.P,C40,2*%
%TO.N,GND*%
X118000000Y-113750000D03*
%TD*%
D66*
%TO.P,C43,1*%
%TO.N,Net-(C43-Pad1)*%
X112990000Y-118450000D03*
%TO.P,C43,2*%
%TO.N,ESP32_LNA_IN*%
X113950000Y-118450000D03*
%TD*%
D20*
%TO.P,R5,1*%
%TO.N,Net-(D1-A)*%
X151850000Y-85750000D03*
%TO.P,R5,2*%
%TO.N,Net-(U1-VSENSE)*%
X151850000Y-84100000D03*
%TD*%
D67*
%TO.P,D3,1,K*%
%TO.N,GND*%
X119100000Y-90000000D03*
%TO.P,D3,2,A*%
%TO.N,Net-(D3-A)*%
X119100000Y-91875000D03*
%TD*%
D20*
%TO.P,R19,1*%
%TO.N,USB_VBUS*%
X149300000Y-103150000D03*
%TO.P,R19,2*%
%TO.N,GND*%
X149300000Y-101500000D03*
%TD*%
D47*
%TO.P,SW3,1,1*%
%TO.N,GND*%
X101800000Y-103700000D03*
%TO.P,SW3,2,2*%
%TO.N,ESP32_BOOT*%
X106000000Y-103700000D03*
%TD*%
D20*
%TO.P,R2,1*%
%TO.N,Net-(U1-ENA)*%
X153550000Y-80175000D03*
%TO.P,R2,2*%
%TO.N,+BATT*%
X153550000Y-78525000D03*
%TD*%
D14*
%TO.P,R27,1*%
%TO.N,+3.3V*%
X125440000Y-87950000D03*
%TO.P,R27,2*%
%TO.N,I2C1_SDA*%
X125440000Y-89600000D03*
%TD*%
D36*
%TO.P,C9,1*%
%TO.N,Net-(U1-BOOT)*%
X145350000Y-78300000D03*
%TO.P,C9,2*%
%TO.N,Net-(U1-PH)*%
X145350000Y-76750000D03*
%TD*%
D68*
%TO.P,R31,1*%
%TO.N,GND*%
X108300000Y-94600000D03*
%TO.P,R31,2*%
%TO.N,Net-(U7-S)*%
X106650000Y-94600000D03*
%TD*%
D14*
%TO.P,R6,1*%
%TO.N,+3.3V*%
X106800000Y-80450000D03*
%TO.P,R6,2*%
%TO.N,SWDIO*%
X106800000Y-82100000D03*
%TD*%
D13*
%TO.P,C7,1*%
%TO.N,ADC_VBATT*%
X119800000Y-106250000D03*
%TO.P,C7,2*%
%TO.N,GND*%
X118250000Y-106250000D03*
%TD*%
D18*
%TO.P,C4,1*%
%TO.N,Net-(D1-A)*%
X156000000Y-85650000D03*
%TO.P,C4,2*%
%TO.N,GND*%
X157550000Y-85650000D03*
%TD*%
D69*
%TO.P,Q1,1,B*%
%TO.N,Net-(Q1-B)*%
X148350000Y-126750000D03*
%TO.P,Q1,2,E*%
%TO.N,GND*%
X148350000Y-128650000D03*
%TO.P,Q1,3,C*%
%TO.N,Net-(D5-A)*%
X150225000Y-127700000D03*
%TD*%
D70*
%TO.P,D5,1,K*%
%TO.N,Net-(D5-K)*%
X152850000Y-123850000D03*
%TO.P,D5,2,A*%
%TO.N,Net-(D5-A)*%
X150750000Y-123850000D03*
%TD*%
D14*
%TO.P,R8,1*%
%TO.N,SDMMC_DAT1*%
X142050000Y-104800000D03*
%TO.P,R8,2*%
%TO.N,+3.3V*%
X142050000Y-106450000D03*
%TD*%
%TO.P,R9,1*%
%TO.N,GND*%
X114300000Y-102600000D03*
%TO.P,R9,2*%
%TO.N,ADC_CURR*%
X114300000Y-104250000D03*
%TD*%
D36*
%TO.P,C14,1*%
%TO.N,OSC_OUT*%
X117100000Y-97450000D03*
%TO.P,C14,2*%
%TO.N,GND*%
X117100000Y-95900000D03*
%TD*%
D18*
%TO.P,C12,1*%
%TO.N,+3.3V*%
X138225000Y-92500000D03*
%TO.P,C12,2*%
%TO.N,GND*%
X139775000Y-92500000D03*
%TD*%
D19*
%TO.P,C16,1*%
%TO.N,+3.3V*%
X135700000Y-72000000D03*
%TO.P,C16,2*%
%TO.N,GND*%
X132750000Y-72000000D03*
%TD*%
D20*
%TO.P,R10,1*%
%TO.N,SDMMC_DAT3*%
X134725000Y-88900000D03*
%TO.P,R10,2*%
%TO.N,+3.3V*%
X134725000Y-87250000D03*
%TD*%
D36*
%TO.P,C11,1*%
%TO.N,+3.3V*%
X118700000Y-98150000D03*
%TO.P,C11,2*%
%TO.N,GND*%
X118700000Y-96600000D03*
%TD*%
D11*
%TO.P,R33,1*%
%TO.N,Net-(D7-A)*%
X111275000Y-114900000D03*
%TO.P,R33,2*%
%TO.N,+3.3V*%
X112925000Y-114900000D03*
%TD*%
D68*
%TO.P,R17,1*%
%TO.N,+BATT*%
X135325000Y-68300000D03*
%TO.P,R17,2*%
%TO.N,ADC_VBATT*%
X133675000Y-68300000D03*
%TD*%
D18*
%TO.P,C19,1*%
%TO.N,+3.3V*%
X116450000Y-101400000D03*
%TO.P,C19,2*%
%TO.N,GND*%
X118000000Y-101400000D03*
%TD*%
D71*
%TO.P,J7,1,Pin_1*%
%TO.N,+5V*%
X153950000Y-127200000D03*
%TO.P,J7,2,Pin_2*%
%TO.N,Net-(D5-K)*%
X153950000Y-125950000D03*
D72*
%TO.P,J7,MP*%
%TO.N,GND*%
X157150000Y-129050000D03*
X157150000Y-124100000D03*
%TD*%
D11*
%TO.P,R20,1*%
%TO.N,Net-(D3-A)*%
X118775000Y-93600000D03*
%TO.P,R20,2*%
%TO.N,GPIO_LED*%
X120425000Y-93600000D03*
%TD*%
D68*
%TO.P,R18,1*%
%TO.N,GND*%
X135325000Y-69900000D03*
%TO.P,R18,2*%
%TO.N,ADC_VBATT*%
X133675000Y-69900000D03*
%TD*%
D12*
%TO.P,C18,1*%
%TO.N,+3.3V*%
X137500000Y-108400000D03*
%TO.P,C18,2*%
%TO.N,GND*%
X137500000Y-109950000D03*
%TD*%
D11*
%TO.P,R12,1*%
%TO.N,USB_DP*%
X147750000Y-95200000D03*
%TO.P,R12,2*%
%TO.N,Net-(J3-D+-PadA6)*%
X149400000Y-95200000D03*
%TD*%
D73*
%TO.P,C23,1*%
%TO.N,GND*%
X140750000Y-94100000D03*
%TO.P,C23,2*%
%TO.N,Net-(C23-Pad2)*%
X140750000Y-96000000D03*
%TD*%
D12*
%TO.P,C30,1*%
%TO.N,+3.3V*%
X119880000Y-80955000D03*
%TO.P,C30,2*%
%TO.N,GND*%
X119880000Y-82505000D03*
%TD*%
D74*
%TO.P,U6,1,LNA_IN*%
%TO.N,ESP32_LNA_IN*%
X118905000Y-118445000D03*
%TO.P,U6,2,VDD3P3*%
%TO.N,+3.3V*%
X118905000Y-118945000D03*
%TO.P,U6,3,VDD3P3*%
X118905000Y-119445000D03*
%TO.P,U6,4,GPIO0/XTAL_32K_P*%
%TO.N,unconnected-(U6-GPIO0{slash}XTAL_32K_P-Pad4)*%
X118905000Y-119945000D03*
%TO.P,U6,5,GPIO1/XTAL_32K_N*%
%TO.N,unconnected-(U6-GPIO1{slash}XTAL_32K_N-Pad5)*%
X118905000Y-120445000D03*
%TO.P,U6,6,GPIO2*%
%TO.N,ESP32_MISO*%
X118905000Y-120945000D03*
%TO.P,U6,7,CHIP_EN*%
%TO.N,ESP32_EN*%
X118905000Y-121445000D03*
%TO.P,U6,8,GPIO3*%
%TO.N,ESP32_NSS*%
X118905000Y-121945000D03*
D75*
%TO.P,U6,9,GPIO4/MTMS*%
%TO.N,SX_RESET*%
X119600000Y-122640000D03*
%TO.P,U6,10,GPIO5/MTDI*%
%TO.N,ESP32_STATUS_LED*%
X120100000Y-122640000D03*
%TO.P,U6,11,VDD3P3_RTC*%
%TO.N,+3.3V*%
X120600000Y-122640000D03*
%TO.P,U6,12,GPIO6/MTCK*%
%TO.N,ESP32_SCK*%
X121100000Y-122640000D03*
%TO.P,U6,13,GPIO7/MTDO*%
%TO.N,ESP32_MOSI*%
X121600000Y-122640000D03*
%TO.P,U6,14,GPIO8*%
%TO.N,SX_DIO1*%
X122100000Y-122640000D03*
%TO.P,U6,15,GPIO9*%
%TO.N,ESP32_BOOT*%
X122600000Y-122640000D03*
%TO.P,U6,16,GPIO10*%
%TO.N,SX_BUSY*%
X123100000Y-122640000D03*
D74*
%TO.P,U6,17,VDD3P3_CPU*%
%TO.N,+3.3V*%
X123795000Y-121945000D03*
%TO.P,U6,18,VDD_SPI*%
X123795000Y-121445000D03*
%TO.P,U6,19,GPIO12/SPIHD*%
%TO.N,unconnected-(U6-GPIO12{slash}SPIHD-Pad19)*%
X123795000Y-120945000D03*
%TO.P,U6,20,GPIO13/SPIWP*%
%TO.N,unconnected-(U6-GPIO13{slash}SPIWP-Pad20)*%
X123795000Y-120445000D03*
%TO.P,U6,21,GPIO14/SPICS0*%
%TO.N,unconnected-(U6-GPIO14{slash}SPICS0-Pad21)*%
X123795000Y-119945000D03*
%TO.P,U6,22,GPIO15/SPICLK*%
%TO.N,unconnected-(U6-GPIO15{slash}SPICLK-Pad22)*%
X123795000Y-119445000D03*
%TO.P,U6,23,GPIO16/SPID*%
%TO.N,unconnected-(U6-GPIO16{slash}SPID-Pad23)*%
X123795000Y-118945000D03*
%TO.P,U6,24,GPIO17/SPIQ*%
%TO.N,unconnected-(U6-GPIO17{slash}SPIQ-Pad24)*%
X123795000Y-118445000D03*
D75*
%TO.P,U6,25,GPIO18/USB_D-*%
%TO.N,unconnected-(U6-GPIO18{slash}USB_D--Pad25)*%
X123100000Y-117750000D03*
%TO.P,U6,26,GPIO19/USB_D+*%
%TO.N,unconnected-(U6-GPIO19{slash}USB_D+-Pad26)*%
X122600000Y-117750000D03*
%TO.P,U6,27,GPIO20/U0RXD*%
%TO.N,ESP32_RX*%
X122100000Y-117750000D03*
%TO.P,U6,28,GPIO21/U0TXD*%
%TO.N,ESP32_TX*%
X121600000Y-117750000D03*
%TO.P,U6,29,XTAL_N*%
%TO.N,XTAL_N*%
X121100000Y-117750000D03*
%TO.P,U6,30,XTAL_P*%
%TO.N,XTAL_P*%
X120600000Y-117750000D03*
%TO.P,U6,31,VDDA*%
%TO.N,+3.3V*%
X120100000Y-117750000D03*
%TO.P,U6,32,VDDA*%
X119600000Y-117750000D03*
D52*
%TO.P,U6,33,GND*%
%TO.N,GND*%
X120100000Y-118945000D03*
X120100000Y-120195000D03*
X120100000Y-121445000D03*
X121350000Y-118945000D03*
X121350000Y-120195000D03*
D76*
X121350000Y-120195000D03*
D52*
X121350000Y-121445000D03*
X122600000Y-118945000D03*
X122600000Y-120195000D03*
X122600000Y-121445000D03*
%TD*%
D11*
%TO.P,R14,1*%
%TO.N,USB_VBUS*%
X150850000Y-102400000D03*
%TO.P,R14,2*%
%TO.N,Net-(D2-A)*%
X152500000Y-102400000D03*
%TD*%
D18*
%TO.P,C26,1*%
%TO.N,GND*%
X114850000Y-114375000D03*
%TO.P,C26,2*%
%TO.N,+3.3V*%
X116400000Y-114375000D03*
%TD*%
D77*
%TO.N,GND*%
X121700000Y-108300000D03*
X132750000Y-73700000D03*
X114800000Y-119650000D03*
X115450000Y-102500000D03*
X117200000Y-106250000D03*
X111325000Y-112550000D03*
X110500829Y-92399171D03*
X157150000Y-130650000D03*
X120409620Y-98090380D03*
X112900000Y-68000000D03*
X148775000Y-72950000D03*
X148100000Y-101500000D03*
X110250000Y-116500000D03*
X102800000Y-121435000D03*
X135750000Y-111850000D03*
X152200000Y-79775000D03*
X142000000Y-94100000D03*
X150300000Y-67750000D03*
X106000000Y-87200000D03*
X107807446Y-93217554D03*
X132750000Y-82300000D03*
X102900000Y-101450000D03*
X159100000Y-85350000D03*
X121025000Y-90275000D03*
X131300000Y-89250000D03*
X119054732Y-78302053D03*
X146750000Y-128650000D03*
X113040000Y-86520000D03*
X121400000Y-126425000D03*
X110850000Y-119410000D03*
X127325000Y-118950000D03*
X111825000Y-107500000D03*
X140000000Y-115000000D03*
X146450000Y-92050000D03*
X102800000Y-115485000D03*
X122326446Y-79153554D03*
X120453554Y-111453554D03*
X113580000Y-92570000D03*
X118470000Y-111000000D03*
X108100000Y-76700000D03*
X120300000Y-101500000D03*
X144900000Y-103500000D03*
X119050000Y-79303053D03*
%TO.N,OSC_IN*%
X115400000Y-99200000D03*
X119500000Y-99100000D03*
%TO.N,OSC_OUT*%
X119056239Y-99765642D03*
X117100000Y-98450000D03*
%TO.N,+5V*%
X143950000Y-84250000D03*
X151750000Y-127200000D03*
%TO.N,ADC_VBATT*%
X132550000Y-68250000D03*
X120200000Y-87150000D03*
X125608785Y-74091385D03*
X122974000Y-84375000D03*
%TO.N,Net-(D2-A)*%
X154000000Y-96000000D03*
X153650000Y-102400000D03*
X153600000Y-91076000D03*
%TO.N,SWCLK*%
X110200000Y-83100000D03*
X138337651Y-89558975D03*
%TO.N,SWDIO*%
X107450000Y-83500000D03*
X139247560Y-95478413D03*
%TO.N,SDMMC_DAT3*%
X142246946Y-92054054D03*
X142750000Y-111800000D03*
%TO.N,SDMMC_DAT0*%
X139628554Y-106200000D03*
X139749331Y-102949199D03*
%TO.N,SDMMC_CMD*%
X142450000Y-112500000D03*
X142750000Y-97850000D03*
%TO.N,SDMMC_CLK*%
X134000000Y-89950000D03*
X141850000Y-97800000D03*
X142500000Y-115300000D03*
X138650000Y-91100000D03*
%TO.N,SDMMC_DAT2*%
X143000000Y-110774162D03*
X139917892Y-90432108D03*
%TO.N,SDMMC_DAT1*%
X141278554Y-103678554D03*
X140546159Y-102878007D03*
X140500000Y-109400000D03*
X140350000Y-105250000D03*
%TO.N,TIM_CH2*%
X129700000Y-110800000D03*
X125320000Y-82625000D03*
%TO.N,ADC_CURR*%
X119200000Y-86550000D03*
X126650000Y-79700000D03*
X114750000Y-105350000D03*
X113896446Y-106203554D03*
%TO.N,TIM_CH1*%
X128850000Y-111350000D03*
X125950000Y-81250000D03*
%TO.N,TIM_CH3*%
X130878554Y-110328554D03*
X124650000Y-84825000D03*
%TO.N,TIM_CH4*%
X132083554Y-109823554D03*
X124075000Y-86249000D03*
%TO.N,I2C1_SCL*%
X118400000Y-77775000D03*
X115400000Y-77775000D03*
%TO.N,I2C1_SDA*%
X114150000Y-78800000D03*
X118400000Y-78800000D03*
%TO.N,USART1_RX*%
X127344593Y-90571609D03*
X128600000Y-87892050D03*
%TO.N,USART3_TX*%
X133600000Y-108990919D03*
X132300000Y-112625000D03*
%TO.N,USART2_RX*%
X120550000Y-108550000D03*
X119800000Y-110275000D03*
%TO.N,USART2_TX*%
X111275000Y-111025000D03*
X120893288Y-107450000D03*
%TO.N,BOOT0*%
X126511492Y-90587038D03*
X129660000Y-89220000D03*
%TO.N,GPIO_BUZZER*%
X146525000Y-123175000D03*
X143301000Y-101850000D03*
%TO.N,GPIO_SPI_CS*%
X140250000Y-101700000D03*
X116470000Y-90610000D03*
X129075000Y-113227000D03*
%TO.N,GPIO_EXTI14*%
X119600000Y-94900000D03*
X122380000Y-79900000D03*
%TO.N,SPI1_SCK*%
X115550000Y-92896000D03*
X123630000Y-111201000D03*
%TO.N,GPIO_EXTI4*%
X122856178Y-110998012D03*
X112394135Y-94966310D03*
%TO.N,SPI1_MISO*%
X125662435Y-110472435D03*
X115797438Y-94134398D03*
%TO.N,SPI1_MOSI*%
X115970000Y-93456001D03*
X125096747Y-111038123D03*
%TO.N,+3.3V*%
X107650000Y-79300000D03*
X137100000Y-69400000D03*
X108100000Y-72950000D03*
X112505000Y-92595000D03*
X121300000Y-91800000D03*
X115350000Y-101400000D03*
X113375000Y-113725000D03*
X137125000Y-91250000D03*
X119418140Y-101651000D03*
X138150000Y-107150000D03*
X110450000Y-86650000D03*
X126250000Y-86950000D03*
X116700000Y-119650000D03*
X132828554Y-86078554D03*
X125450000Y-118625000D03*
X140499999Y-108467135D03*
X140016393Y-113766393D03*
X125400000Y-123125000D03*
X119850000Y-126450000D03*
X120700000Y-95900000D03*
X122880000Y-80565000D03*
X112875453Y-107449546D03*
X130925000Y-74700000D03*
X140950000Y-106150000D03*
X117850000Y-116300000D03*
X108750000Y-105875000D03*
X113225000Y-119625000D03*
X121400000Y-109550000D03*
X119150000Y-68000000D03*
%TO.N,Net-(U1-PH)*%
X143550000Y-75225000D03*
X151800000Y-71225000D03*
%TO.N,TIM3_CH2*%
X128500000Y-90882106D03*
%TO.N,TIM3_CH4*%
X127572095Y-110825967D03*
%TO.N,TIM3_CH3*%
X126871549Y-110819406D03*
%TO.N,TIM3_CH1*%
X128500000Y-90175000D03*
%TO.N,UART4_TX*%
X133000000Y-90744192D03*
%TO.N,UART4_RX*%
X133147252Y-90059855D03*
%TO.N,ESP32_EN*%
X117350000Y-122700000D03*
%TO.N,Net-(U7-S)*%
X109994446Y-98451554D03*
X110297000Y-97339894D03*
%TO.N,ESP32_TX*%
X121863909Y-116263909D03*
X118650000Y-112500000D03*
%TO.N,ESP32_RX*%
X110575000Y-113525000D03*
X122550000Y-116650000D03*
%TD*%
D78*
%TO.N,GND*%
X120750000Y-90000000D02*
X121025000Y-90275000D01*
X114300000Y-101100000D02*
X114250000Y-101050000D01*
D79*
X158350000Y-78825000D02*
X158300000Y-78775000D01*
X132500000Y-66949999D02*
X132500000Y-66100000D01*
D80*
X157150000Y-124100000D02*
X157150000Y-129050000D01*
D78*
X116600000Y-103125000D02*
X118175000Y-103125000D01*
D81*
X112540000Y-89935000D02*
X113540000Y-89935000D01*
X113580000Y-91370000D02*
X113580000Y-89975000D01*
X118680000Y-79673053D02*
X119050000Y-79303053D01*
D78*
X118919240Y-96600000D02*
X120409620Y-98090380D01*
X127125000Y-120600000D02*
X127125000Y-122125000D01*
X122450000Y-115000000D02*
X122300000Y-114850000D01*
D81*
X119054732Y-78302053D02*
X119847947Y-78302053D01*
D79*
X132750000Y-72000000D02*
X131899000Y-71149000D01*
D78*
X122600000Y-108300000D02*
X121700000Y-108300000D01*
D81*
X113040000Y-87605000D02*
X112540000Y-87605000D01*
X113580000Y-89975000D02*
X113540000Y-89935000D01*
D82*
X149535000Y-74775000D02*
X149535000Y-73710000D01*
D78*
X151405000Y-92870000D02*
X150170000Y-92870000D01*
D79*
X102950000Y-101500000D02*
X102950000Y-101525000D01*
D78*
X112900000Y-65800000D02*
X111050000Y-63950000D01*
X120750000Y-101950000D02*
X120300000Y-101500000D01*
X102525000Y-110450000D02*
X101800000Y-109725000D01*
D81*
X121380000Y-78800000D02*
X121972892Y-78800000D01*
D78*
X124500000Y-91100000D02*
X123650000Y-90250000D01*
X102800000Y-119935000D02*
X102800000Y-121435000D01*
X131310000Y-90390000D02*
X131310000Y-89260000D01*
X137500000Y-110500000D02*
X137250000Y-110750000D01*
X114762500Y-121037500D02*
X114800000Y-121000000D01*
X127350000Y-118975000D02*
X127325000Y-118950000D01*
D81*
X119177947Y-78302053D02*
X119180000Y-78300000D01*
X119053053Y-79300000D02*
X119050000Y-79303053D01*
D78*
X127350000Y-120375000D02*
X127125000Y-120600000D01*
D82*
X111050000Y-62900000D02*
X121000000Y-62900000D01*
D80*
X150300000Y-67750000D02*
X150300000Y-71225000D01*
D78*
X135750000Y-111850000D02*
X135750000Y-110750000D01*
X139775000Y-92500000D02*
X140400000Y-92500000D01*
X135500000Y-110500000D02*
X135750000Y-110750000D01*
X131310000Y-89260000D02*
X131300000Y-89250000D01*
D81*
X115105000Y-91545000D02*
X113755000Y-91545000D01*
D78*
X141250000Y-115000000D02*
X140000000Y-115000000D01*
D79*
X102900000Y-87180000D02*
X105980000Y-87180000D01*
D81*
X140600000Y-94250000D02*
X140750000Y-94100000D01*
X119847947Y-78302053D02*
X119850000Y-78300000D01*
D78*
X122325000Y-98500000D02*
X120819240Y-98500000D01*
X118250000Y-106250000D02*
X117200000Y-106250000D01*
D81*
X138884957Y-94248000D02*
X139715043Y-94248000D01*
D78*
X114475000Y-116250000D02*
X114475000Y-117075000D01*
X145000000Y-116400000D02*
X144400000Y-116400000D01*
X118600000Y-113150000D02*
X118000000Y-113750000D01*
X109955000Y-90870000D02*
X109955000Y-91853342D01*
X118633520Y-101400000D02*
X119032520Y-101001000D01*
D79*
X148350000Y-128650000D02*
X146750000Y-128650000D01*
D80*
X143800000Y-63450000D02*
X138250000Y-63450000D01*
D78*
X140750000Y-92850000D02*
X140750000Y-94100000D01*
X116600000Y-103125000D02*
X115450000Y-103125000D01*
X111487500Y-120862500D02*
X111650000Y-120700000D01*
D79*
X106200000Y-76725000D02*
X104375000Y-78550000D01*
D78*
X115450000Y-103125000D02*
X114825000Y-103125000D01*
D79*
X102950000Y-101525000D02*
X101800000Y-102675000D01*
X158350000Y-83675000D02*
X158350000Y-78825000D01*
X158350000Y-85350000D02*
X159100000Y-85350000D01*
D78*
X111875000Y-89270000D02*
X110705000Y-89270000D01*
D82*
X149535000Y-73710000D02*
X148775000Y-72950000D01*
D78*
X114450000Y-116275000D02*
X114475000Y-116250000D01*
X122300000Y-114850000D02*
X121800000Y-114850000D01*
D81*
X139717043Y-94250000D02*
X140600000Y-94250000D01*
D82*
X153550000Y-81775000D02*
X152200000Y-80425000D01*
D78*
X142000000Y-94100000D02*
X140750000Y-94100000D01*
X111262500Y-122550000D02*
X111487500Y-122325000D01*
D80*
X145800000Y-105300000D02*
X144900000Y-106200000D01*
D78*
X118000000Y-101400000D02*
X118633520Y-101400000D01*
D79*
X102900000Y-101450000D02*
X102900000Y-99070000D01*
D78*
X149300000Y-100050000D02*
X149300000Y-101500000D01*
D79*
X157150000Y-130650000D02*
X157150000Y-129050000D01*
D78*
X111650000Y-120200000D02*
X111650000Y-120750000D01*
X135325000Y-69900000D02*
X135325000Y-70275000D01*
X111325000Y-116500000D02*
X110250000Y-116500000D01*
X101800000Y-109725000D02*
X101800000Y-107900000D01*
X111050000Y-63950000D02*
X111050000Y-62900000D01*
X118700000Y-96600000D02*
X118919240Y-96600000D01*
D79*
X132500000Y-66100000D02*
X132500000Y-62900000D01*
D78*
X146500000Y-92000000D02*
X146450000Y-92050000D01*
X123225000Y-107675000D02*
X122600000Y-108300000D01*
D82*
X136087013Y-80938058D02*
X136087013Y-82588058D01*
D79*
X101800000Y-102675000D02*
X101800000Y-103700000D01*
D78*
X149300000Y-101500000D02*
X148100000Y-101500000D01*
D81*
X119880000Y-82505000D02*
X119285000Y-82505000D01*
D80*
X154500000Y-105300000D02*
X145800000Y-105300000D01*
D78*
X124000000Y-107675000D02*
X123225000Y-107675000D01*
X145000000Y-121000000D02*
X145451000Y-120549000D01*
X114800000Y-121000000D02*
X114800000Y-119650000D01*
D80*
X154500000Y-121000000D02*
X145000000Y-121000000D01*
D79*
X102900000Y-101450000D02*
X102950000Y-101500000D01*
D78*
X118200000Y-103100000D02*
X118175000Y-103125000D01*
X111325000Y-117225000D02*
X111325000Y-116500000D01*
D80*
X135600000Y-62900000D02*
X132500000Y-62900000D01*
D78*
X120100000Y-111807108D02*
X120453554Y-111453554D01*
X127125000Y-122125000D02*
X126950000Y-122300000D01*
D81*
X121380000Y-79300000D02*
X121380000Y-78800000D01*
D78*
X106200000Y-76700000D02*
X106200000Y-76725000D01*
D79*
X136087013Y-80938058D02*
X135475071Y-81550000D01*
D78*
X114475000Y-116250000D02*
X114475000Y-114750000D01*
X110705000Y-89270000D02*
X109955000Y-90020000D01*
D81*
X119880000Y-82505000D02*
X121450000Y-82505000D01*
X113580000Y-92570000D02*
X113580000Y-91370000D01*
D78*
X112900000Y-66100000D02*
X112900000Y-68000000D01*
D81*
X119285000Y-82505000D02*
X118680000Y-81900000D01*
D78*
X121250000Y-103000000D02*
X120750000Y-102500000D01*
X114125000Y-117425000D02*
X111525000Y-117425000D01*
X119801000Y-101001000D02*
X120300000Y-101500000D01*
X106200000Y-76700000D02*
X108100000Y-76700000D01*
D81*
X117062500Y-111000000D02*
X118470000Y-111000000D01*
D78*
X116299000Y-95099000D02*
X113951000Y-95099000D01*
D79*
X101800000Y-107900000D02*
X101800000Y-103700000D01*
D78*
X122325000Y-103000000D02*
X121250000Y-103000000D01*
X110860000Y-119410000D02*
X111650000Y-120200000D01*
D81*
X112837500Y-112500000D02*
X111375000Y-112500000D01*
D78*
X144400000Y-116400000D02*
X141950000Y-116400000D01*
X119032520Y-101001000D02*
X119801000Y-101001000D01*
X114700000Y-97750000D02*
X113000000Y-96050000D01*
X111262500Y-124625000D02*
X111312500Y-124675000D01*
X118175000Y-101575000D02*
X118000000Y-101400000D01*
D79*
X132750000Y-72000000D02*
X132750000Y-73700000D01*
D78*
X110850000Y-119410000D02*
X110860000Y-119410000D01*
X147700000Y-92000000D02*
X149300000Y-92000000D01*
D79*
X132750000Y-80200000D02*
X132750000Y-82300000D01*
D78*
X144400000Y-116400000D02*
X144250000Y-116250000D01*
X120750000Y-102500000D02*
X120750000Y-101950000D01*
X117100000Y-95900000D02*
X116299000Y-95099000D01*
X120100000Y-113150000D02*
X120100000Y-111807108D01*
X118150000Y-103100000D02*
X118175000Y-103125000D01*
X124200000Y-115000000D02*
X122450000Y-115000000D01*
D79*
X102900000Y-87180000D02*
X102900000Y-87100000D01*
D78*
X114475000Y-114750000D02*
X114850000Y-114375000D01*
D81*
X139715043Y-94248000D02*
X139717043Y-94250000D01*
D78*
X149980000Y-99370000D02*
X149300000Y-100050000D01*
X121050000Y-90250000D02*
X121025000Y-90275000D01*
D81*
X113755000Y-91545000D02*
X113580000Y-91370000D01*
D79*
X135475071Y-81550000D02*
X133500000Y-81550000D01*
X133500000Y-81550000D02*
X132750000Y-82300000D01*
D78*
X111487500Y-122325000D02*
X111487500Y-120862500D01*
D79*
X158350000Y-85350000D02*
X158350000Y-83675000D01*
X133650000Y-83200000D02*
X132750000Y-82300000D01*
D78*
X137500000Y-109950000D02*
X137500000Y-110500000D01*
X114300000Y-102600000D02*
X114300000Y-101100000D01*
X102900000Y-110450000D02*
X102525000Y-110450000D01*
D79*
X132750000Y-72000000D02*
X133225000Y-72000000D01*
D78*
X113951000Y-95099000D02*
X113000000Y-96050000D01*
X114475000Y-117075000D02*
X114125000Y-117425000D01*
D81*
X114930000Y-91370000D02*
X115105000Y-91545000D01*
D79*
X104375000Y-78550000D02*
X103000000Y-78550000D01*
D78*
X117800000Y-96600000D02*
X117100000Y-95900000D01*
D81*
X137675000Y-94500000D02*
X138632957Y-94500000D01*
D80*
X156101000Y-106901000D02*
X154500000Y-105300000D01*
D78*
X124500000Y-92325000D02*
X124500000Y-91100000D01*
X102800000Y-115515000D02*
X102800000Y-116985000D01*
D80*
X148650000Y-63450000D02*
X143800000Y-63450000D01*
D78*
X121800000Y-114850000D02*
X120100000Y-113150000D01*
D79*
X131899000Y-71149000D02*
X131899000Y-67550999D01*
D78*
X114825000Y-103125000D02*
X114300000Y-102600000D01*
D79*
X158050000Y-85650000D02*
X158350000Y-85350000D01*
X131899000Y-67550999D02*
X132500000Y-66949999D01*
D78*
X114762500Y-122850000D02*
X114762500Y-121037500D01*
X111875000Y-89270000D02*
X111875000Y-88796000D01*
D80*
X154500000Y-121000000D02*
X156101000Y-119399000D01*
D78*
X111425000Y-122400000D02*
X111225000Y-122600000D01*
D81*
X113040000Y-86520000D02*
X113040000Y-87605000D01*
D78*
X123650000Y-90250000D02*
X122500000Y-90250000D01*
D80*
X150300000Y-65100000D02*
X148650000Y-63450000D01*
D78*
X102800000Y-115375000D02*
X102800000Y-115345000D01*
D80*
X138250000Y-63450000D02*
X137700000Y-62900000D01*
D78*
X111825000Y-108700000D02*
X111825000Y-107500000D01*
X106125000Y-110450000D02*
X102900000Y-110450000D01*
D81*
X119054732Y-78302053D02*
X119177947Y-78302053D01*
D78*
X140400000Y-92500000D02*
X140750000Y-92850000D01*
D80*
X137700000Y-62900000D02*
X135600000Y-62900000D01*
X156101000Y-119399000D02*
X156101000Y-106901000D01*
D78*
X119100000Y-90000000D02*
X120750000Y-90000000D01*
X112900000Y-66100000D02*
X112900000Y-65800000D01*
X120819240Y-98500000D02*
X120409620Y-98090380D01*
X127350000Y-120375000D02*
X127350000Y-118975000D01*
D79*
X133225000Y-72000000D02*
X135325000Y-69900000D01*
D82*
X152200000Y-80425000D02*
X152200000Y-79775000D01*
D78*
X115450000Y-103125000D02*
X115450000Y-102500000D01*
D81*
X108300000Y-94600000D02*
X108300000Y-93710108D01*
D78*
X121400000Y-124925000D02*
X121400000Y-126075000D01*
D81*
X108300000Y-93710108D02*
X107807446Y-93217554D01*
D79*
X157550000Y-85650000D02*
X158050000Y-85650000D01*
D78*
X141950000Y-116400000D02*
X141250000Y-115700000D01*
X118700000Y-96600000D02*
X117800000Y-96600000D01*
X141250000Y-115700000D02*
X141250000Y-115000000D01*
D80*
X132500000Y-62900000D02*
X124400000Y-62900000D01*
D79*
X144900000Y-106200000D02*
X144900000Y-103500000D01*
D81*
X111375000Y-112500000D02*
X111325000Y-112550000D01*
D79*
X134700000Y-83200000D02*
X133650000Y-83200000D01*
D81*
X121972892Y-78800000D02*
X122326446Y-79153554D01*
D83*
X110850000Y-119410000D02*
X109950000Y-119410000D01*
D78*
X137250000Y-110750000D02*
X135750000Y-110750000D01*
X150170000Y-92870000D02*
X149300000Y-92000000D01*
X111525000Y-117425000D02*
X111325000Y-117225000D01*
D79*
X105980000Y-87180000D02*
X106000000Y-87200000D01*
D78*
X122500000Y-90250000D02*
X121050000Y-90250000D01*
X147700000Y-92000000D02*
X146500000Y-92000000D01*
X120100000Y-113150000D02*
X118600000Y-113150000D01*
X111262500Y-122550000D02*
X111262500Y-124625000D01*
X109955000Y-91853342D02*
X110500829Y-92399171D01*
D81*
X118680000Y-81900000D02*
X118680000Y-79673053D01*
D78*
X109955000Y-90020000D02*
X109955000Y-90870000D01*
D81*
X138632957Y-94500000D02*
X138884957Y-94248000D01*
D80*
X150300000Y-65100000D02*
X150300000Y-67750000D01*
D78*
X151405000Y-99370000D02*
X149980000Y-99370000D01*
D82*
X136087013Y-82588058D02*
X136937013Y-83438058D01*
D78*
X135500000Y-107675000D02*
X135500000Y-110500000D01*
X118175000Y-103125000D02*
X118175000Y-101575000D01*
D80*
X103000000Y-71100000D02*
X103000000Y-78550000D01*
D78*
X115200000Y-97750000D02*
X114700000Y-97750000D01*
X102800000Y-115865000D02*
X102795000Y-115860000D01*
D81*
X119850000Y-79300000D02*
X119053053Y-79300000D01*
D78*
X118700000Y-96300000D02*
X118700000Y-96600000D01*
D81*
%TO.N,Net-(C20-Pad1)*%
X120150000Y-104625000D02*
X120125000Y-104650000D01*
D78*
X116600000Y-104675000D02*
X119775000Y-104675000D01*
%TO.N,OSC_IN*%
X113500000Y-97750000D02*
X114250000Y-98500000D01*
X114500000Y-99250000D02*
X114250000Y-99500000D01*
X114250000Y-98500000D02*
X114250000Y-99500000D01*
X122325000Y-99500000D02*
X119900000Y-99500000D01*
X114250000Y-99500000D02*
X115100000Y-99500000D01*
X119900000Y-99500000D02*
X119500000Y-99100000D01*
X115100000Y-99500000D02*
X115400000Y-99200000D01*
X113000000Y-97750000D02*
X113500000Y-97750000D01*
%TO.N,OSC_OUT*%
X117100000Y-97450000D02*
X117100000Y-98450000D01*
X122325000Y-100000000D02*
X119290597Y-100000000D01*
X119290597Y-100000000D02*
X119056239Y-99765642D01*
X115200000Y-96050000D02*
X115700000Y-96050000D01*
X115700000Y-96050000D02*
X117100000Y-97450000D01*
D80*
%TO.N,Net-(D1-A)*%
X151850000Y-87828374D02*
X152496626Y-88475000D01*
X156000000Y-84275000D02*
X155400000Y-83675000D01*
X158050000Y-74225000D02*
X155400000Y-76875000D01*
X158050000Y-74225000D02*
X158050000Y-75375000D01*
X151950000Y-85650000D02*
X151850000Y-85750000D01*
X155400000Y-76875000D02*
X155400000Y-83675000D01*
D79*
X155350000Y-83625000D02*
X155400000Y-83675000D01*
D80*
X156000000Y-85650000D02*
X151950000Y-85650000D01*
X156000000Y-85650000D02*
X156000000Y-84275000D01*
X152496626Y-88475000D02*
X153800000Y-88475000D01*
X151850000Y-85750000D02*
X151850000Y-87828374D01*
%TO.N,+5V*%
X148000000Y-82009959D02*
X147900000Y-81909959D01*
D82*
X143950000Y-84250000D02*
X143161942Y-83461942D01*
D80*
X143161942Y-83438058D02*
X139887013Y-83438058D01*
X152399156Y-90076000D02*
X150449000Y-88125844D01*
D82*
X140687013Y-80938058D02*
X140687013Y-82638058D01*
D80*
X157800000Y-88475000D02*
X156199000Y-90076000D01*
X149990041Y-81909959D02*
X147900000Y-81909959D01*
X156199000Y-90076000D02*
X152399156Y-90076000D01*
X148000000Y-84100000D02*
X148000000Y-82009959D01*
X150449000Y-82368918D02*
X149990041Y-81909959D01*
X150449000Y-88125844D02*
X150449000Y-82368918D01*
D79*
X153950000Y-127200000D02*
X151750000Y-127200000D01*
D82*
X143161942Y-83461942D02*
X143161942Y-83438058D01*
D80*
X144690041Y-81909959D02*
X143161942Y-83438058D01*
X147900000Y-81909959D02*
X144690041Y-81909959D01*
D82*
X140687013Y-82638058D02*
X139887013Y-83438058D01*
D81*
%TO.N,ADC_VBATT*%
X114751365Y-87150000D02*
X120200000Y-87150000D01*
X122975000Y-84375000D02*
X123450000Y-83900000D01*
X108253000Y-87152318D02*
X109747503Y-85657815D01*
X113259180Y-85657815D02*
X114751365Y-87150000D01*
X132600000Y-68300000D02*
X132550000Y-68250000D01*
X111700000Y-95091422D02*
X108253000Y-91644422D01*
X119800000Y-106250000D02*
X118901594Y-107148406D01*
X113761018Y-105702554D02*
X113250000Y-105191536D01*
X119800000Y-105866100D02*
X119800000Y-106250000D01*
X121166100Y-104500000D02*
X119800000Y-105866100D01*
X111700000Y-98741422D02*
X111700000Y-95091422D01*
X114397446Y-106278876D02*
X114397446Y-105996033D01*
X123450000Y-83900000D02*
X123450000Y-76250170D01*
X114397446Y-105996033D02*
X114103967Y-105702554D01*
X109747503Y-85657815D02*
X113259180Y-85657815D01*
X113250000Y-105191536D02*
X113250000Y-100291422D01*
X123450000Y-76250170D02*
X125608785Y-74091385D01*
X122974000Y-84375000D02*
X122975000Y-84375000D01*
X113250000Y-100291422D02*
X111700000Y-98741422D01*
X118901594Y-107148406D02*
X115266976Y-107148406D01*
X108253000Y-91644422D02*
X108253000Y-87152318D01*
X133675000Y-68300000D02*
X133675000Y-69900000D01*
X115266976Y-107148406D02*
X114397446Y-106278876D01*
X122325000Y-104500000D02*
X121166100Y-104500000D01*
X114103967Y-105702554D02*
X113761018Y-105702554D01*
X133675000Y-68300000D02*
X132600000Y-68300000D01*
D78*
%TO.N,Net-(D2-A)*%
X149219660Y-88100000D02*
X148000000Y-88100000D01*
X153987882Y-95987882D02*
X154000000Y-96000000D01*
X152263281Y-93670000D02*
X151405000Y-93670000D01*
X153031000Y-95987882D02*
X153987882Y-95987882D01*
X152263281Y-98570000D02*
X151405000Y-98570000D01*
X153600000Y-91076000D02*
X153451000Y-90927000D01*
X153031000Y-95987882D02*
X153031000Y-94437719D01*
X152046660Y-90927000D02*
X149219660Y-88100000D01*
X153031000Y-95987882D02*
X153031000Y-97802281D01*
X152500000Y-102400000D02*
X152450000Y-102400000D01*
X152500000Y-102400000D02*
X153650000Y-102400000D01*
X153451000Y-90927000D02*
X152046660Y-90927000D01*
X153031000Y-97802281D02*
X152263281Y-98570000D01*
X153031000Y-94437719D02*
X152263281Y-93670000D01*
D79*
%TO.N,Net-(D3-A)*%
X118775000Y-93600000D02*
X118775000Y-92200000D01*
X118775000Y-92200000D02*
X119100000Y-91875000D01*
%TO.N,Net-(D5-A)*%
X150750000Y-127175000D02*
X150225000Y-127700000D01*
X150750000Y-123850000D02*
X150750000Y-127175000D01*
%TO.N,Net-(D6-A)*%
X135525000Y-85600000D02*
X134700000Y-84775000D01*
X136750000Y-85600000D02*
X135525000Y-85600000D01*
D78*
%TO.N,SWCLK*%
X108550000Y-82100000D02*
X109550000Y-83100000D01*
D81*
X138337651Y-89558975D02*
X138228676Y-89450000D01*
X136621642Y-90628358D02*
X137846642Y-90628358D01*
X136000000Y-91250000D02*
X136621642Y-90628358D01*
D78*
X108500000Y-82100000D02*
X108550000Y-82100000D01*
D81*
X137846642Y-90628358D02*
X138337651Y-90137349D01*
D78*
X108500000Y-83900000D02*
X108500000Y-82100000D01*
D81*
X138337651Y-90137349D02*
X138337651Y-89558975D01*
X136000000Y-92325000D02*
X136000000Y-91250000D01*
D78*
X107760000Y-84640000D02*
X108500000Y-83900000D01*
X109550000Y-83100000D02*
X110200000Y-83100000D01*
X102900000Y-84640000D02*
X107760000Y-84640000D01*
D81*
%TO.N,SWDIO*%
X137675000Y-95500000D02*
X139225973Y-95500000D01*
D78*
X102900000Y-82100000D02*
X106800000Y-82100000D01*
D81*
X139225973Y-95500000D02*
X139247560Y-95478413D01*
D78*
X106800000Y-82100000D02*
X106800000Y-82850000D01*
X106800000Y-82850000D02*
X107450000Y-83500000D01*
D81*
%TO.N,SDMMC_DAT3*%
X134725000Y-88900000D02*
X135331000Y-88294000D01*
X138486892Y-88294000D02*
X142246946Y-92054054D01*
X144400000Y-112000000D02*
X142950000Y-112000000D01*
X134725000Y-88900000D02*
X134500000Y-89125000D01*
X135331000Y-88294000D02*
X138486892Y-88294000D01*
X142950000Y-112000000D02*
X142750000Y-111800000D01*
X134500000Y-89125000D02*
X134500000Y-92325000D01*
%TO.N,SDMMC_DAT0*%
X142726000Y-108726000D02*
X142726000Y-110071642D01*
X139051000Y-114024678D02*
X139051000Y-116825322D01*
X139199000Y-102398868D02*
X139749331Y-102949199D01*
X139628554Y-106200000D02*
X139628554Y-106902876D01*
X137675000Y-99000000D02*
X138508824Y-99000000D01*
X138508824Y-99000000D02*
X139199000Y-99690176D01*
X139725678Y-117500000D02*
X144400000Y-117500000D01*
X140801000Y-111549000D02*
X140801000Y-112274678D01*
X142050000Y-108050000D02*
X142726000Y-108726000D01*
X139199000Y-99690176D02*
X139199000Y-102398868D01*
X140801000Y-112274678D02*
X139051000Y-114024678D01*
X142049000Y-110301000D02*
X140801000Y-111549000D01*
X142726000Y-110071642D02*
X142496642Y-110301000D01*
X139628554Y-106902876D02*
X140775678Y-108050000D01*
X142496642Y-110301000D02*
X142049000Y-110301000D01*
X140775678Y-108050000D02*
X142050000Y-108050000D01*
X139051000Y-116825322D02*
X139725678Y-117500000D01*
%TO.N,SDMMC_CMD*%
X133125000Y-88900000D02*
X133125000Y-89375000D01*
X142801000Y-97799000D02*
X142750000Y-97850000D01*
X137544000Y-86644000D02*
X142801000Y-91901000D01*
X142450000Y-112600000D02*
X142950000Y-113100000D01*
X142450000Y-112500000D02*
X142450000Y-112600000D01*
X135844000Y-86644000D02*
X137544000Y-86644000D01*
X132500000Y-90000000D02*
X132500000Y-92325000D01*
X132050000Y-86150000D02*
X132650000Y-85550000D01*
X133125000Y-89375000D02*
X132500000Y-90000000D01*
X142801000Y-91901000D02*
X142801000Y-97799000D01*
X132650000Y-85550000D02*
X134750000Y-85550000D01*
X134750000Y-85550000D02*
X135844000Y-86644000D01*
X142950000Y-113100000D02*
X144400000Y-113100000D01*
X133125000Y-88900000D02*
X132050000Y-87825000D01*
X132050000Y-87825000D02*
X132050000Y-86150000D01*
%TO.N,SDMMC_CLK*%
X142500000Y-97150000D02*
X142500000Y-93891479D01*
X141850000Y-97800000D02*
X142500000Y-97150000D01*
X144400000Y-115300000D02*
X142500000Y-115300000D01*
X139708521Y-91100000D02*
X138650000Y-91100000D01*
X142500000Y-93891479D02*
X139708521Y-91100000D01*
X134000000Y-90850000D02*
X134000000Y-89950000D01*
X134000000Y-92325000D02*
X134000000Y-90850000D01*
%TO.N,SDMMC_DAT2*%
X135000000Y-90220000D02*
X135000000Y-92325000D01*
X144400000Y-110900000D02*
X143125838Y-110900000D01*
X136325000Y-88895000D02*
X135000000Y-90220000D01*
X138380784Y-88895000D02*
X139917892Y-90432108D01*
X143125838Y-110900000D02*
X143000000Y-110774162D01*
X136325000Y-88895000D02*
X138380784Y-88895000D01*
%TO.N,SDMMC_DAT1*%
X142050000Y-104800000D02*
X140800000Y-104800000D01*
X142050000Y-104800000D02*
X142050000Y-104450000D01*
X139649000Y-99573076D02*
X139649000Y-101980848D01*
X139649000Y-101980848D02*
X140546159Y-102878007D01*
X140400000Y-118600000D02*
X144400000Y-118600000D01*
X140500000Y-112150000D02*
X138750000Y-113900000D01*
X142050000Y-104450000D02*
X141278554Y-103678554D01*
X140800000Y-104800000D02*
X140350000Y-105250000D01*
X138575924Y-98500000D02*
X139649000Y-99573076D01*
X138750000Y-113900000D02*
X138750000Y-116950000D01*
X137675000Y-98500000D02*
X138575924Y-98500000D01*
X138750000Y-116950000D02*
X140400000Y-118600000D01*
X140500000Y-109400000D02*
X140500000Y-112150000D01*
%TO.N,TIM_CH2*%
X128750000Y-72932900D02*
X128750000Y-66100000D01*
X125320000Y-82625000D02*
X125320000Y-76362900D01*
X125320000Y-76362900D02*
X128750000Y-72932900D01*
X131500000Y-109000000D02*
X129700000Y-110800000D01*
X131500000Y-107675000D02*
X131500000Y-109000000D01*
%TO.N,ADC_CURR*%
X107952000Y-87027640D02*
X109622825Y-85356815D01*
X131250000Y-66100000D02*
X131250000Y-67355140D01*
X111399000Y-98866100D02*
X111399000Y-95216100D01*
X131000000Y-67605140D02*
X131000000Y-71775000D01*
X114300000Y-104250000D02*
X114300000Y-104900000D01*
X120551000Y-105999000D02*
X121550000Y-105000000D01*
X121550000Y-105000000D02*
X122325000Y-105000000D01*
X131250000Y-67355140D02*
X131000000Y-67605140D01*
X120551000Y-106999000D02*
X120551000Y-105999000D01*
X112949000Y-105316214D02*
X112949000Y-100416100D01*
X109622825Y-85356815D02*
X113383858Y-85356815D01*
X111399000Y-95216100D02*
X107952000Y-91769100D01*
X126700000Y-76075000D02*
X126700000Y-79650000D01*
X113896446Y-106203554D02*
X113836340Y-106203554D01*
X113383858Y-85356815D02*
X114577043Y-86550000D01*
X126700000Y-79650000D02*
X126650000Y-79700000D01*
X113836340Y-106203554D02*
X112949000Y-105316214D01*
X113896446Y-106203554D02*
X115142298Y-107449406D01*
X115142298Y-107449406D02*
X120100594Y-107449406D01*
X114577043Y-86550000D02*
X119200000Y-86550000D01*
X107952000Y-91769100D02*
X107952000Y-87027640D01*
X131000000Y-71775000D02*
X126700000Y-76075000D01*
X120100594Y-107449406D02*
X120551000Y-106999000D01*
X114300000Y-104900000D02*
X114750000Y-105350000D01*
X112949000Y-100416100D02*
X111399000Y-98866100D01*
%TO.N,TIM_CH1*%
X128850000Y-111350000D02*
X128832456Y-111332456D01*
X125950000Y-76300000D02*
X130000000Y-72250000D01*
X130500000Y-109132456D02*
X130500000Y-107675000D01*
X125950000Y-81250000D02*
X125950000Y-76300000D01*
X130000000Y-72250000D02*
X130000000Y-66100000D01*
X128832456Y-111332456D02*
X128832456Y-110800000D01*
X128832456Y-110800000D02*
X130500000Y-109132456D01*
%TO.N,TIM_CH3*%
X124650000Y-76465800D02*
X127500000Y-73615800D01*
X127500000Y-73615800D02*
X127500000Y-66100000D01*
X132500000Y-108700000D02*
X132500000Y-107675000D01*
X130878554Y-110321446D02*
X132500000Y-108700000D01*
X124650000Y-84825000D02*
X124650000Y-76465800D01*
X130878554Y-110328554D02*
X130878554Y-110321446D01*
%TO.N,TIM_CH4*%
X126250000Y-74298700D02*
X126250000Y-66100000D01*
X133000000Y-108911000D02*
X133000000Y-107675000D01*
X124050000Y-76498700D02*
X126250000Y-74298700D01*
X132087446Y-109823554D02*
X133000000Y-108911000D01*
X124075000Y-86249000D02*
X124050000Y-86224000D01*
X124050000Y-86224000D02*
X124050000Y-76498700D01*
X132083554Y-109823554D02*
X132087446Y-109823554D01*
%TO.N,I2C1_SCL*%
X120105000Y-77775000D02*
X120365000Y-78035000D01*
X126500000Y-92325000D02*
X126500000Y-91424076D01*
X123541422Y-88850000D02*
X126300000Y-88850000D01*
X125841000Y-90409000D02*
X126650000Y-89600000D01*
X115400000Y-66100000D02*
X115400000Y-77775000D01*
X126650000Y-89600000D02*
X127050000Y-89600000D01*
X118400000Y-77775000D02*
X120105000Y-77775000D01*
X126500000Y-91424076D02*
X125841000Y-90765076D01*
X126300000Y-88850000D02*
X127050000Y-89600000D01*
X125841000Y-90765076D02*
X125841000Y-90409000D01*
X115400000Y-80708578D02*
X123541422Y-88850000D01*
X115400000Y-77775000D02*
X115400000Y-80708578D01*
%TO.N,I2C1_SDA*%
X125440000Y-90940000D02*
X125440000Y-89600000D01*
X118403053Y-78803053D02*
X118400000Y-78800000D01*
X114150000Y-66100000D02*
X114150000Y-78800000D01*
X125450000Y-90950000D02*
X125440000Y-90940000D01*
X123860000Y-89600000D02*
X125440000Y-89600000D01*
X119846947Y-78803053D02*
X118403053Y-78803053D01*
X125458824Y-90950000D02*
X125450000Y-90950000D01*
X119850000Y-78800000D02*
X119846947Y-78803053D01*
X114150000Y-78800000D02*
X114150000Y-79890000D01*
X114150000Y-79890000D02*
X123860000Y-89600000D01*
X126000000Y-91491176D02*
X125458824Y-90950000D01*
X126000000Y-92325000D02*
X126000000Y-91491176D01*
%TO.N,USART1_TX*%
X127538064Y-87246699D02*
X127538064Y-87249000D01*
X127538064Y-87249000D02*
X128000000Y-87710936D01*
X128000000Y-87710936D02*
X128000000Y-92325000D01*
X126642365Y-86351000D02*
X127538064Y-87246699D01*
X126500943Y-86351000D02*
X126642365Y-86351000D01*
X116650000Y-66100000D02*
X116650000Y-81532900D01*
X126498943Y-86349000D02*
X126500943Y-86351000D01*
X122367100Y-87250000D02*
X124950936Y-87250000D01*
X124951936Y-87249000D02*
X125101057Y-87249000D01*
X126001057Y-86349000D02*
X126498943Y-86349000D01*
X116650000Y-81532900D02*
X122367100Y-87250000D01*
X124950936Y-87250000D02*
X124951936Y-87249000D01*
X125101057Y-87249000D02*
X126001057Y-86349000D01*
%TO.N,USART1_RX*%
X127500000Y-92325000D02*
X127500000Y-90727016D01*
X126625621Y-86050000D02*
X126767043Y-86050000D01*
X124976379Y-86948000D02*
X125876379Y-86048000D01*
X122491778Y-86949000D02*
X124826258Y-86949000D01*
X127500000Y-90727016D02*
X127344593Y-90571609D01*
X128600000Y-87882957D02*
X128600000Y-87892050D01*
X117900000Y-66100000D02*
X117900000Y-82357222D01*
X126767043Y-86050000D02*
X128600000Y-87882957D01*
X124826258Y-86949000D02*
X124827258Y-86948000D01*
X125876379Y-86048000D02*
X126623621Y-86048000D01*
X117900000Y-82357222D02*
X122491778Y-86949000D01*
X124827258Y-86948000D02*
X124976379Y-86948000D01*
X126623621Y-86048000D02*
X126625621Y-86050000D01*
%TO.N,USART3_TX*%
X107874321Y-75450000D02*
X110999000Y-78574679D01*
X113564247Y-107005554D02*
X113847090Y-107005554D01*
X110999000Y-78574679D02*
X110999000Y-83098147D01*
X134000000Y-108590919D02*
X133600000Y-108990919D01*
X118725728Y-108051406D02*
X122677322Y-112003000D01*
X110797000Y-95500000D02*
X110797000Y-99115456D01*
X112347000Y-105565570D02*
X113094446Y-106313016D01*
X112347000Y-100665456D02*
X112347000Y-105565570D01*
X113847090Y-107005554D02*
X114892942Y-108051406D01*
X127947644Y-112003000D02*
X127949644Y-112001000D01*
X110999000Y-83098147D02*
X107350000Y-86747147D01*
X110797000Y-99115456D02*
X112347000Y-100665456D01*
X107350000Y-86747147D02*
X107350000Y-92053000D01*
X134000000Y-107675000D02*
X134000000Y-108590919D01*
X114892942Y-108051406D02*
X118725728Y-108051406D01*
X106200000Y-75450000D02*
X107874321Y-75450000D01*
X127949644Y-112001000D02*
X128675644Y-112727000D01*
X113094446Y-106535753D02*
X113564247Y-107005554D01*
X107350000Y-92053000D02*
X110797000Y-95500000D01*
X128675644Y-112727000D02*
X132198000Y-112727000D01*
X132198000Y-112727000D02*
X132300000Y-112625000D01*
X113094446Y-106313016D02*
X113094446Y-106535753D01*
X122677322Y-112003000D02*
X127947644Y-112003000D01*
%TO.N,USART3_RX*%
X115017620Y-107750406D02*
X118850406Y-107750406D01*
X113395446Y-106188338D02*
X113395446Y-106411075D01*
X112648000Y-105440892D02*
X113395446Y-106188338D01*
X123839521Y-111700000D02*
X128074322Y-111700000D01*
X123422479Y-111702000D02*
X123837521Y-111702000D01*
X123837521Y-111702000D02*
X123839521Y-111700000D01*
X113688925Y-106704554D02*
X113971768Y-106704554D01*
X107651000Y-91893778D02*
X111098000Y-95340778D01*
X130804262Y-112426000D02*
X133506262Y-109724000D01*
X122800000Y-111700000D02*
X123420479Y-111700000D01*
X107049999Y-74200000D02*
X111300000Y-78450001D01*
X134176000Y-109724000D02*
X133506262Y-109724000D01*
X134500000Y-107675000D02*
X134500000Y-109400000D01*
X123420479Y-111700000D02*
X123422479Y-111702000D01*
X113395446Y-106411075D02*
X113688925Y-106704554D01*
X106200000Y-74200000D02*
X107049999Y-74200000D01*
X128074322Y-111700000D02*
X128800322Y-112426000D01*
X111098000Y-95340778D02*
X111098000Y-98990778D01*
X112648000Y-100540778D02*
X112648000Y-105440892D01*
X128800322Y-112426000D02*
X130804262Y-112426000D01*
X107651000Y-86902962D02*
X107651000Y-91893778D01*
X111300000Y-78450001D02*
X111300000Y-83253962D01*
X111300000Y-83253962D02*
X107651000Y-86902962D01*
X118850406Y-107750406D02*
X122800000Y-111700000D01*
X111098000Y-98990778D02*
X112648000Y-100540778D01*
X134500000Y-109400000D02*
X134176000Y-109724000D01*
X113971768Y-106704554D02*
X115017620Y-107750406D01*
%TO.N,USART2_RX*%
X120625000Y-108550000D02*
X121400000Y-107775000D01*
X121400000Y-106158276D02*
X121558276Y-106000000D01*
X120550000Y-108550000D02*
X120625000Y-108550000D01*
X119800000Y-110275000D02*
X119800000Y-110974322D01*
X119800000Y-110974322D02*
X119274322Y-111500000D01*
X121400000Y-107775000D02*
X121400000Y-106158276D01*
X119274322Y-111500000D02*
X117062500Y-111500000D01*
X121558276Y-106000000D02*
X122325000Y-106000000D01*
%TO.N,USART2_TX*%
X120893288Y-107450000D02*
X120893288Y-107230352D01*
X120893288Y-107230352D02*
X120952000Y-107171640D01*
X121491176Y-105500000D02*
X122325000Y-105500000D01*
X120952000Y-106039176D02*
X121491176Y-105500000D01*
X111300000Y-111000000D02*
X111275000Y-111025000D01*
X120952000Y-107171640D02*
X120952000Y-106039176D01*
X112837500Y-111000000D02*
X111300000Y-111000000D01*
D79*
%TO.N,Net-(Q1-B)*%
X148975000Y-124400000D02*
X148975000Y-126125000D01*
X148975000Y-126125000D02*
X148350000Y-126750000D01*
D78*
%TO.N,NSRT*%
X118825000Y-100500000D02*
X122325000Y-100500000D01*
X118075000Y-99750000D02*
X118825000Y-100500000D01*
D81*
%TO.N,BOOT0*%
X129660000Y-90390000D02*
X129660000Y-89220000D01*
D79*
X129000000Y-80200000D02*
X127100000Y-82100000D01*
X129660000Y-87950000D02*
X129660000Y-89220000D01*
D81*
X129000000Y-80200000D02*
X129210000Y-80410000D01*
X127000000Y-91075546D02*
X127000000Y-92325000D01*
X129700000Y-90350000D02*
X129660000Y-90390000D01*
D79*
X127100000Y-82100000D02*
X127100000Y-85390000D01*
X127100000Y-85390000D02*
X129660000Y-87950000D01*
D81*
X126511492Y-90587038D02*
X127000000Y-91075546D01*
%TO.N,USB_DM*%
X141325322Y-98800000D02*
X145608578Y-98800000D01*
X147351000Y-97049000D02*
X147600000Y-96800000D01*
X137675000Y-96500000D02*
X139025322Y-96500000D01*
X147351000Y-97057578D02*
X147351000Y-97049000D01*
X139025322Y-96500000D02*
X141325322Y-98800000D01*
X145608578Y-98800000D02*
X147351000Y-97057578D01*
X147600000Y-96800000D02*
X147750000Y-96800000D01*
%TO.N,USB_DP*%
X147400000Y-95200000D02*
X147750000Y-95200000D01*
X137675000Y-96000000D02*
X138951000Y-96000000D01*
X147050000Y-95550000D02*
X147400000Y-95200000D01*
X141450000Y-98499000D02*
X145483900Y-98499000D01*
X145483900Y-98499000D02*
X147050000Y-96932900D01*
X138951000Y-96000000D02*
X141450000Y-98499000D01*
X147050000Y-96932900D02*
X147050000Y-95550000D01*
%TO.N,USB_VBUS*%
X150050000Y-102400000D02*
X149300000Y-103150000D01*
X140651000Y-101251000D02*
X140651000Y-99433900D01*
X149300000Y-103150000D02*
X148500000Y-102350000D01*
X141750000Y-102350000D02*
X140651000Y-101251000D01*
X148500000Y-102350000D02*
X141750000Y-102350000D01*
X138717100Y-97500000D02*
X137675000Y-97500000D01*
X140651000Y-99433900D02*
X138717100Y-97500000D01*
X150850000Y-102400000D02*
X150050000Y-102400000D01*
%TO.N,GPIO_BUZZER*%
X137675000Y-97000000D02*
X138784200Y-97000000D01*
D78*
X147325000Y-123525000D02*
X146975000Y-123175000D01*
D81*
X138784200Y-97000000D02*
X140952000Y-99167800D01*
X140952000Y-99167800D02*
X140952000Y-101126322D01*
D78*
X147325000Y-124400000D02*
X147325000Y-123525000D01*
D81*
X140952000Y-101126322D02*
X141675678Y-101850000D01*
X141675678Y-101850000D02*
X143301000Y-101850000D01*
D78*
X146975000Y-123175000D02*
X146525000Y-123175000D01*
D81*
%TO.N,GPIO_LED*%
X121091479Y-97000000D02*
X122325000Y-97000000D01*
X120199000Y-96107521D02*
X121091479Y-97000000D01*
X120199000Y-93826000D02*
X120199000Y-96107521D01*
X120425000Y-93600000D02*
X120199000Y-93826000D01*
%TO.N,GPIO_SPI_CS*%
X140250000Y-99600000D02*
X138650000Y-98000000D01*
X137949000Y-110651000D02*
X137953400Y-110651000D01*
X137953400Y-110651000D02*
X138226000Y-110378400D01*
X129077000Y-113225000D02*
X132425000Y-113225000D01*
X141150000Y-103100000D02*
X141150000Y-102600000D01*
X141150000Y-102600000D02*
X140250000Y-101700000D01*
X129075000Y-113227000D02*
X129077000Y-113225000D01*
X115960000Y-88930000D02*
X116470000Y-89440000D01*
X139750000Y-110000000D02*
X140000000Y-109750000D01*
X140000000Y-107700000D02*
X139100000Y-106800000D01*
X116470000Y-89440000D02*
X116470000Y-90610000D01*
X138226000Y-110374000D02*
X138600000Y-110000000D01*
X139100000Y-106800000D02*
X139100000Y-105150000D01*
X140000000Y-109750000D02*
X140000000Y-107700000D01*
X113705000Y-89270000D02*
X114604890Y-89270000D01*
X114944890Y-88930000D02*
X115960000Y-88930000D01*
X138650000Y-98000000D02*
X137675000Y-98000000D01*
X133249000Y-112401000D02*
X136199000Y-112401000D01*
X138226000Y-110378400D02*
X138226000Y-110374000D01*
X139100000Y-105150000D02*
X141150000Y-103100000D01*
X132425000Y-113225000D02*
X133249000Y-112401000D01*
X138600000Y-110000000D02*
X139100000Y-110000000D01*
X139100000Y-110000000D02*
X139750000Y-110000000D01*
X140250000Y-101700000D02*
X140250000Y-99600000D01*
X114604890Y-89270000D02*
X114944890Y-88930000D01*
X136199000Y-112401000D02*
X137949000Y-110651000D01*
%TO.N,GPIO_EXTI14*%
X121200000Y-79900000D02*
X122380000Y-79900000D01*
X120865000Y-79565000D02*
X121200000Y-79900000D01*
X119600000Y-95950000D02*
X121150000Y-97500000D01*
X119600000Y-94900000D02*
X119600000Y-95950000D01*
X121150000Y-97500000D02*
X122325000Y-97500000D01*
%TO.N,SPI1_SCK*%
X114070000Y-88770000D02*
X114311000Y-88529000D01*
X125500000Y-109786340D02*
X124085340Y-111201000D01*
X117071000Y-89473900D02*
X117071000Y-91375000D01*
X116126100Y-88529000D02*
X117071000Y-89473900D01*
X114311000Y-88529000D02*
X116126100Y-88529000D01*
X117071000Y-91375000D02*
X115550000Y-92896000D01*
X125500000Y-107675000D02*
X125500000Y-109786340D01*
X113705000Y-88770000D02*
X114070000Y-88770000D01*
X124085340Y-111201000D02*
X123630000Y-111201000D01*
%TO.N,GPIO_EXTI4*%
X124418240Y-110301000D02*
X123553190Y-110301000D01*
X125000000Y-107675000D02*
X125000000Y-109719240D01*
X112000566Y-94966310D02*
X112394135Y-94966310D01*
X111458815Y-85958815D02*
X109872181Y-85958815D01*
X112040000Y-87605000D02*
X112040000Y-86540000D01*
X109872181Y-85958815D02*
X108554000Y-87276996D01*
X108554000Y-87276996D02*
X108554000Y-91519744D01*
X125000000Y-109719240D02*
X124418240Y-110301000D01*
X112040000Y-86540000D02*
X111458815Y-85958815D01*
X108554000Y-91519744D02*
X112000566Y-94966310D01*
X123553190Y-110301000D02*
X122856178Y-110998012D01*
%TO.N,SPI1_MISO*%
X126000000Y-110134870D02*
X125662435Y-110472435D01*
X116336300Y-87605000D02*
X113540000Y-87605000D01*
X126000000Y-107675000D02*
X126000000Y-110134870D01*
X117873000Y-89141700D02*
X116336300Y-87605000D01*
X115797438Y-94134398D02*
X116246784Y-94134398D01*
X117873000Y-92508182D02*
X117873000Y-89141700D01*
X116246784Y-94134398D02*
X117873000Y-92508182D01*
%TO.N,SPI1_MOSI*%
X125912378Y-111072435D02*
X125131059Y-111072435D01*
X126500000Y-110484813D02*
X125912378Y-111072435D01*
X117472000Y-91898297D02*
X117472000Y-89307800D01*
X114002900Y-88270000D02*
X113705000Y-88270000D01*
X126500000Y-107675000D02*
X126500000Y-110484813D01*
X116292200Y-88128000D02*
X114144900Y-88128000D01*
X115970000Y-93400297D02*
X117472000Y-91898297D01*
X114144900Y-88128000D02*
X114002900Y-88270000D01*
X117472000Y-89307800D02*
X116292200Y-88128000D01*
X115970000Y-93456001D02*
X115970000Y-93400297D01*
X125131059Y-111072435D02*
X125096747Y-111038123D01*
D80*
%TO.N,SHIELD*%
X151716164Y-91800000D02*
X152320000Y-91800000D01*
X146559372Y-93575000D02*
X145449000Y-92464628D01*
X145449000Y-91635372D02*
X146334372Y-90750000D01*
X145449000Y-92464628D02*
X145449000Y-91635372D01*
X150666164Y-90750000D02*
X151716164Y-91800000D01*
X146334372Y-90750000D02*
X150666164Y-90750000D01*
X147700000Y-93575000D02*
X146559372Y-93575000D01*
D78*
%TO.N,+3.3V*%
X107650000Y-80450000D02*
X107650000Y-79300000D01*
X139100000Y-108100000D02*
X138150000Y-107150000D01*
D81*
X112030000Y-89945000D02*
X112040000Y-89935000D01*
D78*
X119000000Y-116300000D02*
X117850000Y-116300000D01*
X116312500Y-122850000D02*
X116562500Y-122600000D01*
X122600000Y-109850000D02*
X123950000Y-109850000D01*
D81*
X116450000Y-101400000D02*
X115350000Y-101400000D01*
D78*
X119775000Y-103100000D02*
X119775000Y-102007860D01*
X116375000Y-116250000D02*
X116375000Y-114400000D01*
D81*
X115881000Y-91994110D02*
X115881000Y-90771000D01*
D78*
X138225000Y-92500000D02*
X138225000Y-93450000D01*
D79*
X130925000Y-76000000D02*
X132750000Y-76000000D01*
D81*
X112030000Y-92120000D02*
X112030000Y-91370000D01*
D78*
X120175000Y-103500000D02*
X119775000Y-103100000D01*
X138225000Y-93450000D02*
X137675000Y-94000000D01*
X123950000Y-109850000D02*
X124500000Y-109300000D01*
X113375000Y-108700000D02*
X113375000Y-107949093D01*
X126250000Y-87950000D02*
X125440000Y-87950000D01*
X136325000Y-87245000D02*
X133130000Y-87245000D01*
D81*
X140950000Y-106150000D02*
X141250000Y-106450000D01*
D78*
X142050000Y-109700000D02*
X141732864Y-109700000D01*
X116950000Y-121000000D02*
X118505000Y-119445000D01*
D81*
X120600000Y-124175000D02*
X119850000Y-124925000D01*
D78*
X120900000Y-103500000D02*
X120175000Y-103500000D01*
D81*
X122715000Y-80565000D02*
X122980000Y-80300000D01*
D78*
X122500000Y-91800000D02*
X123475000Y-91800000D01*
X121700000Y-109850000D02*
X121400000Y-109550000D01*
X137650000Y-91275000D02*
X138225000Y-91850000D01*
D81*
X119880000Y-80050000D02*
X120365000Y-79565000D01*
D78*
X144400000Y-114200000D02*
X142000000Y-114200000D01*
D81*
X115321768Y-92345000D02*
X115530110Y-92345000D01*
D80*
X138387013Y-80938058D02*
X138387013Y-74638058D01*
D78*
X113375000Y-107949093D02*
X112875453Y-107449546D01*
X141250000Y-113450000D02*
X140332786Y-113450000D01*
X116700000Y-121000000D02*
X116700000Y-119650000D01*
X119775000Y-102900000D02*
X119775000Y-103100000D01*
X113162500Y-122950000D02*
X113962500Y-123750000D01*
D81*
X141250000Y-106450000D02*
X142050000Y-106450000D01*
X121450000Y-80955000D02*
X122325000Y-80955000D01*
X125450000Y-120675000D02*
X125450000Y-120025000D01*
D78*
X121300000Y-96500000D02*
X120700000Y-95900000D01*
X119775000Y-102007860D02*
X119418140Y-101651000D01*
D80*
X137800000Y-72000000D02*
X135700000Y-72000000D01*
D81*
X122715000Y-80565000D02*
X122880000Y-80565000D01*
D78*
X117800000Y-116250000D02*
X117850000Y-116300000D01*
D81*
X119880000Y-80955000D02*
X119880000Y-80050000D01*
X115530110Y-92345000D02*
X115881000Y-91994110D01*
D78*
X122325000Y-99000000D02*
X120400000Y-99000000D01*
D80*
X138387013Y-72587013D02*
X137800000Y-72000000D01*
D78*
X127050000Y-87950000D02*
X126250000Y-87950000D01*
X122600000Y-109850000D02*
X121700000Y-109850000D01*
D81*
X120865000Y-78035000D02*
X121115000Y-78035000D01*
D78*
X113225000Y-122550000D02*
X113125000Y-122650000D01*
D81*
X112505000Y-92595000D02*
X113010000Y-93100000D01*
D79*
X129000000Y-76000000D02*
X130925000Y-76000000D01*
D81*
X112505000Y-92595000D02*
X112030000Y-92120000D01*
D79*
X133500000Y-76000000D02*
X135700000Y-73800000D01*
D81*
X125400000Y-121950000D02*
X125400000Y-123125000D01*
D78*
X116700000Y-122462500D02*
X116700000Y-121000000D01*
D79*
X138400000Y-85600000D02*
X138400000Y-80951045D01*
D78*
X116312500Y-122850000D02*
X116700000Y-122462500D01*
X116795822Y-99750000D02*
X116425000Y-99750000D01*
D81*
X119850000Y-124925000D02*
X119850000Y-126100000D01*
D78*
X119550000Y-98150000D02*
X118700000Y-98150000D01*
D81*
X110305000Y-88270000D02*
X111875000Y-88270000D01*
X122980000Y-79100000D02*
X122180000Y-78300000D01*
X116387500Y-116262500D02*
X116375000Y-116250000D01*
D78*
X116375000Y-116250000D02*
X117800000Y-116250000D01*
X120400000Y-99000000D02*
X119550000Y-98150000D01*
D81*
X121450000Y-80955000D02*
X119880000Y-80955000D01*
D78*
X137150000Y-91275000D02*
X137650000Y-91275000D01*
X118395822Y-98150000D02*
X116795822Y-99750000D01*
X113375000Y-108700000D02*
X113378406Y-108703406D01*
D81*
X112925000Y-114175000D02*
X113375000Y-113725000D01*
D79*
X130925000Y-76000000D02*
X130925000Y-74700000D01*
D78*
X113225000Y-122537500D02*
X113162500Y-122600000D01*
X122325000Y-96500000D02*
X121300000Y-96500000D01*
X113962500Y-123750000D02*
X115412500Y-123750000D01*
X139100000Y-108350000D02*
X139100000Y-108100000D01*
X115412500Y-123750000D02*
X116312500Y-122850000D01*
X116375000Y-114400000D02*
X116400000Y-114375000D01*
X139050000Y-108400000D02*
X139100000Y-108350000D01*
X137500000Y-108400000D02*
X137500000Y-108100000D01*
X133125000Y-86375000D02*
X132828554Y-86078554D01*
D81*
X124680000Y-121445000D02*
X125450000Y-120675000D01*
D78*
X113378406Y-108703406D02*
X116103406Y-108703406D01*
X106200000Y-72950000D02*
X108100000Y-72950000D01*
X116700000Y-121000000D02*
X116950000Y-121000000D01*
D81*
X122325000Y-80955000D02*
X122715000Y-80565000D01*
D78*
X108750000Y-105950000D02*
X108750000Y-105875000D01*
D81*
X123795000Y-121445000D02*
X124680000Y-121445000D01*
D78*
X117062500Y-109662500D02*
X117062500Y-110500000D01*
X116375000Y-116250000D02*
X116400000Y-116225000D01*
D81*
X112030000Y-91370000D02*
X112030000Y-89945000D01*
D78*
X138225000Y-91850000D02*
X138225000Y-92500000D01*
X113225000Y-119625000D02*
X113225000Y-120750000D01*
D81*
X118905000Y-119445000D02*
X118905000Y-118945000D01*
D78*
X119150000Y-66100000D02*
X119150000Y-68000000D01*
X119600000Y-116900000D02*
X119000000Y-116300000D01*
D80*
X138387013Y-74638058D02*
X138387013Y-72587013D01*
D81*
X109955000Y-87920000D02*
X110305000Y-88270000D01*
D78*
X125450000Y-120025000D02*
X125450000Y-118625000D01*
X113162500Y-122600000D02*
X113162500Y-122950000D01*
D81*
X115881000Y-90771000D02*
X115105000Y-89995000D01*
D78*
X122500000Y-91800000D02*
X121300000Y-91800000D01*
X108750000Y-104525000D02*
X108750000Y-105875000D01*
D81*
X122980000Y-80300000D02*
X122980000Y-79100000D01*
D78*
X116103406Y-108703406D02*
X117062500Y-109662500D01*
X106800000Y-80450000D02*
X107650000Y-80450000D01*
X116425000Y-99750000D02*
X116425000Y-101375000D01*
D81*
X120600000Y-122640000D02*
X120600000Y-124175000D01*
D78*
X107650000Y-80450000D02*
X108500000Y-80450000D01*
X140332786Y-113450000D02*
X140016393Y-113766393D01*
D79*
X135700000Y-73800000D02*
X135700000Y-72000000D01*
D78*
X123475000Y-91800000D02*
X124000000Y-92325000D01*
D81*
X112925000Y-114900000D02*
X112925000Y-114175000D01*
D78*
X141732864Y-109700000D02*
X140499999Y-108467135D01*
X118700000Y-98150000D02*
X118395822Y-98150000D01*
D81*
X125400000Y-121950000D02*
X123800000Y-121950000D01*
D78*
X122325000Y-104000000D02*
X121400000Y-104000000D01*
X119600000Y-117750000D02*
X119600000Y-116900000D01*
X137500000Y-108400000D02*
X139050000Y-108400000D01*
X126250000Y-87950000D02*
X126250000Y-86950000D01*
D79*
X132750000Y-76000000D02*
X133500000Y-76000000D01*
D80*
X137100000Y-70600000D02*
X137100000Y-69400000D01*
D81*
X109955000Y-87145000D02*
X110450000Y-86650000D01*
X121115000Y-78035000D02*
X121380000Y-78300000D01*
D78*
X137125000Y-91250000D02*
X137150000Y-91275000D01*
X118505000Y-119445000D02*
X118905000Y-119445000D01*
D81*
X119600000Y-117750000D02*
X120100000Y-117750000D01*
D78*
X133130000Y-87245000D02*
X133125000Y-87250000D01*
X124500000Y-109300000D02*
X124500000Y-107675000D01*
X108750000Y-107075000D02*
X108750000Y-105950000D01*
X137075000Y-107675000D02*
X136000000Y-107675000D01*
X137500000Y-108100000D02*
X137075000Y-107675000D01*
X113225000Y-120750000D02*
X113225000Y-122537500D01*
D81*
X123800000Y-121950000D02*
X123795000Y-121945000D01*
X122180000Y-78300000D02*
X121380000Y-78300000D01*
D78*
X116425000Y-101375000D02*
X116450000Y-101400000D01*
X122325000Y-103500000D02*
X120900000Y-103500000D01*
X133125000Y-87250000D02*
X133125000Y-86375000D01*
D81*
X109955000Y-87920000D02*
X109955000Y-87145000D01*
D78*
X142000000Y-114200000D02*
X141250000Y-113450000D01*
D79*
X138400000Y-80951045D02*
X138387013Y-80938058D01*
D81*
X114566768Y-93100000D02*
X115321768Y-92345000D01*
D78*
X121400000Y-104000000D02*
X120900000Y-103500000D01*
D81*
X113010000Y-93100000D02*
X114566768Y-93100000D01*
D80*
X135700000Y-72000000D02*
X137100000Y-70600000D01*
%TO.N,Net-(U1-BOOT)*%
X146273000Y-80175000D02*
X146995000Y-80175000D01*
X145350000Y-79252000D02*
X146273000Y-80175000D01*
X145350000Y-78300000D02*
X145350000Y-79252000D01*
%TO.N,Net-(U1-PH)*%
X143550000Y-76225000D02*
X144075000Y-76750000D01*
X144075000Y-76750000D02*
X145350000Y-76750000D01*
X145350000Y-76750000D02*
X145350000Y-75698000D01*
X153550000Y-74225000D02*
X153550000Y-72975000D01*
X143550000Y-75225000D02*
X143550000Y-76225000D01*
X145350000Y-75698000D02*
X146273000Y-74775000D01*
X146273000Y-74775000D02*
X146995000Y-74775000D01*
X153550000Y-72975000D02*
X151800000Y-71225000D01*
D78*
%TO.N,Net-(C22-Pad2)*%
X135000000Y-107675000D02*
X135000000Y-109600000D01*
X135000000Y-109600000D02*
X133850000Y-110750000D01*
%TO.N,Net-(C23-Pad2)*%
X140750000Y-95650000D02*
X140750000Y-96000000D01*
D81*
X140750000Y-95850057D02*
X140750000Y-96000000D01*
X139600000Y-94850000D02*
X140750000Y-96000000D01*
X138700057Y-95000000D02*
X138850057Y-94850000D01*
X138850057Y-94850000D02*
X139600000Y-94850000D01*
X137675000Y-95000000D02*
X138700057Y-95000000D01*
D78*
%TO.N,Net-(D5-K)*%
X152850000Y-123850000D02*
X152850000Y-125550000D01*
X153250000Y-125950000D02*
X153950000Y-125950000D01*
X152850000Y-125550000D02*
X153250000Y-125950000D01*
D81*
%TO.N,Net-(J3-D--PadA7)*%
X149670000Y-97070000D02*
X149400000Y-96800000D01*
X149470000Y-96870000D02*
X149400000Y-96800000D01*
X151405000Y-96870000D02*
X149470000Y-96870000D01*
X150379000Y-96821000D02*
X150428000Y-96870000D01*
X150428000Y-96870000D02*
X151405000Y-96870000D01*
X151405000Y-95870000D02*
X150428000Y-95870000D01*
X150379000Y-95919000D02*
X150379000Y-96821000D01*
X150428000Y-95870000D02*
X150379000Y-95919000D01*
%TO.N,Net-(J3-D+-PadA6)*%
X152382000Y-96370000D02*
X151405000Y-96370000D01*
X151405000Y-95370000D02*
X149570000Y-95370000D01*
X149570000Y-95370000D02*
X149400000Y-95200000D01*
X152431000Y-96321000D02*
X152382000Y-96370000D01*
X152431000Y-95419000D02*
X152431000Y-96321000D01*
X152382000Y-95370000D02*
X152431000Y-95419000D01*
X151405000Y-95370000D02*
X152382000Y-95370000D01*
D78*
%TO.N,Net-(J3-CC1)*%
X150330000Y-97370000D02*
X149300000Y-98400000D01*
X151405000Y-97370000D02*
X150330000Y-97370000D01*
%TO.N,Net-(J3-CC2)*%
X149300000Y-93650000D02*
X150020000Y-94370000D01*
X150020000Y-94370000D02*
X151405000Y-94370000D01*
D79*
%TO.N,Net-(U1-ENA)*%
X153550000Y-79926196D02*
X151801000Y-78177196D01*
X151801000Y-78177196D02*
X151801000Y-75771000D01*
X153550000Y-80175000D02*
X153550000Y-79926196D01*
X151801000Y-75771000D02*
X150805000Y-74775000D01*
D82*
%TO.N,Net-(U1-VSENSE)*%
X150805000Y-80175000D02*
X150805000Y-80680000D01*
X150805000Y-80680000D02*
X153550000Y-83425000D01*
D79*
X153500000Y-84100000D02*
X151850000Y-84100000D01*
X153550000Y-83425000D02*
X153550000Y-84050000D01*
X153550000Y-84050000D02*
X153500000Y-84100000D01*
D81*
%TO.N,TIM3_CH2*%
X128500000Y-92325000D02*
X128500000Y-90882106D01*
%TO.N,TIM3_CH4*%
X128500000Y-107675000D02*
X128500000Y-109898062D01*
X128500000Y-109898062D02*
X127572095Y-110825967D01*
%TO.N,TIM3_CH3*%
X128000000Y-109690955D02*
X126871549Y-110819406D01*
X128000000Y-107675000D02*
X128000000Y-109690955D01*
%TO.N,TIM3_CH1*%
X129000000Y-92325000D02*
X129000000Y-90675000D01*
X129000000Y-90675000D02*
X128500000Y-90175000D01*
%TO.N,UART4_TX*%
X133000000Y-92325000D02*
X133000000Y-90744192D01*
%TO.N,UART4_RX*%
X133500000Y-90439771D02*
X133500000Y-92325000D01*
X133147252Y-90059855D02*
X133147252Y-90087023D01*
X133147252Y-90087023D02*
X133500000Y-90439771D01*
D78*
%TO.N,ESP32_EN*%
X118900000Y-121450000D02*
X118905000Y-121445000D01*
X106000000Y-107900000D02*
X106025000Y-107900000D01*
X106000000Y-107900000D02*
X106825000Y-108725000D01*
X117350000Y-122200000D02*
X118105000Y-121445000D01*
X108750000Y-109700000D02*
X108000000Y-110450000D01*
X117350000Y-122700000D02*
X117350000Y-122200000D01*
X107625000Y-110400000D02*
X107675000Y-110450000D01*
X108750000Y-108725000D02*
X108750000Y-109700000D01*
X108000000Y-110450000D02*
X107675000Y-110450000D01*
X107625000Y-110350000D02*
X107750000Y-110475000D01*
X106825000Y-108725000D02*
X108750000Y-108725000D01*
X118105000Y-121445000D02*
X118905000Y-121445000D01*
%TO.N,ESP32_LNA_IN*%
X118900000Y-118450000D02*
X118905000Y-118445000D01*
X113950000Y-118450000D02*
X118900000Y-118450000D01*
X113955000Y-118445000D02*
X113950000Y-118450000D01*
X118905000Y-118445000D02*
X117945000Y-118445000D01*
%TO.N,XTAL_P*%
X120600000Y-117750000D02*
X120600000Y-116375000D01*
X118450000Y-114850000D02*
X118000000Y-115300000D01*
X120600000Y-116375000D02*
X120025000Y-115800000D01*
X120025000Y-115800000D02*
X118500000Y-115800000D01*
X120100000Y-114850000D02*
X118450000Y-114850000D01*
X118500000Y-115800000D02*
X118000000Y-115300000D01*
%TO.N,XTAL_N*%
X122300000Y-113150000D02*
X123900000Y-113150000D01*
X123900000Y-113150000D02*
X124200000Y-113450000D01*
X124654400Y-115700000D02*
X121650000Y-115700000D01*
X124926000Y-115428400D02*
X124654400Y-115700000D01*
X124200000Y-113450000D02*
X124926000Y-114176000D01*
X124926000Y-114176000D02*
X124926000Y-115428400D01*
X121650000Y-115700000D02*
X121100000Y-116250000D01*
X121100000Y-116250000D02*
X121100000Y-117750000D01*
%TO.N,Net-(D4-A)*%
X114687500Y-124700000D02*
X113212500Y-124700000D01*
X113212500Y-124700000D02*
X113187500Y-124725000D01*
D81*
%TO.N,Net-(D7-A)*%
X112900000Y-116500000D02*
X112875000Y-116500000D01*
X112875000Y-116500000D02*
X111275000Y-114900000D01*
%TO.N,ESP32_PROG_RX*%
X112046000Y-105690248D02*
X112793446Y-106437694D01*
X112793446Y-106437694D02*
X112793446Y-106660431D01*
X109400000Y-97150000D02*
X110496000Y-98246000D01*
X113439569Y-107306554D02*
X113722412Y-107306554D01*
X102900000Y-93990000D02*
X106060000Y-97150000D01*
X113722412Y-107306554D02*
X114768264Y-108352406D01*
X120300000Y-110051356D02*
X120300000Y-110900000D01*
X106060000Y-97150000D02*
X109400000Y-97150000D01*
X118601050Y-108352406D02*
X120300000Y-110051356D01*
X120300000Y-110900000D02*
X119200000Y-112000000D01*
X112046000Y-100790134D02*
X112046000Y-105690248D01*
X112793446Y-106660431D02*
X113439569Y-107306554D01*
X110496000Y-98246000D02*
X110496000Y-99240134D01*
X110496000Y-99240134D02*
X112046000Y-100790134D01*
X119200000Y-112000000D02*
X117062500Y-112000000D01*
X114768264Y-108352406D02*
X118601050Y-108352406D01*
%TO.N,ESP32_PROG_TX*%
X105935322Y-97451000D02*
X107851000Y-97451000D01*
X109095490Y-98695490D02*
X109100000Y-98695490D01*
X105014322Y-96530000D02*
X105935322Y-97451000D01*
X111444000Y-106705322D02*
X110550000Y-107599322D01*
X110550000Y-111008521D02*
X111067479Y-111526000D01*
X111444000Y-101039490D02*
X111444000Y-106705322D01*
X112811500Y-111526000D02*
X112837500Y-111500000D01*
X107851000Y-97451000D02*
X109095490Y-98695490D01*
X110550000Y-107599322D02*
X110550000Y-111008521D01*
X111067479Y-111526000D02*
X112811500Y-111526000D01*
X109100000Y-98695490D02*
X111444000Y-101039490D01*
X102900000Y-96530000D02*
X105014322Y-96530000D01*
D78*
%TO.N,ESP32_BOOT*%
X106825000Y-102875000D02*
X108750000Y-102875000D01*
X106000000Y-103700000D02*
X106825000Y-102875000D01*
D81*
%TO.N,USB_UART_3V3*%
X104101000Y-94765322D02*
X105535678Y-96200000D01*
X105535678Y-96200000D02*
X106650000Y-96200000D01*
X104101000Y-92651000D02*
X104101000Y-94765322D01*
X102900000Y-91450000D02*
X104101000Y-92651000D01*
%TO.N,Net-(U7-S)*%
X109994446Y-99164258D02*
X111745000Y-100914812D01*
X110851000Y-109776000D02*
X111575000Y-110500000D01*
X112825000Y-110487500D02*
X112837500Y-110500000D01*
X108300000Y-96200000D02*
X109157106Y-96200000D01*
X110851000Y-107724000D02*
X110851000Y-109776000D01*
X108250000Y-96200000D02*
X108300000Y-96200000D01*
X109994446Y-98451554D02*
X109994446Y-99164258D01*
X111745000Y-100914812D02*
X111745000Y-106830000D01*
X106650000Y-94600000D02*
X108250000Y-96200000D01*
X111745000Y-106830000D02*
X110851000Y-107724000D01*
X109157106Y-96200000D02*
X110297000Y-97339894D01*
X111575000Y-110500000D02*
X112837500Y-110500000D01*
%TO.N,ESP32_STATUS_LED*%
X118450000Y-124700000D02*
X120100000Y-123050000D01*
X116350000Y-124712500D02*
X116337500Y-124700000D01*
X120100000Y-123050000D02*
X120100000Y-122640000D01*
X116337500Y-124700000D02*
X118450000Y-124700000D01*
D78*
%TO.N,ESP32_TX*%
X117062500Y-112500000D02*
X118650000Y-112500000D01*
D81*
X121600000Y-117750000D02*
X121600000Y-116527818D01*
X121600000Y-116527818D02*
X121863909Y-116263909D01*
%TO.N,ESP32_RX*%
X122100000Y-117100000D02*
X122550000Y-116650000D01*
X122100000Y-117750000D02*
X122100000Y-117100000D01*
D78*
X110575000Y-112520768D02*
X110575000Y-113525000D01*
X111095768Y-112000000D02*
X110575000Y-112520768D01*
X112837500Y-112000000D02*
X111095768Y-112000000D01*
D83*
%TO.N,Net-(J8-In)*%
X107940000Y-118450000D02*
X107940000Y-118410000D01*
X107940000Y-118450000D02*
X104335000Y-118450000D01*
X104325000Y-118535000D02*
X104325000Y-118460000D01*
X104335000Y-118450000D02*
X104325000Y-118460000D01*
%TO.N,Net-(C38-Pad1)*%
X109950000Y-118450000D02*
X108900000Y-118450000D01*
X110980000Y-118450000D02*
X109950000Y-118450000D01*
%TO.N,Net-(C43-Pad1)*%
X112990000Y-118450000D02*
X111950000Y-118450000D01*
%TD*%
%TA.AperFunction,Conductor*%
%TO.N,SHIELD*%
G36*
X159496132Y-90553368D02*
G01*
X159499500Y-90561500D01*
X159499500Y-101437903D01*
X159496132Y-101446035D01*
X159488000Y-101449403D01*
X159487939Y-101449403D01*
X151311439Y-101405911D01*
X151303325Y-101402499D01*
X151300000Y-101394411D01*
X151300000Y-100987713D01*
X151303368Y-100979581D01*
X151311500Y-100976213D01*
X151319632Y-100979581D01*
X151323779Y-100983728D01*
X151438423Y-101060330D01*
X151565819Y-101113099D01*
X151701058Y-101140000D01*
X152069999Y-101140000D01*
X152070000Y-101139999D01*
X152070000Y-100740000D01*
X152570000Y-100740000D01*
X152570000Y-101139999D01*
X152570001Y-101140000D01*
X152938942Y-101140000D01*
X153074178Y-101113099D01*
X153074181Y-101113099D01*
X153201576Y-101060330D01*
X153316220Y-100983728D01*
X153413728Y-100886220D01*
X153490330Y-100771576D01*
X153524121Y-100690000D01*
X153036988Y-100690000D01*
X153054205Y-100680060D01*
X153110060Y-100624205D01*
X153149556Y-100555796D01*
X153170000Y-100479496D01*
X153170000Y-100400504D01*
X153149556Y-100324204D01*
X153110060Y-100255795D01*
X153054205Y-100199940D01*
X153036988Y-100190000D01*
X153524120Y-100190000D01*
X155545879Y-100190000D01*
X156033012Y-100190000D01*
X156015795Y-100199940D01*
X155959940Y-100255795D01*
X155920444Y-100324204D01*
X155900000Y-100400504D01*
X155900000Y-100479496D01*
X155920444Y-100555796D01*
X155959940Y-100624205D01*
X156015795Y-100680060D01*
X156033012Y-100690000D01*
X155545879Y-100690000D01*
X155579669Y-100771576D01*
X155656271Y-100886220D01*
X155753779Y-100983728D01*
X155868423Y-101060330D01*
X155995819Y-101113099D01*
X156131058Y-101140000D01*
X156249999Y-101140000D01*
X156250000Y-101139999D01*
X156250000Y-100740000D01*
X156750000Y-100740000D01*
X156750000Y-101139999D01*
X156750001Y-101140000D01*
X156868942Y-101140000D01*
X157004178Y-101113099D01*
X157004181Y-101113099D01*
X157131576Y-101060330D01*
X157246220Y-100983728D01*
X157343728Y-100886220D01*
X157420330Y-100771576D01*
X157454121Y-100690000D01*
X156966988Y-100690000D01*
X156984205Y-100680060D01*
X157040060Y-100624205D01*
X157079556Y-100555796D01*
X157100000Y-100479496D01*
X157100000Y-100400504D01*
X157079556Y-100324204D01*
X157040060Y-100255795D01*
X156984205Y-100199940D01*
X156966988Y-100190000D01*
X157454120Y-100190000D01*
X157420330Y-100108423D01*
X157343728Y-99993779D01*
X157246220Y-99896271D01*
X157131576Y-99819669D01*
X157004180Y-99766900D01*
X156868942Y-99740000D01*
X156750001Y-99740000D01*
X156750000Y-99740001D01*
X156750000Y-100140000D01*
X156250000Y-100140000D01*
X156250000Y-99740001D01*
X156249999Y-99740000D01*
X156131058Y-99740000D01*
X155995821Y-99766900D01*
X155995818Y-99766900D01*
X155868423Y-99819669D01*
X155753779Y-99896271D01*
X155656271Y-99993779D01*
X155579669Y-100108423D01*
X155545879Y-100190000D01*
X153524120Y-100190000D01*
X153490330Y-100108423D01*
X153413728Y-99993779D01*
X153316220Y-99896271D01*
X153201576Y-99819669D01*
X153074180Y-99766900D01*
X152938942Y-99740000D01*
X152570001Y-99740000D01*
X152570000Y-99740001D01*
X152570000Y-100140000D01*
X152070000Y-100140000D01*
X152070000Y-99781999D01*
X152073368Y-99773867D01*
X152081499Y-99770499D01*
X152139898Y-99770499D01*
X152169213Y-99764669D01*
X152202457Y-99742457D01*
X152224669Y-99709213D01*
X152230500Y-99679899D01*
X152230499Y-99060102D01*
X152224669Y-99030787D01*
X152202457Y-98997543D01*
X152202455Y-98997541D01*
X152175545Y-98979562D01*
X152170655Y-98972244D01*
X152172372Y-98963611D01*
X152175545Y-98960438D01*
X152202457Y-98942457D01*
X152224669Y-98909213D01*
X152230500Y-98879899D01*
X152230500Y-98832000D01*
X152233868Y-98823868D01*
X152242000Y-98820500D01*
X152289988Y-98820500D01*
X152298120Y-98823868D01*
X152301488Y-98832000D01*
X152301096Y-98834976D01*
X152274500Y-98934234D01*
X152274500Y-99085765D01*
X152312638Y-99228103D01*
X152313719Y-99232135D01*
X152389485Y-99363365D01*
X152496635Y-99470515D01*
X152627865Y-99546281D01*
X152774234Y-99585500D01*
X152925766Y-99585500D01*
X153072135Y-99546281D01*
X153203365Y-99470515D01*
X153310515Y-99363365D01*
X153386281Y-99232135D01*
X153425500Y-99085766D01*
X153425500Y-98934234D01*
X153386281Y-98787865D01*
X153310515Y-98656635D01*
X153203365Y-98549485D01*
X153203364Y-98549484D01*
X153072139Y-98473721D01*
X153072137Y-98473720D01*
X153072135Y-98473719D01*
X153072131Y-98473718D01*
X153072129Y-98473717D01*
X152925766Y-98434500D01*
X152780804Y-98434500D01*
X152772672Y-98431132D01*
X152769304Y-98423000D01*
X152772672Y-98414868D01*
X152956755Y-98230785D01*
X153172895Y-98014645D01*
X153172897Y-98014645D01*
X153243364Y-97944178D01*
X153259160Y-97906041D01*
X153281501Y-97852108D01*
X153281501Y-97752453D01*
X153281501Y-97751533D01*
X153281500Y-97751519D01*
X153281500Y-96249882D01*
X153284868Y-96241750D01*
X153293000Y-96238382D01*
X153668533Y-96238382D01*
X153676665Y-96241750D01*
X153678490Y-96244129D01*
X153679520Y-96245913D01*
X153754087Y-96320480D01*
X153845413Y-96373207D01*
X153947273Y-96400500D01*
X154052727Y-96400500D01*
X154154587Y-96373207D01*
X154245913Y-96320480D01*
X154320480Y-96245913D01*
X154373207Y-96154587D01*
X154400500Y-96052727D01*
X154400500Y-95947273D01*
X154373207Y-95845413D01*
X154320480Y-95754087D01*
X154245913Y-95679520D01*
X154245912Y-95679519D01*
X154154591Y-95626795D01*
X154154589Y-95626794D01*
X154154587Y-95626793D01*
X154154583Y-95626792D01*
X154154581Y-95626791D01*
X154052727Y-95599500D01*
X153947273Y-95599500D01*
X153845418Y-95626791D01*
X153845408Y-95626795D01*
X153754087Y-95679519D01*
X153699593Y-95734014D01*
X153691461Y-95737382D01*
X153293000Y-95737382D01*
X153284868Y-95734014D01*
X153281500Y-95725882D01*
X153281500Y-94488890D01*
X153281501Y-94488881D01*
X153281501Y-94387893D01*
X153243364Y-94295823D01*
X153243364Y-94295822D01*
X153172897Y-94225355D01*
X153172895Y-94225354D01*
X152772673Y-93825132D01*
X152769305Y-93817000D01*
X152772673Y-93808868D01*
X152780805Y-93805500D01*
X152925766Y-93805500D01*
X153072135Y-93766281D01*
X153203365Y-93690515D01*
X153310515Y-93583365D01*
X153386281Y-93452135D01*
X153425500Y-93305766D01*
X153425500Y-93154234D01*
X153386281Y-93007865D01*
X153310515Y-92876635D01*
X153203365Y-92769485D01*
X153203364Y-92769484D01*
X153072139Y-92693721D01*
X153072137Y-92693720D01*
X153072135Y-92693719D01*
X153072131Y-92693718D01*
X153072129Y-92693717D01*
X152925766Y-92654500D01*
X152774234Y-92654500D01*
X152627870Y-92693717D01*
X152627860Y-92693721D01*
X152496635Y-92769484D01*
X152389484Y-92876635D01*
X152313721Y-93007860D01*
X152313717Y-93007870D01*
X152293757Y-93082364D01*
X152274500Y-93154234D01*
X152274500Y-93305766D01*
X152281205Y-93330790D01*
X152301096Y-93405024D01*
X152299947Y-93413750D01*
X152292964Y-93419108D01*
X152289988Y-93419500D01*
X152241999Y-93419500D01*
X152233867Y-93416132D01*
X152230499Y-93408000D01*
X152230499Y-93360102D01*
X152230499Y-93360101D01*
X152224669Y-93330787D01*
X152202457Y-93297543D01*
X152202455Y-93297541D01*
X152175545Y-93279562D01*
X152170655Y-93272244D01*
X152172372Y-93263611D01*
X152175545Y-93260438D01*
X152202457Y-93242457D01*
X152224669Y-93209213D01*
X152230500Y-93179899D01*
X152230499Y-92560102D01*
X152224669Y-92530787D01*
X152202457Y-92497543D01*
X152202455Y-92497541D01*
X152169214Y-92475332D01*
X152169215Y-92475332D01*
X152169213Y-92475331D01*
X152169211Y-92475330D01*
X152169210Y-92475330D01*
X152154454Y-92472395D01*
X152139899Y-92469500D01*
X152139897Y-92469500D01*
X152081500Y-92469500D01*
X152073368Y-92466132D01*
X152070000Y-92458000D01*
X152070000Y-92100000D01*
X152570000Y-92100000D01*
X152570000Y-92499999D01*
X152570001Y-92500000D01*
X152938942Y-92500000D01*
X153074178Y-92473099D01*
X153074181Y-92473099D01*
X153201576Y-92420330D01*
X153316220Y-92343728D01*
X153413728Y-92246220D01*
X153490330Y-92131576D01*
X153524121Y-92050000D01*
X153036988Y-92050000D01*
X153054205Y-92040060D01*
X153110060Y-91984205D01*
X153149556Y-91915796D01*
X153170000Y-91839496D01*
X153170000Y-91760504D01*
X153149556Y-91684204D01*
X153110060Y-91615795D01*
X153054205Y-91559940D01*
X153036988Y-91550000D01*
X153524120Y-91550000D01*
X155545879Y-91550000D01*
X156033012Y-91550000D01*
X156015795Y-91559940D01*
X155959940Y-91615795D01*
X155920444Y-91684204D01*
X155900000Y-91760504D01*
X155900000Y-91839496D01*
X155920444Y-91915796D01*
X155959940Y-91984205D01*
X156015795Y-92040060D01*
X156033012Y-92050000D01*
X155545879Y-92050000D01*
X155579669Y-92131576D01*
X155656271Y-92246220D01*
X155753779Y-92343728D01*
X155868423Y-92420330D01*
X155995819Y-92473099D01*
X156131058Y-92500000D01*
X156249999Y-92500000D01*
X156250000Y-92499999D01*
X156250000Y-92100000D01*
X156750000Y-92100000D01*
X156750000Y-92499999D01*
X156750001Y-92500000D01*
X156868942Y-92500000D01*
X157004178Y-92473099D01*
X157004181Y-92473099D01*
X157131576Y-92420330D01*
X157246220Y-92343728D01*
X157343728Y-92246220D01*
X157420330Y-92131576D01*
X157454121Y-92050000D01*
X156966988Y-92050000D01*
X156984205Y-92040060D01*
X157040060Y-91984205D01*
X157079556Y-91915796D01*
X157100000Y-91839496D01*
X157100000Y-91760504D01*
X157079556Y-91684204D01*
X157040060Y-91615795D01*
X156984205Y-91559940D01*
X156966988Y-91550000D01*
X157454120Y-91550000D01*
X157420330Y-91468423D01*
X157343728Y-91353779D01*
X157246220Y-91256271D01*
X157131576Y-91179669D01*
X157004180Y-91126900D01*
X156868942Y-91100000D01*
X156750001Y-91100000D01*
X156750000Y-91100001D01*
X156750000Y-91500000D01*
X156250000Y-91500000D01*
X156250000Y-91100001D01*
X156249999Y-91100000D01*
X156131058Y-91100000D01*
X155995821Y-91126900D01*
X155995818Y-91126900D01*
X155868423Y-91179669D01*
X155753779Y-91256271D01*
X155656271Y-91353779D01*
X155579669Y-91468423D01*
X155545879Y-91550000D01*
X153524120Y-91550000D01*
X153495908Y-91481890D01*
X153495908Y-91473088D01*
X153502132Y-91466864D01*
X153509508Y-91466381D01*
X153547273Y-91476500D01*
X153652727Y-91476500D01*
X153754587Y-91449207D01*
X153845913Y-91396480D01*
X153920480Y-91321913D01*
X153973207Y-91230587D01*
X154000500Y-91128727D01*
X154000500Y-91023273D01*
X153973207Y-90921413D01*
X153920480Y-90830087D01*
X153845913Y-90755520D01*
X153845912Y-90755519D01*
X153754591Y-90702795D01*
X153754589Y-90702794D01*
X153754587Y-90702793D01*
X153754583Y-90702792D01*
X153754581Y-90702791D01*
X153740834Y-90699108D01*
X153733851Y-90693750D01*
X153732702Y-90685024D01*
X153738060Y-90678041D01*
X153743810Y-90676500D01*
X156119230Y-90676500D01*
X156119246Y-90676501D01*
X156119943Y-90676501D01*
X156278057Y-90676501D01*
X156430785Y-90635577D01*
X156480904Y-90606639D01*
X156567716Y-90556520D01*
X156570868Y-90553368D01*
X156579000Y-90550000D01*
X159488000Y-90550000D01*
X159496132Y-90553368D01*
G37*
%TD.AperFunction*%
%TA.AperFunction,Conductor*%
G36*
X151319631Y-90554231D02*
G01*
X151834295Y-91068895D01*
X151834296Y-91068897D01*
X151845768Y-91080369D01*
X151849136Y-91088500D01*
X151845768Y-91096632D01*
X151837636Y-91100000D01*
X151701058Y-91100000D01*
X151565821Y-91126900D01*
X151565818Y-91126900D01*
X151438423Y-91179669D01*
X151323778Y-91256272D01*
X151319631Y-91260419D01*
X151311499Y-91263786D01*
X151303367Y-91260417D01*
X151300000Y-91252286D01*
X151300000Y-90562364D01*
X151303368Y-90554232D01*
X151311500Y-90550864D01*
X151319631Y-90554231D01*
G37*
%TD.AperFunction*%
%TD*%
%TA.AperFunction,Conductor*%
%TO.N,+BATT*%
G36*
X155000251Y-60500510D02*
G01*
X155391671Y-60517600D01*
X155392629Y-60517684D01*
X155780850Y-60568794D01*
X155781818Y-60568966D01*
X156164071Y-60653709D01*
X156165016Y-60653962D01*
X156538438Y-60771701D01*
X156539381Y-60772044D01*
X156901112Y-60921877D01*
X156902017Y-60922300D01*
X157249306Y-61103088D01*
X157250175Y-61103590D01*
X157366742Y-61177851D01*
X157580384Y-61313955D01*
X157581196Y-61314523D01*
X157822301Y-61499530D01*
X157891828Y-61552880D01*
X157892596Y-61553525D01*
X158181256Y-61818033D01*
X158181966Y-61818743D01*
X158446474Y-62107403D01*
X158447119Y-62108171D01*
X158685472Y-62418798D01*
X158686047Y-62419620D01*
X158896409Y-62749824D01*
X158896911Y-62750693D01*
X159077699Y-63097982D01*
X159078123Y-63098891D01*
X159227955Y-63460618D01*
X159228298Y-63461561D01*
X159346034Y-63834972D01*
X159346293Y-63835941D01*
X159431031Y-64218171D01*
X159431206Y-64219159D01*
X159482313Y-64607349D01*
X159482400Y-64608348D01*
X159499489Y-64999748D01*
X159499500Y-65000250D01*
X159499500Y-85013922D01*
X159496132Y-85022054D01*
X159488000Y-85025422D01*
X159479868Y-85022054D01*
X159407313Y-84949499D01*
X159293190Y-84883610D01*
X159293188Y-84883609D01*
X159293186Y-84883608D01*
X159293182Y-84883607D01*
X159293180Y-84883606D01*
X159165892Y-84849500D01*
X159034108Y-84849500D01*
X158906819Y-84883606D01*
X158906809Y-84883610D01*
X158881957Y-84897959D01*
X158876207Y-84899500D01*
X158812000Y-84899500D01*
X158803868Y-84896132D01*
X158800500Y-84888000D01*
X158800500Y-84766528D01*
X158803868Y-84758396D01*
X158808198Y-84755675D01*
X158887882Y-84727793D01*
X158997150Y-84647150D01*
X159077793Y-84537882D01*
X159122646Y-84409699D01*
X159125500Y-84379266D01*
X159125500Y-82970734D01*
X159122646Y-82940301D01*
X159077793Y-82812118D01*
X158997150Y-82702850D01*
X158928730Y-82652354D01*
X158887884Y-82622208D01*
X158887883Y-82622207D01*
X158808202Y-82594325D01*
X158801639Y-82588460D01*
X158800500Y-82583470D01*
X158800500Y-82249033D01*
X158803868Y-82240901D01*
X158808202Y-82238178D01*
X158837882Y-82227793D01*
X158947150Y-82147150D01*
X159027793Y-82037882D01*
X159072646Y-81909699D01*
X159075500Y-81879266D01*
X159075500Y-80470734D01*
X159072646Y-80440301D01*
X159027793Y-80312118D01*
X158947150Y-80202850D01*
X158892516Y-80162528D01*
X158837884Y-80122208D01*
X158837883Y-80122207D01*
X158808202Y-80111821D01*
X158801639Y-80105955D01*
X158800500Y-80100966D01*
X158800500Y-79849033D01*
X158803868Y-79840901D01*
X158808202Y-79838178D01*
X158837882Y-79827793D01*
X158947150Y-79747150D01*
X159027793Y-79637882D01*
X159072646Y-79509699D01*
X159075500Y-79479266D01*
X159075500Y-78070734D01*
X159072646Y-78040301D01*
X159055252Y-77990593D01*
X159027792Y-77912116D01*
X159027791Y-77912115D01*
X159009658Y-77887546D01*
X158947150Y-77802850D01*
X158843661Y-77726472D01*
X158837884Y-77722208D01*
X158837883Y-77722207D01*
X158709702Y-77677354D01*
X158679271Y-77674500D01*
X158679266Y-77674500D01*
X157920734Y-77674500D01*
X157920728Y-77674500D01*
X157890297Y-77677354D01*
X157762116Y-77722207D01*
X157762115Y-77722208D01*
X157652851Y-77802849D01*
X157652849Y-77802851D01*
X157572208Y-77912115D01*
X157572207Y-77912116D01*
X157527354Y-78040297D01*
X157524500Y-78070728D01*
X157524500Y-79479271D01*
X157527354Y-79509702D01*
X157572207Y-79637883D01*
X157572208Y-79637884D01*
X157652850Y-79747150D01*
X157709283Y-79788799D01*
X157762115Y-79827791D01*
X157762116Y-79827792D01*
X157762117Y-79827792D01*
X157762118Y-79827793D01*
X157824722Y-79849699D01*
X157890301Y-79872646D01*
X157890443Y-79872677D01*
X157890497Y-79872714D01*
X157890961Y-79872877D01*
X157890916Y-79873005D01*
X157897674Y-79877696D01*
X157899500Y-79883914D01*
X157899500Y-80066085D01*
X157896132Y-80074217D01*
X157890937Y-80077056D01*
X157890961Y-80077123D01*
X157890559Y-80077263D01*
X157890456Y-80077320D01*
X157890301Y-80077353D01*
X157762116Y-80122207D01*
X157762115Y-80122208D01*
X157652851Y-80202849D01*
X157652849Y-80202851D01*
X157572208Y-80312115D01*
X157572207Y-80312116D01*
X157527354Y-80440297D01*
X157524500Y-80470728D01*
X157524500Y-81879271D01*
X157527354Y-81909702D01*
X157572207Y-82037883D01*
X157572208Y-82037884D01*
X157652850Y-82147150D01*
X157737546Y-82209658D01*
X157762115Y-82227791D01*
X157762116Y-82227792D01*
X157762117Y-82227792D01*
X157762118Y-82227793D01*
X157791797Y-82238178D01*
X157890301Y-82272646D01*
X157890443Y-82272677D01*
X157890497Y-82272714D01*
X157890961Y-82272877D01*
X157890916Y-82273005D01*
X157897674Y-82277696D01*
X157899500Y-82283914D01*
X157899500Y-82583470D01*
X157896132Y-82591602D01*
X157891798Y-82594325D01*
X157812116Y-82622207D01*
X157812115Y-82622208D01*
X157702851Y-82702849D01*
X157702849Y-82702851D01*
X157622208Y-82812115D01*
X157622207Y-82812116D01*
X157577354Y-82940297D01*
X157574500Y-82970728D01*
X157574500Y-84379271D01*
X157577354Y-84409702D01*
X157622207Y-84537883D01*
X157622208Y-84537884D01*
X157631519Y-84550500D01*
X157702850Y-84647150D01*
X157812118Y-84727793D01*
X157891799Y-84755674D01*
X157898361Y-84761538D01*
X157899500Y-84766528D01*
X157899500Y-84975449D01*
X157896132Y-84983581D01*
X157888000Y-84986949D01*
X157886201Y-84986807D01*
X157808490Y-84974500D01*
X157808488Y-84974500D01*
X157291512Y-84974500D01*
X157291510Y-84974500D01*
X157191880Y-84990279D01*
X157191877Y-84990280D01*
X157191875Y-84990280D01*
X157191874Y-84990281D01*
X157154924Y-85009108D01*
X157071779Y-85051472D01*
X156976472Y-85146779D01*
X156964606Y-85170068D01*
X156915281Y-85266874D01*
X156915280Y-85266875D01*
X156915280Y-85266877D01*
X156915279Y-85266880D01*
X156899500Y-85366509D01*
X156899500Y-85933490D01*
X156915279Y-86033119D01*
X156915280Y-86033122D01*
X156915281Y-86033126D01*
X156976472Y-86153220D01*
X157071780Y-86248528D01*
X157191874Y-86309719D01*
X157191879Y-86309719D01*
X157191880Y-86309720D01*
X157291510Y-86325500D01*
X157291512Y-86325500D01*
X157808490Y-86325500D01*
X157882668Y-86313751D01*
X157908126Y-86309719D01*
X158028220Y-86248528D01*
X158123528Y-86153220D01*
X158154562Y-86092310D01*
X158161253Y-86086596D01*
X158161801Y-86086433D01*
X158203341Y-86075304D01*
X158223887Y-86069799D01*
X158326614Y-86010489D01*
X158533235Y-85803868D01*
X158541367Y-85800500D01*
X158876207Y-85800500D01*
X158881957Y-85802041D01*
X158906814Y-85816392D01*
X159034108Y-85850500D01*
X159165892Y-85850500D01*
X159293186Y-85816392D01*
X159407314Y-85750500D01*
X159479868Y-85677946D01*
X159488000Y-85674578D01*
X159496132Y-85677946D01*
X159499500Y-85686078D01*
X159499500Y-89532156D01*
X159496132Y-89540288D01*
X159488068Y-89543656D01*
X159022693Y-89546395D01*
X159014541Y-89543074D01*
X159011125Y-89534963D01*
X159014446Y-89526811D01*
X159015793Y-89525644D01*
X159122150Y-89447150D01*
X159202793Y-89337882D01*
X159247646Y-89209699D01*
X159250500Y-89179266D01*
X159250500Y-87770734D01*
X159247646Y-87740301D01*
X159202793Y-87612118D01*
X159122150Y-87502850D01*
X159031170Y-87435704D01*
X159012884Y-87422208D01*
X159012883Y-87422207D01*
X158884702Y-87377354D01*
X158854271Y-87374500D01*
X158854266Y-87374500D01*
X156745734Y-87374500D01*
X156745728Y-87374500D01*
X156715297Y-87377354D01*
X156587116Y-87422207D01*
X156587115Y-87422208D01*
X156477851Y-87502849D01*
X156477849Y-87502851D01*
X156397208Y-87612115D01*
X156397207Y-87612116D01*
X156352354Y-87740297D01*
X156349500Y-87770728D01*
X156349500Y-88930079D01*
X156346132Y-88938211D01*
X155912211Y-89372132D01*
X155904079Y-89375500D01*
X155197810Y-89375500D01*
X155189678Y-89372132D01*
X155186310Y-89364000D01*
X155188557Y-89357171D01*
X155202793Y-89337882D01*
X155247646Y-89209699D01*
X155250500Y-89179266D01*
X155250500Y-87770734D01*
X155247646Y-87740301D01*
X155202793Y-87612118D01*
X155122150Y-87502850D01*
X155031170Y-87435704D01*
X155012884Y-87422208D01*
X155012883Y-87422207D01*
X154884702Y-87377354D01*
X154854271Y-87374500D01*
X154854266Y-87374500D01*
X152745734Y-87374500D01*
X152745728Y-87374500D01*
X152715297Y-87377354D01*
X152587117Y-87422207D01*
X152568829Y-87435704D01*
X152560286Y-87437822D01*
X152552747Y-87433280D01*
X152550500Y-87426451D01*
X152550500Y-86362000D01*
X152553868Y-86353868D01*
X152562000Y-86350500D01*
X156068991Y-86350500D01*
X156068993Y-86350500D01*
X156193565Y-86325721D01*
X156195809Y-86325500D01*
X156258490Y-86325500D01*
X156332668Y-86313751D01*
X156358126Y-86309719D01*
X156478220Y-86248528D01*
X156573528Y-86153220D01*
X156634719Y-86033126D01*
X156650500Y-85933488D01*
X156650500Y-85912336D01*
X156651375Y-85907935D01*
X156651962Y-85906518D01*
X156673580Y-85854328D01*
X156700500Y-85718993D01*
X156700500Y-84206007D01*
X156673580Y-84070672D01*
X156668676Y-84058833D01*
X156620775Y-83943189D01*
X156544114Y-83828457D01*
X156178868Y-83463211D01*
X156175500Y-83455079D01*
X156175500Y-82970742D01*
X156175500Y-82970734D01*
X156172646Y-82940301D01*
X156127793Y-82812118D01*
X156102747Y-82778181D01*
X156100500Y-82771352D01*
X156100500Y-81974942D01*
X156101145Y-81971144D01*
X156122645Y-81909701D01*
X156122646Y-81909699D01*
X156125500Y-81879266D01*
X156125500Y-80470734D01*
X156122646Y-80440301D01*
X156101310Y-80379327D01*
X156101145Y-80378854D01*
X156100500Y-80375056D01*
X156100500Y-79574942D01*
X156101145Y-79571144D01*
X156101149Y-79571132D01*
X156122646Y-79509699D01*
X156125500Y-79479266D01*
X156125500Y-78070734D01*
X156122646Y-78040301D01*
X156101145Y-77978854D01*
X156100500Y-77975056D01*
X156100500Y-77169921D01*
X156103868Y-77161789D01*
X156979868Y-76285789D01*
X156988000Y-76282421D01*
X156996132Y-76285789D01*
X156999500Y-76293921D01*
X156999500Y-76879271D01*
X157002354Y-76909702D01*
X157047207Y-77037883D01*
X157047208Y-77037884D01*
X157127850Y-77147150D01*
X157152249Y-77165157D01*
X157237115Y-77227791D01*
X157237116Y-77227792D01*
X157237117Y-77227792D01*
X157237118Y-77227793D01*
X157292095Y-77247030D01*
X157365297Y-77272645D01*
X157365298Y-77272645D01*
X157365301Y-77272646D01*
X157395734Y-77275500D01*
X157395742Y-77275500D01*
X158704258Y-77275500D01*
X158704266Y-77275500D01*
X158734699Y-77272646D01*
X158862882Y-77227793D01*
X158972150Y-77147150D01*
X159052793Y-77037882D01*
X159097646Y-76909699D01*
X159100500Y-76879266D01*
X159100500Y-71570734D01*
X159097646Y-71540301D01*
X159052793Y-71412118D01*
X158972150Y-71302850D01*
X158917516Y-71262528D01*
X158862884Y-71222208D01*
X158862883Y-71222207D01*
X158734702Y-71177354D01*
X158704271Y-71174500D01*
X158704266Y-71174500D01*
X157395734Y-71174500D01*
X157395728Y-71174500D01*
X157365297Y-71177354D01*
X157237116Y-71222207D01*
X157237115Y-71222208D01*
X157127851Y-71302849D01*
X157127849Y-71302851D01*
X157047208Y-71412115D01*
X157047207Y-71412116D01*
X157002354Y-71540297D01*
X156999500Y-71570728D01*
X156999500Y-74280079D01*
X156996132Y-74288211D01*
X154855883Y-76428460D01*
X154779226Y-76543186D01*
X154726419Y-76670672D01*
X154726418Y-76670677D01*
X154706839Y-76769113D01*
X154706839Y-76769114D01*
X154699500Y-76806008D01*
X154699500Y-77803604D01*
X154697253Y-77810433D01*
X154622207Y-77912118D01*
X154577354Y-78040297D01*
X154574500Y-78070728D01*
X154574500Y-79479271D01*
X154577354Y-79509702D01*
X154622207Y-79637883D01*
X154622208Y-79637884D01*
X154647350Y-79671950D01*
X154695771Y-79737558D01*
X154697253Y-79739565D01*
X154699500Y-79746394D01*
X154699500Y-80203604D01*
X154697253Y-80210433D01*
X154622207Y-80312118D01*
X154577354Y-80440297D01*
X154574500Y-80470728D01*
X154574500Y-81879271D01*
X154577354Y-81909702D01*
X154622207Y-82037883D01*
X154622208Y-82037884D01*
X154691576Y-82131874D01*
X154697253Y-82139565D01*
X154699500Y-82146394D01*
X154699500Y-82771352D01*
X154697253Y-82778181D01*
X154672207Y-82812118D01*
X154627354Y-82940297D01*
X154624500Y-82970728D01*
X154624500Y-84379271D01*
X154627354Y-84409702D01*
X154672207Y-84537883D01*
X154672208Y-84537884D01*
X154681519Y-84550500D01*
X154752850Y-84647150D01*
X154805011Y-84685646D01*
X154862115Y-84727791D01*
X154862116Y-84727792D01*
X154862117Y-84727792D01*
X154862118Y-84727793D01*
X154917095Y-84747030D01*
X154990297Y-84772645D01*
X154990298Y-84772645D01*
X154990301Y-84772646D01*
X155020734Y-84775500D01*
X155288000Y-84775500D01*
X155296132Y-84778868D01*
X155299500Y-84787000D01*
X155299500Y-84938000D01*
X155296132Y-84946132D01*
X155288000Y-84949500D01*
X151881007Y-84949500D01*
X151865580Y-84952568D01*
X151772590Y-84971064D01*
X151772591Y-84971065D01*
X151745671Y-84976419D01*
X151744770Y-84976792D01*
X151744771Y-84976793D01*
X151618186Y-85029226D01*
X151506151Y-85104087D01*
X151503460Y-85105884D01*
X151441388Y-85167954D01*
X151438477Y-85170068D01*
X151336660Y-85221947D01*
X151246950Y-85311657D01*
X151246326Y-85312882D01*
X151189354Y-85424696D01*
X151189353Y-85424697D01*
X151189353Y-85424699D01*
X151189352Y-85424702D01*
X151174500Y-85518478D01*
X151174500Y-85554191D01*
X151174279Y-85556434D01*
X151172279Y-85566489D01*
X151167389Y-85573808D01*
X151158757Y-85575525D01*
X151151438Y-85570635D01*
X151149500Y-85564246D01*
X151149500Y-82299926D01*
X151144119Y-82272877D01*
X151136524Y-82234693D01*
X151135151Y-82227792D01*
X151122581Y-82164595D01*
X151122580Y-82164590D01*
X151115043Y-82146394D01*
X151069775Y-82037107D01*
X150993114Y-81922375D01*
X150436584Y-81365845D01*
X150436580Y-81365842D01*
X150321854Y-81289185D01*
X150194367Y-81236378D01*
X150112873Y-81220168D01*
X150059035Y-81209459D01*
X150059034Y-81209459D01*
X147968994Y-81209459D01*
X147968993Y-81209459D01*
X144621048Y-81209459D01*
X144605621Y-81212527D01*
X144512631Y-81231023D01*
X144512632Y-81231024D01*
X144485715Y-81236378D01*
X144485712Y-81236378D01*
X144460192Y-81246950D01*
X144358227Y-81289185D01*
X144287181Y-81336658D01*
X144243501Y-81365843D01*
X142875153Y-82734190D01*
X142867021Y-82737558D01*
X141271140Y-82737558D01*
X141263008Y-82734190D01*
X141259640Y-82726058D01*
X141260031Y-82723086D01*
X141262513Y-82713824D01*
X141262513Y-82562291D01*
X141262513Y-82110608D01*
X141265881Y-82102476D01*
X141269609Y-82099984D01*
X141352246Y-82065756D01*
X141472464Y-81973509D01*
X141564711Y-81853291D01*
X141622700Y-81713294D01*
X141637513Y-81600778D01*
X141637513Y-80275338D01*
X141622700Y-80162822D01*
X141564711Y-80022825D01*
X141472464Y-79902607D01*
X141352246Y-79810360D01*
X141212249Y-79752371D01*
X141212251Y-79752371D01*
X141099734Y-79737558D01*
X141099733Y-79737558D01*
X141018360Y-79737558D01*
X141010228Y-79734190D01*
X141006860Y-79726058D01*
X141006860Y-79726036D01*
X141007465Y-79407298D01*
X141009699Y-78231007D01*
X144649500Y-78231007D01*
X144649500Y-79183006D01*
X144649500Y-79320994D01*
X144653294Y-79340065D01*
X144676419Y-79456324D01*
X144676419Y-79456327D01*
X144729226Y-79583813D01*
X144796732Y-79684843D01*
X144805886Y-79698543D01*
X145826457Y-80719114D01*
X145893890Y-80764171D01*
X145941189Y-80795775D01*
X146068672Y-80848580D01*
X146204007Y-80875500D01*
X146483001Y-80875500D01*
X146491133Y-80878868D01*
X146494501Y-80887000D01*
X146494501Y-80942702D01*
X146507874Y-81009937D01*
X146507875Y-81009938D01*
X146558817Y-81086179D01*
X146558819Y-81086181D01*
X146635063Y-81137126D01*
X146702297Y-81150500D01*
X147287702Y-81150499D01*
X147354937Y-81137126D01*
X147431181Y-81086181D01*
X147482126Y-81009937D01*
X147495500Y-80942703D01*
X147495499Y-80669918D01*
X147498866Y-80661788D01*
X147539114Y-80621542D01*
X147615775Y-80506811D01*
X147668580Y-80379328D01*
X147695500Y-80243993D01*
X147695500Y-80106007D01*
X147668580Y-79970672D01*
X147615775Y-79843189D01*
X147539114Y-79728458D01*
X147498867Y-79688211D01*
X147495499Y-79680079D01*
X147495499Y-79407298D01*
X147764500Y-79407298D01*
X147764500Y-80942701D01*
X147770997Y-80975362D01*
X147777874Y-81009937D01*
X147777875Y-81009938D01*
X147828817Y-81086179D01*
X147828819Y-81086181D01*
X147905063Y-81137126D01*
X147972297Y-81150500D01*
X148557702Y-81150499D01*
X148624937Y-81137126D01*
X148701181Y-81086181D01*
X148752126Y-81009937D01*
X148765500Y-80942703D01*
X148765499Y-79407298D01*
X149034500Y-79407298D01*
X149034500Y-80942701D01*
X149040997Y-80975362D01*
X149047874Y-81009937D01*
X149047875Y-81009938D01*
X149098817Y-81086179D01*
X149098819Y-81086181D01*
X149175063Y-81137126D01*
X149242297Y-81150500D01*
X149827702Y-81150499D01*
X149894937Y-81137126D01*
X149971181Y-81086181D01*
X150022126Y-81009937D01*
X150035500Y-80942703D01*
X150035499Y-79407298D01*
X150022126Y-79340063D01*
X149971181Y-79263819D01*
X149971179Y-79263817D01*
X149894938Y-79212875D01*
X149894939Y-79212875D01*
X149894937Y-79212874D01*
X149894935Y-79212873D01*
X149894934Y-79212873D01*
X149861090Y-79206141D01*
X149827703Y-79199500D01*
X149827701Y-79199500D01*
X149242298Y-79199500D01*
X149175066Y-79212873D01*
X149175061Y-79212875D01*
X149098820Y-79263817D01*
X149098817Y-79263820D01*
X149047875Y-79340061D01*
X149047873Y-79340065D01*
X149034500Y-79407298D01*
X148765499Y-79407298D01*
X148752126Y-79340063D01*
X148701181Y-79263819D01*
X148701179Y-79263817D01*
X148624938Y-79212875D01*
X148624939Y-79212875D01*
X148624937Y-79212874D01*
X148624935Y-79212873D01*
X148624934Y-79212873D01*
X148591090Y-79206141D01*
X148557703Y-79199500D01*
X148557701Y-79199500D01*
X147972298Y-79199500D01*
X147905066Y-79212873D01*
X147905061Y-79212875D01*
X147828820Y-79263817D01*
X147828817Y-79263820D01*
X147777875Y-79340061D01*
X147777873Y-79340065D01*
X147764500Y-79407298D01*
X147495499Y-79407298D01*
X147491060Y-79384982D01*
X147482126Y-79340063D01*
X147431181Y-79263819D01*
X147431179Y-79263817D01*
X147354938Y-79212875D01*
X147354939Y-79212875D01*
X147354937Y-79212874D01*
X147354935Y-79212873D01*
X147354934Y-79212873D01*
X147321090Y-79206141D01*
X147287703Y-79199500D01*
X147287701Y-79199500D01*
X146702298Y-79199500D01*
X146635066Y-79212873D01*
X146635061Y-79212875D01*
X146558820Y-79263817D01*
X146558817Y-79263820D01*
X146507874Y-79340063D01*
X146507873Y-79340064D01*
X146498938Y-79384982D01*
X146494048Y-79392300D01*
X146485415Y-79394017D01*
X146479527Y-79390870D01*
X146053868Y-78965211D01*
X146050500Y-78957079D01*
X146050500Y-78231008D01*
X146025721Y-78106435D01*
X146025500Y-78104191D01*
X146025500Y-78041509D01*
X146009720Y-77941880D01*
X146009719Y-77941877D01*
X146009719Y-77941874D01*
X145948528Y-77821780D01*
X145853220Y-77726472D01*
X145733126Y-77665281D01*
X145733123Y-77665280D01*
X145733122Y-77665280D01*
X145733119Y-77665279D01*
X145633490Y-77649500D01*
X145633488Y-77649500D01*
X145612337Y-77649500D01*
X145607936Y-77648625D01*
X145554326Y-77626419D01*
X145472831Y-77610209D01*
X145418993Y-77599500D01*
X145281007Y-77599500D01*
X145213800Y-77612868D01*
X145145675Y-77626419D01*
X145145672Y-77626419D01*
X145092064Y-77648625D01*
X145087663Y-77649500D01*
X145066510Y-77649500D01*
X144966880Y-77665279D01*
X144966877Y-77665280D01*
X144966875Y-77665280D01*
X144966874Y-77665281D01*
X144905725Y-77696437D01*
X144846779Y-77726472D01*
X144751472Y-77821779D01*
X144721437Y-77880725D01*
X144690281Y-77941874D01*
X144690280Y-77941875D01*
X144690280Y-77941877D01*
X144690279Y-77941880D01*
X144674500Y-78041509D01*
X144674500Y-78104191D01*
X144674278Y-78106435D01*
X144649500Y-78231007D01*
X141009699Y-78231007D01*
X141012987Y-76500000D01*
X140257742Y-75673515D01*
X140254744Y-75665241D01*
X140258098Y-75657629D01*
X140342485Y-75573243D01*
X140430491Y-75427664D01*
X140481099Y-75265254D01*
X140487513Y-75194674D01*
X140487513Y-75156008D01*
X142849500Y-75156008D01*
X142849500Y-76293992D01*
X142876419Y-76429324D01*
X142876419Y-76429327D01*
X142929226Y-76556813D01*
X142958416Y-76600499D01*
X143005886Y-76671543D01*
X143628457Y-77294114D01*
X143743189Y-77370775D01*
X143870672Y-77423580D01*
X144006007Y-77450500D01*
X144006009Y-77450500D01*
X145418991Y-77450500D01*
X145418993Y-77450500D01*
X145554328Y-77423580D01*
X145607936Y-77401375D01*
X145612337Y-77400500D01*
X145633490Y-77400500D01*
X145707668Y-77388751D01*
X145733126Y-77384719D01*
X145853220Y-77323528D01*
X145948528Y-77228220D01*
X146009719Y-77108126D01*
X146020844Y-77037884D01*
X146025500Y-77008490D01*
X146025500Y-76945807D01*
X146025721Y-76943563D01*
X146050500Y-76818993D01*
X146050500Y-75992920D01*
X146053867Y-75984789D01*
X146058404Y-75980252D01*
X146249500Y-75980252D01*
X146249500Y-78969748D01*
X146261133Y-79028231D01*
X146261134Y-79028232D01*
X146305446Y-79094550D01*
X146305448Y-79094552D01*
X146371769Y-79138867D01*
X146430252Y-79150500D01*
X146430254Y-79150500D01*
X151369746Y-79150500D01*
X151369748Y-79150500D01*
X151428231Y-79138867D01*
X151494552Y-79094552D01*
X151538867Y-79028231D01*
X151550500Y-78969748D01*
X151550500Y-78591563D01*
X151553868Y-78583431D01*
X151562000Y-78580063D01*
X151570132Y-78583431D01*
X152166569Y-79179868D01*
X152169937Y-79188000D01*
X152166569Y-79196132D01*
X152158437Y-79199500D01*
X152124234Y-79199500D01*
X151977870Y-79238717D01*
X151977860Y-79238721D01*
X151846635Y-79314484D01*
X151739484Y-79421635D01*
X151663721Y-79552860D01*
X151663717Y-79552870D01*
X151628356Y-79684843D01*
X151624500Y-79699234D01*
X151624500Y-80349234D01*
X151624500Y-80500766D01*
X151631075Y-80525304D01*
X151663717Y-80647129D01*
X151663721Y-80647139D01*
X151726189Y-80755336D01*
X151727338Y-80764062D01*
X151721980Y-80771045D01*
X151713254Y-80772194D01*
X151708098Y-80769218D01*
X151383868Y-80444988D01*
X151380500Y-80436856D01*
X151380500Y-80099234D01*
X151371618Y-80066085D01*
X151341281Y-79952865D01*
X151307040Y-79893558D01*
X151305499Y-79887808D01*
X151305499Y-79407298D01*
X151301060Y-79384982D01*
X151292126Y-79340063D01*
X151241181Y-79263819D01*
X151241179Y-79263817D01*
X151164938Y-79212875D01*
X151164939Y-79212875D01*
X151164937Y-79212874D01*
X151164935Y-79212873D01*
X151164934Y-79212873D01*
X151131090Y-79206141D01*
X151097703Y-79199500D01*
X151097701Y-79199500D01*
X150512298Y-79199500D01*
X150445066Y-79212873D01*
X150445061Y-79212875D01*
X150368820Y-79263817D01*
X150368817Y-79263820D01*
X150317875Y-79340061D01*
X150317873Y-79340065D01*
X150304500Y-79407298D01*
X150304500Y-79887809D01*
X150302959Y-79893559D01*
X150268721Y-79952860D01*
X150268717Y-79952870D01*
X150235387Y-80077263D01*
X150229500Y-80099234D01*
X150229500Y-80604234D01*
X150229500Y-80755766D01*
X150235555Y-80778365D01*
X150268717Y-80902129D01*
X150268721Y-80902139D01*
X150310047Y-80973717D01*
X150311367Y-80977223D01*
X150317874Y-81009937D01*
X150317875Y-81009938D01*
X150368817Y-81086179D01*
X150368819Y-81086181D01*
X150445063Y-81137126D01*
X150445613Y-81137235D01*
X150451502Y-81140382D01*
X152871132Y-83560011D01*
X152874500Y-83568143D01*
X152874501Y-83638000D01*
X152871133Y-83646132D01*
X152863001Y-83649500D01*
X152445656Y-83649500D01*
X152437524Y-83646132D01*
X152363342Y-83571950D01*
X152355870Y-83568143D01*
X152250304Y-83514354D01*
X152250301Y-83514353D01*
X152250300Y-83514353D01*
X152250297Y-83514352D01*
X152156521Y-83499500D01*
X151543479Y-83499500D01*
X151449702Y-83514352D01*
X151449699Y-83514353D01*
X151449697Y-83514353D01*
X151449696Y-83514354D01*
X151402527Y-83538388D01*
X151336657Y-83571950D01*
X151246950Y-83661657D01*
X151218680Y-83717140D01*
X151189354Y-83774696D01*
X151189353Y-83774697D01*
X151189353Y-83774699D01*
X151189352Y-83774702D01*
X151174500Y-83868478D01*
X151174500Y-84331520D01*
X151189352Y-84425297D01*
X151189353Y-84425300D01*
X151189354Y-84425304D01*
X151246950Y-84538342D01*
X151336658Y-84628050D01*
X151449696Y-84685646D01*
X151543481Y-84700500D01*
X152156518Y-84700499D01*
X152156520Y-84700499D01*
X152226353Y-84689439D01*
X152250304Y-84685646D01*
X152363342Y-84628050D01*
X152437524Y-84553868D01*
X152445656Y-84550500D01*
X153559309Y-84550500D01*
X153660992Y-84523254D01*
X153673887Y-84519799D01*
X153776614Y-84460489D01*
X153910490Y-84326614D01*
X153969799Y-84223887D01*
X153976930Y-84197273D01*
X154000500Y-84109309D01*
X154000500Y-83992116D01*
X154003868Y-83983984D01*
X154006775Y-83981871D01*
X154063342Y-83953050D01*
X154153050Y-83863342D01*
X154210646Y-83750304D01*
X154225500Y-83656519D01*
X154225499Y-83193482D01*
X154210646Y-83099696D01*
X154153050Y-82986658D01*
X154063342Y-82896950D01*
X153950304Y-82839354D01*
X153950301Y-82839353D01*
X153950300Y-82839353D01*
X153950297Y-82839352D01*
X153856521Y-82824500D01*
X153856519Y-82824500D01*
X153768143Y-82824500D01*
X153760011Y-82821132D01*
X153334011Y-82395131D01*
X153330643Y-82386999D01*
X153334011Y-82378867D01*
X153342143Y-82375499D01*
X153856520Y-82375499D01*
X153926353Y-82364439D01*
X153950304Y-82360646D01*
X154063342Y-82303050D01*
X154153050Y-82213342D01*
X154210646Y-82100304D01*
X154225500Y-82006519D01*
X154225499Y-81543482D01*
X154210646Y-81449696D01*
X154153050Y-81336658D01*
X154063342Y-81246950D01*
X153950304Y-81189354D01*
X153950301Y-81189353D01*
X153950300Y-81189353D01*
X153950297Y-81189352D01*
X153856521Y-81174500D01*
X153856519Y-81174500D01*
X153768144Y-81174500D01*
X153760012Y-81171132D01*
X153384011Y-80795131D01*
X153380643Y-80786999D01*
X153384011Y-80778867D01*
X153392143Y-80775499D01*
X153856520Y-80775499D01*
X153928734Y-80764062D01*
X153950304Y-80760646D01*
X154063342Y-80703050D01*
X154153050Y-80613342D01*
X154210646Y-80500304D01*
X154225500Y-80406519D01*
X154225499Y-79943482D01*
X154225498Y-79943478D01*
X154210647Y-79849702D01*
X154210646Y-79849699D01*
X154210646Y-79849696D01*
X154153050Y-79736658D01*
X154063342Y-79646950D01*
X153950304Y-79589354D01*
X153950301Y-79589353D01*
X153950300Y-79589353D01*
X153950297Y-79589352D01*
X153856521Y-79574500D01*
X153856519Y-79574500D01*
X153840171Y-79574500D01*
X153832039Y-79571132D01*
X153185908Y-78925001D01*
X153950000Y-78925001D01*
X153950000Y-79110187D01*
X153950147Y-79110164D01*
X154063045Y-79052640D01*
X154152640Y-78963045D01*
X154172025Y-78925000D01*
X153950001Y-78925000D01*
X153950000Y-78925001D01*
X153185908Y-78925001D01*
X152385906Y-78124999D01*
X152927974Y-78124999D01*
X152927975Y-78125000D01*
X153149999Y-78125000D01*
X153150000Y-78124999D01*
X153950000Y-78124999D01*
X153950001Y-78125000D01*
X154172025Y-78125000D01*
X154172025Y-78124999D01*
X154152640Y-78086954D01*
X154063045Y-77997359D01*
X153950146Y-77939834D01*
X153950000Y-77939810D01*
X153950000Y-78124999D01*
X153150000Y-78124999D01*
X153150000Y-77939811D01*
X153149999Y-77939810D01*
X153149853Y-77939834D01*
X153036954Y-77997359D01*
X152947359Y-78086954D01*
X152927974Y-78124999D01*
X152385906Y-78124999D01*
X152254868Y-77993961D01*
X152251500Y-77985829D01*
X152251500Y-75711691D01*
X152224235Y-75609937D01*
X152220800Y-75597118D01*
X152220799Y-75597113D01*
X152161490Y-75494386D01*
X151742104Y-75075000D01*
X151308867Y-74641763D01*
X151305499Y-74633631D01*
X151305499Y-74007298D01*
X151305499Y-74007297D01*
X151292126Y-73940063D01*
X151255072Y-73884608D01*
X151241182Y-73863820D01*
X151241179Y-73863817D01*
X151164938Y-73812875D01*
X151164939Y-73812875D01*
X151164937Y-73812874D01*
X151164935Y-73812873D01*
X151164934Y-73812873D01*
X151131090Y-73806141D01*
X151097703Y-73799500D01*
X151097701Y-73799500D01*
X150512298Y-73799500D01*
X150445066Y-73812873D01*
X150445061Y-73812875D01*
X150368820Y-73863817D01*
X150368817Y-73863820D01*
X150317875Y-73940061D01*
X150317873Y-73940065D01*
X150304500Y-74007298D01*
X150304500Y-75542701D01*
X150317835Y-75609743D01*
X150317874Y-75609937D01*
X150317875Y-75609938D01*
X150368817Y-75686179D01*
X150368819Y-75686181D01*
X150445063Y-75737126D01*
X150512297Y-75750500D01*
X151097702Y-75750499D01*
X151129785Y-75744117D01*
X151138417Y-75745834D01*
X151140160Y-75747264D01*
X151172764Y-75779868D01*
X151176132Y-75788000D01*
X151172764Y-75796132D01*
X151164632Y-75799500D01*
X146430252Y-75799500D01*
X146406988Y-75804127D01*
X146371771Y-75811132D01*
X146371767Y-75811134D01*
X146305449Y-75855446D01*
X146305446Y-75855449D01*
X146261134Y-75921767D01*
X146261132Y-75921771D01*
X146259480Y-75930079D01*
X146249500Y-75980252D01*
X146058404Y-75980252D01*
X146479529Y-75559126D01*
X146487660Y-75555759D01*
X146495792Y-75559127D01*
X146498939Y-75565016D01*
X146507834Y-75609739D01*
X146507874Y-75609937D01*
X146507875Y-75609938D01*
X146558817Y-75686179D01*
X146558819Y-75686181D01*
X146635063Y-75737126D01*
X146702297Y-75750500D01*
X147287702Y-75750499D01*
X147354937Y-75737126D01*
X147431181Y-75686181D01*
X147482126Y-75609937D01*
X147495500Y-75542703D01*
X147495499Y-75269918D01*
X147498866Y-75261788D01*
X147539114Y-75221542D01*
X147615775Y-75106811D01*
X147628951Y-75075001D01*
X147765001Y-75075001D01*
X147765001Y-75542651D01*
X147778344Y-75609738D01*
X147778346Y-75609743D01*
X147829177Y-75685819D01*
X147829180Y-75685822D01*
X147905256Y-75736653D01*
X147905261Y-75736655D01*
X147964999Y-75748538D01*
X147965000Y-75748537D01*
X147965000Y-75075001D01*
X148565000Y-75075001D01*
X148565000Y-75748537D01*
X148624738Y-75736655D01*
X148624743Y-75736653D01*
X148700819Y-75685822D01*
X148700822Y-75685819D01*
X148751653Y-75609743D01*
X148751655Y-75609739D01*
X148765000Y-75542651D01*
X148765000Y-75075001D01*
X148764999Y-75075000D01*
X148565001Y-75075000D01*
X148565000Y-75075001D01*
X147965000Y-75075001D01*
X147964999Y-75075000D01*
X147765002Y-75075000D01*
X147765001Y-75075001D01*
X147628951Y-75075001D01*
X147668580Y-74979328D01*
X147695500Y-74843993D01*
X147695500Y-74706007D01*
X147668580Y-74570672D01*
X147615775Y-74443189D01*
X147539114Y-74328458D01*
X147498867Y-74288211D01*
X147495499Y-74280079D01*
X147495499Y-74007348D01*
X147765000Y-74007348D01*
X147765000Y-74474999D01*
X147765001Y-74475000D01*
X147964999Y-74475000D01*
X147965000Y-74474999D01*
X148565000Y-74474999D01*
X148565001Y-74475000D01*
X148764998Y-74475000D01*
X148764999Y-74474999D01*
X148764999Y-74007348D01*
X148751655Y-73940261D01*
X148751653Y-73940256D01*
X148700822Y-73864180D01*
X148700819Y-73864177D01*
X148624743Y-73813346D01*
X148624739Y-73813344D01*
X148565000Y-73801461D01*
X148565000Y-74474999D01*
X147965000Y-74474999D01*
X147965000Y-73801462D01*
X147964999Y-73801461D01*
X147905261Y-73813344D01*
X147905256Y-73813346D01*
X147829180Y-73864177D01*
X147829177Y-73864180D01*
X147778346Y-73940256D01*
X147778344Y-73940260D01*
X147765000Y-74007348D01*
X147495499Y-74007348D01*
X147495499Y-74007298D01*
X147495499Y-74007297D01*
X147482126Y-73940063D01*
X147445072Y-73884608D01*
X147431182Y-73863820D01*
X147431179Y-73863817D01*
X147354938Y-73812875D01*
X147354939Y-73812875D01*
X147354937Y-73812874D01*
X147354935Y-73812873D01*
X147354934Y-73812873D01*
X147321090Y-73806141D01*
X147287703Y-73799500D01*
X147287701Y-73799500D01*
X146702298Y-73799500D01*
X146635066Y-73812873D01*
X146635061Y-73812875D01*
X146558820Y-73863817D01*
X146558817Y-73863820D01*
X146507875Y-73940061D01*
X146507873Y-73940065D01*
X146494500Y-74007298D01*
X146494500Y-74063000D01*
X146491132Y-74071132D01*
X146483000Y-74074500D01*
X146204007Y-74074500D01*
X146073297Y-74100500D01*
X146073296Y-74100500D01*
X146068677Y-74101418D01*
X146068672Y-74101419D01*
X145941186Y-74154226D01*
X145826460Y-74230883D01*
X144805883Y-75251460D01*
X144729226Y-75366186D01*
X144676419Y-75493672D01*
X144676419Y-75493675D01*
X144650198Y-75625499D01*
X144649500Y-75629008D01*
X144649500Y-76038000D01*
X144646132Y-76046132D01*
X144638000Y-76049500D01*
X144369921Y-76049500D01*
X144361789Y-76046132D01*
X144253868Y-75938211D01*
X144250500Y-75930079D01*
X144250500Y-75156008D01*
X144250500Y-75156007D01*
X144223580Y-75020672D01*
X144170775Y-74893189D01*
X144094114Y-74778458D01*
X143996542Y-74680886D01*
X143996538Y-74680883D01*
X143881813Y-74604226D01*
X143754326Y-74551419D01*
X143672831Y-74535209D01*
X143618993Y-74524500D01*
X143481007Y-74524500D01*
X143413800Y-74537868D01*
X143345675Y-74551419D01*
X143345672Y-74551419D01*
X143218186Y-74604226D01*
X143103461Y-74680883D01*
X143005883Y-74778461D01*
X142929226Y-74893186D01*
X142876419Y-75020672D01*
X142876419Y-75020675D01*
X142849500Y-75156008D01*
X140487513Y-75156008D01*
X140487513Y-74081442D01*
X140481099Y-74010862D01*
X140430491Y-73848452D01*
X140342485Y-73702873D01*
X140222198Y-73582586D01*
X140222197Y-73582585D01*
X140174577Y-73553798D01*
X140076619Y-73494580D01*
X140076616Y-73494579D01*
X140076617Y-73494579D01*
X139914211Y-73443972D01*
X139914205Y-73443971D01*
X139873022Y-73440229D01*
X139843629Y-73437558D01*
X139843624Y-73437558D01*
X139099013Y-73437558D01*
X139090881Y-73434190D01*
X139087513Y-73426058D01*
X139087513Y-72518021D01*
X139073883Y-72449500D01*
X139073883Y-72449499D01*
X139060594Y-72382690D01*
X139060593Y-72382685D01*
X139057203Y-72374500D01*
X139047055Y-72350001D01*
X142350001Y-72350001D01*
X142350001Y-73854207D01*
X142352852Y-73884608D01*
X142397654Y-74012647D01*
X142397655Y-74012648D01*
X142478207Y-74121790D01*
X142478209Y-74121792D01*
X142587351Y-74202344D01*
X142587352Y-74202345D01*
X142715391Y-74247147D01*
X142745798Y-74249999D01*
X143299998Y-74249999D01*
X143300000Y-74249998D01*
X143300000Y-72350001D01*
X144300000Y-72350001D01*
X144300000Y-74249998D01*
X144300001Y-74249999D01*
X144854194Y-74249999D01*
X144854207Y-74249998D01*
X144884608Y-74247147D01*
X145012647Y-74202345D01*
X145012648Y-74202344D01*
X145121790Y-74121792D01*
X145121792Y-74121790D01*
X145202344Y-74012648D01*
X145202345Y-74012647D01*
X145247147Y-73884608D01*
X145249999Y-73854208D01*
X145250000Y-73854194D01*
X145250000Y-72874234D01*
X148199500Y-72874234D01*
X148199500Y-73025766D01*
X148215414Y-73085161D01*
X148238717Y-73172129D01*
X148238721Y-73172139D01*
X148314484Y-73303364D01*
X148956132Y-73945012D01*
X148959500Y-73953144D01*
X148959500Y-74850765D01*
X148993947Y-74979328D01*
X148998719Y-74997135D01*
X149032959Y-75056441D01*
X149034500Y-75062190D01*
X149034500Y-75542701D01*
X149047835Y-75609743D01*
X149047874Y-75609937D01*
X149047875Y-75609938D01*
X149098817Y-75686179D01*
X149098819Y-75686181D01*
X149175063Y-75737126D01*
X149242297Y-75750500D01*
X149827702Y-75750499D01*
X149894937Y-75737126D01*
X149971181Y-75686181D01*
X150022126Y-75609937D01*
X150035500Y-75542703D01*
X150035499Y-75062188D01*
X150037039Y-75056440D01*
X150071281Y-74997135D01*
X150110500Y-74850766D01*
X150110500Y-73634234D01*
X150110466Y-73634108D01*
X150104916Y-73613396D01*
X150071282Y-73487870D01*
X150071281Y-73487865D01*
X150009121Y-73380201D01*
X149995515Y-73356635D01*
X149888365Y-73249485D01*
X149863881Y-73225001D01*
X150750000Y-73225001D01*
X150750000Y-73375081D01*
X150802923Y-73348117D01*
X150898117Y-73252923D01*
X150912345Y-73225000D01*
X150750001Y-73225000D01*
X150750000Y-73225001D01*
X149863881Y-73225001D01*
X149128365Y-72489485D01*
X149128364Y-72489484D01*
X148997139Y-72413721D01*
X148997137Y-72413720D01*
X148997135Y-72413719D01*
X148997131Y-72413718D01*
X148997129Y-72413717D01*
X148850766Y-72374500D01*
X148699234Y-72374500D01*
X148552870Y-72413717D01*
X148552860Y-72413721D01*
X148421635Y-72489484D01*
X148314484Y-72596635D01*
X148238721Y-72727860D01*
X148238717Y-72727870D01*
X148202542Y-72862882D01*
X148199500Y-72874234D01*
X145250000Y-72874234D01*
X145250000Y-72350001D01*
X145249999Y-72350000D01*
X144300001Y-72350000D01*
X144300000Y-72350001D01*
X143300000Y-72350001D01*
X143299999Y-72350000D01*
X142350002Y-72350000D01*
X142350001Y-72350001D01*
X139047055Y-72350001D01*
X139036699Y-72324999D01*
X149687654Y-72324999D01*
X149687655Y-72325000D01*
X149849999Y-72325000D01*
X149850000Y-72324999D01*
X150750000Y-72324999D01*
X150750001Y-72325000D01*
X150912345Y-72325000D01*
X150912345Y-72324999D01*
X150898117Y-72297076D01*
X150802923Y-72201882D01*
X150750000Y-72174916D01*
X150750000Y-72324999D01*
X149850000Y-72324999D01*
X149850000Y-72174916D01*
X149849999Y-72174916D01*
X149797076Y-72201882D01*
X149701882Y-72297076D01*
X149687654Y-72324999D01*
X139036699Y-72324999D01*
X139007788Y-72255202D01*
X138931127Y-72140470D01*
X138246543Y-71455886D01*
X138206796Y-71429328D01*
X138131813Y-71379226D01*
X138004326Y-71326419D01*
X137922832Y-71310209D01*
X137868994Y-71299500D01*
X137868993Y-71299500D01*
X137868992Y-71299500D01*
X137418921Y-71299500D01*
X137410789Y-71296132D01*
X137407421Y-71288000D01*
X137410789Y-71279868D01*
X137468450Y-71222207D01*
X137644114Y-71046543D01*
X137720775Y-70931811D01*
X137773580Y-70804328D01*
X137800500Y-70668994D01*
X137800500Y-70531006D01*
X137800500Y-69845791D01*
X142350000Y-69845791D01*
X142350000Y-71349999D01*
X142350001Y-71350000D01*
X143299999Y-71350000D01*
X143300000Y-71349999D01*
X143300000Y-69450001D01*
X144300000Y-69450001D01*
X144300000Y-71349999D01*
X144300001Y-71350000D01*
X145249998Y-71350000D01*
X145249999Y-71349999D01*
X145249999Y-69845806D01*
X145249998Y-69845792D01*
X145247147Y-69815391D01*
X145202345Y-69687352D01*
X145202344Y-69687351D01*
X145121792Y-69578209D01*
X145121790Y-69578207D01*
X145012648Y-69497655D01*
X145012647Y-69497654D01*
X144884608Y-69452852D01*
X144854208Y-69450000D01*
X144300001Y-69450000D01*
X144300000Y-69450001D01*
X143300000Y-69450001D01*
X143299999Y-69450000D01*
X142745806Y-69450000D01*
X142745792Y-69450001D01*
X142715391Y-69452852D01*
X142587352Y-69497654D01*
X142587351Y-69497655D01*
X142478209Y-69578207D01*
X142478207Y-69578209D01*
X142397655Y-69687351D01*
X142397654Y-69687352D01*
X142352852Y-69815391D01*
X142350000Y-69845791D01*
X137800500Y-69845791D01*
X137800500Y-69331007D01*
X137773580Y-69195672D01*
X137720775Y-69068189D01*
X137644114Y-68953458D01*
X137546542Y-68855886D01*
X137500553Y-68825157D01*
X137431813Y-68779226D01*
X137304326Y-68726419D01*
X137222831Y-68710209D01*
X137168993Y-68699500D01*
X137031007Y-68699500D01*
X136967316Y-68712169D01*
X136895675Y-68726419D01*
X136895672Y-68726419D01*
X136768186Y-68779226D01*
X136653461Y-68855883D01*
X136555883Y-68953461D01*
X136479226Y-69068186D01*
X136426419Y-69195672D01*
X136426419Y-69195675D01*
X136399500Y-69331008D01*
X136399500Y-70305078D01*
X136396132Y-70313210D01*
X135862050Y-70847291D01*
X135853918Y-70850659D01*
X135850788Y-70850000D01*
X135850000Y-70850000D01*
X135039866Y-70850000D01*
X135031734Y-70846632D01*
X135028366Y-70838500D01*
X135031734Y-70830368D01*
X135083645Y-70778457D01*
X135240838Y-70621263D01*
X135248969Y-70617896D01*
X135251940Y-70618287D01*
X135278856Y-70625500D01*
X135371144Y-70625500D01*
X135460288Y-70601614D01*
X135502850Y-70577040D01*
X135508600Y-70575499D01*
X135556520Y-70575499D01*
X135634392Y-70563166D01*
X135650304Y-70560646D01*
X135763342Y-70503050D01*
X135853050Y-70413342D01*
X135910646Y-70300304D01*
X135925500Y-70206519D01*
X135925499Y-69593482D01*
X135925498Y-69593478D01*
X135910647Y-69499702D01*
X135910646Y-69499699D01*
X135910646Y-69499696D01*
X135853050Y-69386658D01*
X135763342Y-69296950D01*
X135650304Y-69239354D01*
X135650301Y-69239353D01*
X135650300Y-69239353D01*
X135650297Y-69239352D01*
X135556521Y-69224500D01*
X135093479Y-69224500D01*
X134999702Y-69239352D01*
X134999699Y-69239353D01*
X134999697Y-69239353D01*
X134999696Y-69239354D01*
X134942140Y-69268680D01*
X134886657Y-69296950D01*
X134796950Y-69386657D01*
X134768680Y-69442140D01*
X134739354Y-69499696D01*
X134739353Y-69499697D01*
X134739353Y-69499699D01*
X134739352Y-69499702D01*
X134724500Y-69593478D01*
X134724500Y-69858632D01*
X134721132Y-69866764D01*
X134280602Y-70307293D01*
X134272470Y-70310661D01*
X134264338Y-70307293D01*
X134260970Y-70299161D01*
X134261112Y-70297362D01*
X134261825Y-70292858D01*
X134275500Y-70206519D01*
X134275499Y-69593482D01*
X134275498Y-69593478D01*
X134260647Y-69499702D01*
X134260646Y-69499699D01*
X134260646Y-69499696D01*
X134203050Y-69386658D01*
X134113342Y-69296950D01*
X134000304Y-69239354D01*
X134000303Y-69239353D01*
X134000300Y-69239352D01*
X133985201Y-69236961D01*
X133977696Y-69232362D01*
X133975500Y-69225603D01*
X133975500Y-68974395D01*
X133978868Y-68966263D01*
X133985197Y-68963038D01*
X134000304Y-68960646D01*
X134113342Y-68903050D01*
X134203050Y-68813342D01*
X134260646Y-68700304D01*
X134260694Y-68700000D01*
X134739813Y-68700000D01*
X134739835Y-68700147D01*
X134797359Y-68813045D01*
X134886954Y-68902640D01*
X134925000Y-68922024D01*
X134925000Y-68700001D01*
X135725000Y-68700001D01*
X135725000Y-68922024D01*
X135763045Y-68902640D01*
X135852640Y-68813045D01*
X135910164Y-68700147D01*
X135910187Y-68700000D01*
X135725001Y-68700000D01*
X135725000Y-68700001D01*
X134925000Y-68700001D01*
X134924999Y-68700000D01*
X134739813Y-68700000D01*
X134260694Y-68700000D01*
X134275500Y-68606519D01*
X134275499Y-67993482D01*
X134274916Y-67989799D01*
X134261528Y-67905262D01*
X134260694Y-67899999D01*
X134739812Y-67899999D01*
X134739813Y-67900000D01*
X134924999Y-67900000D01*
X134925000Y-67899999D01*
X135725000Y-67899999D01*
X135725001Y-67900000D01*
X135910187Y-67900000D01*
X135910187Y-67899999D01*
X135910164Y-67899852D01*
X135852640Y-67786954D01*
X135763045Y-67697359D01*
X135725000Y-67677974D01*
X135725000Y-67899999D01*
X134925000Y-67899999D01*
X134925000Y-67677974D01*
X134924999Y-67677974D01*
X134886954Y-67697359D01*
X134797359Y-67786954D01*
X134739835Y-67899852D01*
X134739812Y-67899999D01*
X134260694Y-67899999D01*
X134260647Y-67899702D01*
X134260646Y-67899699D01*
X134260646Y-67899696D01*
X134203050Y-67786658D01*
X134113342Y-67696950D01*
X134000304Y-67639354D01*
X134000301Y-67639353D01*
X134000300Y-67639353D01*
X134000297Y-67639352D01*
X133906521Y-67624500D01*
X133443479Y-67624500D01*
X133349702Y-67639352D01*
X133349699Y-67639353D01*
X133349697Y-67639353D01*
X133349696Y-67639354D01*
X133292140Y-67668680D01*
X133236657Y-67696950D01*
X133146950Y-67786657D01*
X133118680Y-67842140D01*
X133089354Y-67899696D01*
X133089353Y-67899697D01*
X133089353Y-67899699D01*
X133089352Y-67899702D01*
X133075083Y-67989799D01*
X133070485Y-67997304D01*
X133063725Y-67999500D01*
X132989941Y-67999500D01*
X132981809Y-67996132D01*
X132979982Y-67993750D01*
X132950500Y-67942686D01*
X132857313Y-67849499D01*
X132743190Y-67783610D01*
X132743188Y-67783609D01*
X132743186Y-67783608D01*
X132743182Y-67783607D01*
X132743180Y-67783606D01*
X132615892Y-67749500D01*
X132493654Y-67749500D01*
X132485522Y-67746132D01*
X132482154Y-67738000D01*
X132482452Y-67609382D01*
X132485817Y-67601284D01*
X132860489Y-67226613D01*
X132912388Y-67136721D01*
X132919799Y-67123885D01*
X132950500Y-67009308D01*
X132950500Y-66986025D01*
X132951668Y-66980974D01*
X132957081Y-66969902D01*
X132990573Y-66901393D01*
X133000500Y-66833260D01*
X133000500Y-66400001D01*
X133250001Y-66400001D01*
X133250001Y-66833217D01*
X133259912Y-66901249D01*
X133259913Y-66901252D01*
X133311213Y-67006188D01*
X133393811Y-67088786D01*
X133449999Y-67116255D01*
X133450000Y-67116255D01*
X133450000Y-66400001D01*
X134050000Y-66400001D01*
X134050000Y-67116255D01*
X134106188Y-67088786D01*
X134188786Y-67006188D01*
X134240086Y-66901252D01*
X134240087Y-66901249D01*
X134250000Y-66833218D01*
X134250000Y-66400001D01*
X134249999Y-66400000D01*
X134050001Y-66400000D01*
X134050000Y-66400001D01*
X133450000Y-66400001D01*
X133449999Y-66400000D01*
X133250002Y-66400000D01*
X133250001Y-66400001D01*
X133000500Y-66400001D01*
X133000500Y-65366781D01*
X133250000Y-65366781D01*
X133250000Y-65799999D01*
X133250001Y-65800000D01*
X133449999Y-65800000D01*
X133450000Y-65799999D01*
X134050000Y-65799999D01*
X134050001Y-65800000D01*
X134249998Y-65800000D01*
X134249999Y-65799999D01*
X134249999Y-65366782D01*
X134240087Y-65298750D01*
X134240086Y-65298747D01*
X134188786Y-65193811D01*
X134106188Y-65111213D01*
X134050000Y-65083743D01*
X134050000Y-65799999D01*
X133450000Y-65799999D01*
X133450000Y-65083743D01*
X133449999Y-65083743D01*
X133393811Y-65111213D01*
X133311213Y-65193811D01*
X133259913Y-65298747D01*
X133259912Y-65298750D01*
X133250000Y-65366781D01*
X133000500Y-65366781D01*
X133000500Y-65366740D01*
X132990573Y-65298607D01*
X132951668Y-65219024D01*
X132950500Y-65213973D01*
X132950500Y-63612000D01*
X132953868Y-63603868D01*
X132962000Y-63600500D01*
X134888000Y-63600500D01*
X134896132Y-63603868D01*
X134899500Y-63612000D01*
X134899500Y-64054271D01*
X134902354Y-64084702D01*
X134947207Y-64212883D01*
X134947208Y-64212884D01*
X134987528Y-64267516D01*
X135027850Y-64322150D01*
X135112546Y-64384658D01*
X135137115Y-64402791D01*
X135137116Y-64402792D01*
X135137117Y-64402792D01*
X135137118Y-64402793D01*
X135192095Y-64422030D01*
X135265297Y-64447645D01*
X135265298Y-64447645D01*
X135265301Y-64447646D01*
X135295734Y-64450500D01*
X135295742Y-64450500D01*
X135904258Y-64450500D01*
X135904266Y-64450500D01*
X135934699Y-64447646D01*
X136062882Y-64402793D01*
X136172150Y-64322150D01*
X136252793Y-64212882D01*
X136297646Y-64084699D01*
X136300500Y-64054266D01*
X136300500Y-63612000D01*
X136303868Y-63603868D01*
X136312000Y-63600500D01*
X137405079Y-63600500D01*
X137413211Y-63603868D01*
X137705886Y-63896542D01*
X137803458Y-63994114D01*
X137918189Y-64070775D01*
X137951805Y-64084699D01*
X138045671Y-64123580D01*
X138072591Y-64128934D01*
X138181007Y-64150500D01*
X142338000Y-64150500D01*
X142346132Y-64153868D01*
X142349500Y-64162000D01*
X142349500Y-65454271D01*
X142352354Y-65484702D01*
X142397207Y-65612883D01*
X142397208Y-65612884D01*
X142477850Y-65722150D01*
X142562546Y-65784658D01*
X142587115Y-65802791D01*
X142587116Y-65802792D01*
X142587117Y-65802792D01*
X142587118Y-65802793D01*
X142642095Y-65822030D01*
X142715297Y-65847645D01*
X142715298Y-65847645D01*
X142715301Y-65847646D01*
X142745734Y-65850500D01*
X142745742Y-65850500D01*
X144854258Y-65850500D01*
X144854266Y-65850500D01*
X144884699Y-65847646D01*
X145012882Y-65802793D01*
X145122150Y-65722150D01*
X145202793Y-65612882D01*
X145247646Y-65484699D01*
X145250500Y-65454266D01*
X145250500Y-64162000D01*
X145253868Y-64153868D01*
X145262000Y-64150500D01*
X148355079Y-64150500D01*
X148363211Y-64153868D01*
X149596132Y-65386788D01*
X149599500Y-65394920D01*
X149599500Y-67681007D01*
X149599500Y-71293993D01*
X149622997Y-71412118D01*
X149624279Y-71418563D01*
X149624500Y-71420807D01*
X149624500Y-71483490D01*
X149640279Y-71583119D01*
X149640280Y-71583122D01*
X149640281Y-71583126D01*
X149701472Y-71703220D01*
X149796780Y-71798528D01*
X149916874Y-71859719D01*
X149916879Y-71859719D01*
X149916880Y-71859720D01*
X150016510Y-71875500D01*
X150016512Y-71875500D01*
X150037663Y-71875500D01*
X150042064Y-71876375D01*
X150095672Y-71898580D01*
X150231007Y-71925500D01*
X150231009Y-71925500D01*
X150368991Y-71925500D01*
X150368993Y-71925500D01*
X150504328Y-71898580D01*
X150557936Y-71876375D01*
X150562337Y-71875500D01*
X150583490Y-71875500D01*
X150657668Y-71863751D01*
X150683126Y-71859719D01*
X150803220Y-71798528D01*
X150898528Y-71703220D01*
X150959719Y-71583126D01*
X150975500Y-71483488D01*
X150975500Y-71420807D01*
X150975721Y-71418563D01*
X150977003Y-71412118D01*
X151000500Y-71293993D01*
X151000500Y-71156006D01*
X151099500Y-71156006D01*
X151099500Y-71293994D01*
X151116454Y-71379225D01*
X151126419Y-71429324D01*
X151126419Y-71429327D01*
X151167262Y-71527931D01*
X151179225Y-71556811D01*
X151255886Y-71671543D01*
X152496132Y-72911789D01*
X152499500Y-72919920D01*
X152499500Y-76879271D01*
X152502354Y-76909702D01*
X152547207Y-77037883D01*
X152547208Y-77037884D01*
X152627850Y-77147150D01*
X152652249Y-77165157D01*
X152737115Y-77227791D01*
X152737116Y-77227792D01*
X152737117Y-77227792D01*
X152737118Y-77227793D01*
X152792095Y-77247030D01*
X152865297Y-77272645D01*
X152865298Y-77272645D01*
X152865301Y-77272646D01*
X152895734Y-77275500D01*
X152895742Y-77275500D01*
X154204258Y-77275500D01*
X154204266Y-77275500D01*
X154234699Y-77272646D01*
X154362882Y-77227793D01*
X154472150Y-77147150D01*
X154552793Y-77037882D01*
X154597646Y-76909699D01*
X154600500Y-76879266D01*
X154600500Y-71570734D01*
X154597646Y-71540301D01*
X154552793Y-71412118D01*
X154472150Y-71302850D01*
X154417516Y-71262528D01*
X154362884Y-71222208D01*
X154362883Y-71222207D01*
X154234702Y-71177354D01*
X154204271Y-71174500D01*
X154204266Y-71174500D01*
X152895734Y-71174500D01*
X152895728Y-71174500D01*
X152881309Y-71175852D01*
X152865301Y-71177354D01*
X152865298Y-71177354D01*
X152865297Y-71177355D01*
X152781530Y-71206666D01*
X152772742Y-71206172D01*
X152769600Y-71203943D01*
X152512864Y-70947207D01*
X152246543Y-70680886D01*
X152246539Y-70680883D01*
X152131813Y-70604226D01*
X152071467Y-70579230D01*
X152066180Y-70577040D01*
X152004326Y-70551419D01*
X151901701Y-70531006D01*
X151868994Y-70524500D01*
X151731006Y-70524500D01*
X151663799Y-70537868D01*
X151595675Y-70551419D01*
X151595672Y-70551419D01*
X151468186Y-70604226D01*
X151353460Y-70680883D01*
X151255883Y-70778460D01*
X151179226Y-70893186D01*
X151126419Y-71020672D01*
X151126419Y-71020675D01*
X151121274Y-71046543D01*
X151099500Y-71156006D01*
X151000500Y-71156006D01*
X151000500Y-67681007D01*
X151000500Y-65031007D01*
X150973580Y-64895672D01*
X150921774Y-64770602D01*
X151137279Y-64770602D01*
X151137279Y-65153840D01*
X151160554Y-65390156D01*
X151174843Y-65535235D01*
X151249608Y-65911105D01*
X151249610Y-65911114D01*
X151360857Y-66277844D01*
X151507513Y-66631906D01*
X151507516Y-66631912D01*
X151688169Y-66969889D01*
X151688177Y-66969902D01*
X151799642Y-67136721D01*
X151901090Y-67288548D01*
X152144214Y-67584796D01*
X152415204Y-67855786D01*
X152711452Y-68098910D01*
X153030103Y-68311826D01*
X153030106Y-68311828D01*
X153030110Y-68311830D01*
X153368087Y-68492483D01*
X153368093Y-68492486D01*
X153458548Y-68529953D01*
X153722155Y-68639143D01*
X154088892Y-68750391D01*
X154464767Y-68825157D01*
X154846160Y-68862721D01*
X154846167Y-68862721D01*
X155229391Y-68862721D01*
X155229398Y-68862721D01*
X155610791Y-68825157D01*
X155986666Y-68750391D01*
X156353403Y-68639143D01*
X156707469Y-68492484D01*
X157045455Y-68311826D01*
X157364106Y-68098910D01*
X157660354Y-67855786D01*
X157931344Y-67584796D01*
X158174468Y-67288548D01*
X158387384Y-66969897D01*
X158568042Y-66631911D01*
X158714701Y-66277845D01*
X158825949Y-65911108D01*
X158900715Y-65535233D01*
X158938279Y-65153840D01*
X158938279Y-64770602D01*
X158900715Y-64389209D01*
X158825949Y-64013334D01*
X158714701Y-63646597D01*
X158568042Y-63292531D01*
X158387384Y-62954545D01*
X158174468Y-62635894D01*
X157931344Y-62339646D01*
X157660354Y-62068656D01*
X157364106Y-61825532D01*
X157199128Y-61715297D01*
X157045460Y-61612619D01*
X157045447Y-61612611D01*
X156707470Y-61431958D01*
X156707464Y-61431955D01*
X156462591Y-61330526D01*
X156353403Y-61285299D01*
X156254377Y-61255260D01*
X155986672Y-61174052D01*
X155986663Y-61174050D01*
X155610793Y-61099285D01*
X155526037Y-61090937D01*
X155229398Y-61061721D01*
X154846160Y-61061721D01*
X154579184Y-61088015D01*
X154464764Y-61099285D01*
X154088894Y-61174050D01*
X154088885Y-61174052D01*
X153722155Y-61285299D01*
X153368093Y-61431955D01*
X153368087Y-61431958D01*
X153030110Y-61612611D01*
X153030097Y-61612619D01*
X152711457Y-61825528D01*
X152711456Y-61825529D01*
X152415209Y-62068651D01*
X152144209Y-62339651D01*
X151901087Y-62635898D01*
X151901086Y-62635899D01*
X151688177Y-62954539D01*
X151688169Y-62954552D01*
X151507516Y-63292529D01*
X151507513Y-63292535D01*
X151360857Y-63646597D01*
X151249610Y-64013327D01*
X151249608Y-64013336D01*
X151174843Y-64389206D01*
X151169087Y-64447646D01*
X151137279Y-64770602D01*
X150921774Y-64770602D01*
X150920775Y-64768189D01*
X150844114Y-64653458D01*
X150746542Y-64555886D01*
X149096543Y-62905886D01*
X148984478Y-62831007D01*
X148981813Y-62829226D01*
X148854326Y-62776419D01*
X148772832Y-62760209D01*
X148718994Y-62749500D01*
X148718993Y-62749500D01*
X148718992Y-62749500D01*
X145262000Y-62749500D01*
X145253868Y-62746132D01*
X145250500Y-62738000D01*
X145250500Y-61445742D01*
X145250500Y-61445734D01*
X145247646Y-61415301D01*
X145202793Y-61287118D01*
X145122150Y-61177850D01*
X145067516Y-61137528D01*
X145012884Y-61097208D01*
X145012883Y-61097207D01*
X144884702Y-61052354D01*
X144854271Y-61049500D01*
X144854266Y-61049500D01*
X142745734Y-61049500D01*
X142745728Y-61049500D01*
X142715297Y-61052354D01*
X142587116Y-61097207D01*
X142587115Y-61097208D01*
X142477851Y-61177849D01*
X142477849Y-61177851D01*
X142397208Y-61287115D01*
X142397207Y-61287116D01*
X142352354Y-61415297D01*
X142349500Y-61445728D01*
X142349500Y-62738000D01*
X142346132Y-62746132D01*
X142338000Y-62749500D01*
X138544920Y-62749500D01*
X138536788Y-62746132D01*
X138358845Y-62568189D01*
X138146543Y-62355886D01*
X138146539Y-62355883D01*
X138031813Y-62279226D01*
X137904326Y-62226419D01*
X137822832Y-62210209D01*
X137768994Y-62199500D01*
X137768993Y-62199500D01*
X137768992Y-62199500D01*
X136312000Y-62199500D01*
X136303868Y-62196132D01*
X136300500Y-62188000D01*
X136300500Y-61745742D01*
X136300500Y-61745734D01*
X136297646Y-61715301D01*
X136252793Y-61587118D01*
X136172150Y-61477850D01*
X136087399Y-61415301D01*
X136062884Y-61397208D01*
X136062883Y-61397207D01*
X135934702Y-61352354D01*
X135904271Y-61349500D01*
X135904266Y-61349500D01*
X135295734Y-61349500D01*
X135295728Y-61349500D01*
X135265297Y-61352354D01*
X135137116Y-61397207D01*
X135137115Y-61397208D01*
X135027851Y-61477849D01*
X135027849Y-61477851D01*
X134947208Y-61587115D01*
X134947207Y-61587116D01*
X134902354Y-61715297D01*
X134899500Y-61745728D01*
X134899500Y-62188000D01*
X134896132Y-62196132D01*
X134888000Y-62199500D01*
X132506518Y-62199500D01*
X132498386Y-62196132D01*
X132495018Y-62188000D01*
X132495018Y-62187973D01*
X132497367Y-61174050D01*
X132498901Y-60511971D01*
X132502288Y-60503849D01*
X132510401Y-60500500D01*
X154934108Y-60500500D01*
X154999750Y-60500500D01*
X155000251Y-60500510D01*
G37*
%TD.AperFunction*%
%TD*%
M02*
